<?xml version="1.0" encoding="UTF-8" standalone="no"?>
<!DOCTYPE svg PUBLIC "-//W3C//DTD SVG 1.1//EN" "http://www.w3.org/Graphics/SVG/1.1/DTD/svg11.dtd">
<!-- Generated by Microsoft Visio, SVG Export Drawing1.svg Page-1 -->
<svg xmlns="http://www.w3.org/2000/svg" xmlns:xlink="http://www.w3.org/1999/xlink" xmlns:ev="http://www.w3.org/2001/xml-events"
		xmlns:v="http://schemas.microsoft.com/visio/2003/SVGExtensions/" width="5.72458in" height="2.31597in"
		viewBox="0 0 412.17 166.75" xml:space="preserve" color-interpolation-filters="sRGB" class="st22">
	<v:documentProperties v:langID="1033" v:viewMarkup="false"/>

	<style type="text/css">
	<![CDATA[
		.st1 {fill:#ccecff;stroke:#b7dde8;stroke-linecap:round;stroke-linejoin:round;stroke-width:0.25}
		.st2 {fill:#00188f;stroke:none;stroke-linecap:butt;stroke-width:0.597656}
		.st3 {fill:#ffffff;stroke:none;stroke-linecap:butt;stroke-width:0.75}
		.st4 {fill:#ffffff;stroke:none;stroke-linecap:butt;stroke-width:1}
		.st5 {fill:#ffffff;stroke:none;stroke-linecap:butt;stroke-width:0.653846}
		.st6 {fill:#0078d7;stroke:none;stroke-linecap:butt;stroke-width:0.653846}
		.st7 {fill:#0078d7;font-family:Segoe UI;font-size:0.75em}
		.st8 {font-size:1em}
		.st9 {fill:none;stroke:none;stroke-linecap:round;stroke-linejoin:round;stroke-width:0.75}
		.st10 {fill:#0070c0;font-family:Segoe UI;font-size:0.583328em}
		.st11 {marker-end:url(#mrkr4-98);stroke:#000000;stroke-linecap:round;stroke-linejoin:round;stroke-opacity:0.27;stroke-width:0.75}
		.st12 {fill:#000000;fill-opacity:0.27;stroke:#000000;stroke-opacity:0.27;stroke-width:0.22935779816514}
		.st13 {fill:#00188f;stroke:none;stroke-linecap:butt;stroke-width:0.75}
		.st14 {fill:#00188f;font-family:Segoe UI;font-size:0.75em}
		.st15 {fill:none;stroke:#bfbfbf;stroke-linecap:round;stroke-linejoin:round;stroke-width:0.75}
		.st16 {fill:#ffffff;stroke:#ffffff;stroke-linecap:round;stroke-linejoin:round;stroke-width:0.75}
		.st17 {fill:#a5a5a5;stroke:none;stroke-linecap:butt;stroke-width:0.75}
		.st18 {fill:#7f7f7f;font-family:Segoe UI Light;font-size:1.16666em}
		.st19 {marker-end:url(#mrkr13-132);stroke:#0070c0;stroke-linecap:round;stroke-linejoin:round;stroke-width:1.2}
		.st20 {fill:#0070c0;fill-opacity:1;stroke:#0070c0;stroke-opacity:1;stroke-width:0.45454545454545}
		.st21 {fill:#0078d7;font-family:Segoe UI;font-size:0.666664em}
		.st22 {fill:none;fill-rule:evenodd;font-size:12px;overflow:visible;stroke-linecap:square;stroke-miterlimit:3}
	]]>
	</style>

	<defs id="Markers">
		<g id="lend4">
			<path d="M 2 1 L 0 0 L 2 -1 L 2 1 " style="stroke:none"/>
		</g>
		<marker id="mrkr4-98" class="st12" v:arrowType="4" v:arrowSize="2" v:setback="8.72" refX="-8.72" orient="auto"
				markerUnits="strokeWidth" overflow="visible">
			<use xlink:href="#lend4" transform="scale(-4.36,-4.36) "/>
		</marker>
		<g id="lend13">
			<path d="M 3 1 L 0 0 L 3 -1 L 3 1 " style="stroke:none"/>
		</g>
		<marker id="mrkr13-132" class="st20" v:arrowType="13" v:arrowSize="0" v:setback="6.6" refX="-6.6" orient="auto"
				markerUnits="strokeWidth" overflow="visible">
			<use xlink:href="#lend13" transform="scale(-2.2,-2.2) "/>
		</marker>
	</defs>
	<g v:mID="0" v:index="1" v:groupContext="foregroundPage">
		<title>Page-1</title>
		<v:pageProperties v:drawingScale="1" v:pageScale="1" v:drawingUnits="19" v:shadowOffsetX="9" v:shadowOffsetY="-9"/>
		<v:layer v:name="On-premises infrastructure services" v:index="0"/>
		<v:layer v:name="On-premises applications" v:index="1"/>
		<v:layer v:name="Connector" v:index="2"/>
		<g id="shape61-1" v:mID="61" v:groupContext="shape" transform="translate(178.045,-0.125)">
			<title>Sheet.61</title>
			<rect x="0" y="0.25" width="234" height="166.5" rx="4.5" ry="4.5" class="st1"/>
		</g>
		<g id="group1-3" transform="translate(343.614,-31.625)" v:mID="1" v:groupContext="group">
			<title>Active Directory VM</title>
			<g id="shape2-4" v:mID="2" v:groupContext="shape">
				<title>Sheet.2</title>
				<path d="M37.52 138.92 C37.52 139.6 37.61 137.48 37.04 136.91 C36.75 136.62 36.37 136.43 36.08 136.43 C35.98 136.43
							 35.89 136.43 35.79 136.43 L1.63 136.43 C0.77 136.43 0 137.29 0 138.35 L0 164.83 C0 165.89 0.67 166.75
							 1.63 166.75 L35.89 166.75 C36.75 166.75 37.52 165.89 37.52 164.83 L37.52 138.92 Z" class="st2"/>
			</g>
			<g id="group3-6" transform="translate(9.81572,-4.20328)" v:mID="3" v:groupContext="group" v:layerMember="0">
				<title>AD FS.5004</title>
				<g id="shape4-7" v:mID="4" v:groupContext="shape" v:layerMember="0" transform="translate(4.06992,-0.0773046)">
					<title>Sheet.4</title>
					<path d="M13.64 165.96 L7.44 155.65 C7.17 155.21 6.74 155.21 6.47 155.65 L0.27 165.96 C0 166.41 0.21 166.75 0.74
								 166.75 L13.17 166.75 C13.7 166.75 13.91 166.41 13.64 165.96 ZM10.63 165.74 L7.91 165.74 L7.91 164.11
								 L9 164.11 L9 163.02 L7.36 163.02 L6.82 163.02 L5.18 163.02 L5.18 164.11 L6.27 164.11 L6.27 165.74
								 L3.55 165.74 L3.55 164.11 L4.64 164.11 L4.64 162.47 L5.18 162.47 L6.82 162.47 L6.82 161.38 L5.73
								 161.38 L5.73 159.75 L8.45 159.75 L8.45 161.38 L7.36 161.38 L7.36 162.47 L9 162.47 L9.54 162.47 L9.54
								 164.11 L10.63 164.11 L10.63 165.74 Z" class="st3"/>
				</g>
				<g id="shape5-9" v:mID="5" v:groupContext="shape" v:layerMember="0">
					<title>Sheet.5</title>
					<path d="M9.8 144.43 L1.09 144.43 C0.49 144.43 0 144.91 0 145.49 L0 166.75 L3.04 166.75 C3.04 166.52 3.1 166.27
								 3.25 166.04 L4.13 164.57 L1.63 164.57 L1.63 163.48 L4.79 163.48 L5.44 162.39 L1.63 162.39 L1.63
								 161.31 L6.1 161.31 L9.97 154.9 C10.19 154.52 10.52 154.3 10.89 154.25 L10.89 145.49 C10.89 144.91
								 10.4 144.43 9.8 144.43 ZM9.25 148.78 L1.63 148.78 L1.63 147.7 L9.25 147.7 L9.25 148.78 Z"
							class="st3"/>
				</g>
			</g>
		</g>
		<g id="group6-11" transform="translate(241.045,-31.625)" v:mID="6" v:groupContext="group">
			<title>Application Server VM</title>
			<g id="shape7-12" v:mID="7" v:groupContext="shape">
				<title>Sheet.7</title>
				<path d="M37.52 138.92 C37.52 139.6 37.61 137.48 37.04 136.91 C36.75 136.62 36.37 136.43 36.08 136.43 C35.98 136.43
							 35.89 136.43 35.79 136.43 L1.63 136.43 C0.77 136.43 0 137.29 0 138.35 L0 164.83 C0 165.89 0.67 166.75
							 1.63 166.75 L35.89 166.75 C36.75 166.75 37.52 165.89 37.52 164.83 L37.52 138.92 Z" class="st2"/>
			</g>
			<g id="group8-14" transform="translate(9.47553,-4.07138)" v:mID="8" v:groupContext="group">
				<title>Sheet.8</title>
				<g id="shape9-15" v:mID="9" v:groupContext="shape" v:layerMember="1">
					<title>Sheet.9</title>
					<path d="M9.46 144.57 L1.05 144.57 C0.47 144.57 0 145.06 0 145.65 L0 166.75 L5.78 166.75 L5.78 164.59 L1.58 164.59
								 L1.58 163.5 L5.78 163.5 L5.78 162.42 L1.58 162.42 L1.58 161.34 L5.78 161.34 L5.78 158.1 L5.78 157.55
								 L6.31 157.55 L9.46 157.55 C9.78 157.55 9.99 157.55 10.51 157.55 L10.51 145.65 C10.51 145.06 10.04
								 144.57 9.46 144.57 ZM8.94 148.9 L1.58 148.9 L1.58 147.82 L8.94 147.82 L8.94 148.9 Z" class="st4"/>
				</g>
				<g id="group10-17" transform="translate(6.57108,-2.55795E-13)" v:mID="10" v:groupContext="group" v:layerMember="1">
					<title>Sheet.10</title>
					<g id="shape11-18" v:mID="11" v:groupContext="shape" v:layerMember="1">
						<title>Sheet.11</title>
						<path d="M0 158.37 L0 166.75 L12.09 166.75 L12.09 158.37 L0 158.37 ZM11.46 166.1 L0.42 166.1 L0.42 160.15
									 L11.46 160.15 L11.46 166.1 Z" class="st4"/>
					</g>
					<g id="shape12-20" v:mID="12" v:groupContext="shape" v:layerMember="1" transform="translate(1.47192,-1.73096)">
						<title>Sheet.12</title>
						<rect x="0" y="162.964" width="3.67981" height="3.78647" class="st4"/>
					</g>
					<g id="shape13-22" v:mID="13" v:groupContext="shape" v:layerMember="1" transform="translate(6.46594,-1.73096)">
						<title>Sheet.13</title>
						<rect x="0" y="166.209" width="3.94265" height="0.540924" class="st4"/>
					</g>
					<g id="shape14-24" v:mID="14" v:groupContext="shape" v:layerMember="1" transform="translate(6.46594,-2.8128)">
						<title>Sheet.14</title>
						<rect x="0" y="166.209" width="3.94265" height="0.540924" class="st4"/>
					</g>
					<g id="shape15-26" v:mID="15" v:groupContext="shape" v:layerMember="1" transform="translate(6.46594,-3.89465)">
						<title>Sheet.15</title>
						<rect x="0" y="166.209" width="3.94265" height="0.540924" class="st4"/>
					</g>
					<g id="shape16-28" v:mID="16" v:groupContext="shape" v:layerMember="1" transform="translate(6.46594,-4.9765)">
						<title>Sheet.16</title>
						<rect x="0" y="166.209" width="3.94265" height="0.540924" class="st4"/>
					</g>
				</g>
			</g>
		</g>
		<g id="group17-30" transform="translate(343.614,-103.625)" v:mID="17" v:groupContext="group">
			<title>Windows Server VM</title>
			<g id="shape18-31" v:mID="18" v:groupContext="shape">
				<title>Sheet.18</title>
				<path d="M37.52 138.92 C37.52 139.6 37.61 137.48 37.04 136.91 C36.75 136.62 36.37 136.43 36.08 136.43 C35.98 136.43
							 35.89 136.43 35.79 136.43 L1.63 136.43 C0.77 136.43 0 137.29 0 138.35 L0 164.83 C0 165.89 0.67 166.75
							 1.63 166.75 L35.89 166.75 C36.75 166.75 37.52 165.89 37.52 164.83 L37.52 138.92 Z" class="st2"/>
			</g>
			<g id="group19-33" transform="translate(9.76035,-3.64953)" v:mID="19" v:groupContext="group">
				<title>Windows Server</title>
				<g id="shape20-34" v:mID="20" v:groupContext="shape" transform="translate(0,-0.163961)">
					<title>Sheet.20</title>
					<path d="M5.09 161.1 L5.09 155.36 L11.31 154.42 L11.31 144.67 C11.31 144.06 10.8 143.57 10.18 143.57 L1.13 143.57
								 C0.51 143.57 0 144.06 0 144.67 L0 166.75 L9.41 166.75 L5.09 166.12 L5.09 164.49 L1.7 164.49 L1.7
								 163.36 L5.09 163.36 L5.09 162.23 L1.7 162.23 L1.7 161.1 L5.09 161.1 ZM1.7 146.96 L9.61 146.96 L9.61
								 148.09 L1.7 148.09 L1.7 146.96 Z" class="st3"/>
				</g>
				<g id="shape21-36" v:mID="21" v:groupContext="shape" transform="translate(11.3076,-6.39391)">
					<title>Sheet.21</title>
					<path d="M0 166.75 L6.78 166.75 L6.78 160.94 L0 161.85 L0 166.75 Z" class="st3"/>
				</g>
				<g id="shape22-38" v:mID="22" v:groupContext="shape" transform="translate(6.2209,-6.39391)">
					<title>Sheet.22</title>
					<path d="M4.52 166.75 L4.52 161.92 L0 162.55 L0 166.75 L4.52 166.75 Z" class="st3"/>
				</g>
				<g id="shape23-40" v:mID="23" v:groupContext="shape" transform="translate(6.2192,-1.04991)">
					<title>Sheet.23</title>
					<path d="M4.52 162.02 L0 162.02 L0 166.08 L4.52 166.75 L4.52 162.02 Z" class="st3"/>
				</g>
				<g id="shape24-42" v:mID="24" v:groupContext="shape" transform="translate(11.3076,0)">
					<title>Sheet.24</title>
					<path d="M0 160.97 L0 165.78 L6.78 166.75 L6.78 160.97 L0 160.97 Z" class="st3"/>
				</g>
			</g>
		</g>
		<g id="group25-44" transform="translate(241.045,-103.625)" v:mID="25" v:groupContext="group">
			<title>Application Server VM.25</title>
			<g id="shape26-45" v:mID="26" v:groupContext="shape">
				<title>Sheet.26</title>
				<path d="M37.52 138.92 C37.52 139.6 37.61 137.48 37.04 136.91 C36.75 136.62 36.37 136.43 36.08 136.43 C35.98 136.43
							 35.89 136.43 35.79 136.43 L1.63 136.43 C0.77 136.43 0 137.29 0 138.35 L0 164.83 C0 165.89 0.67 166.75
							 1.63 166.75 L35.89 166.75 C36.75 166.75 37.52 165.89 37.52 164.83 L37.52 138.92 Z" class="st2"/>
			</g>
			<g id="group27-47" transform="translate(9.47553,-4.07138)" v:mID="27" v:groupContext="group">
				<title>Sheet.27</title>
				<g id="shape28-48" v:mID="28" v:groupContext="shape" v:layerMember="1">
					<title>Sheet.28</title>
					<path d="M9.46 144.57 L1.05 144.57 C0.47 144.57 0 145.06 0 145.65 L0 166.75 L5.78 166.75 L5.78 164.59 L1.58 164.59
								 L1.58 163.5 L5.78 163.5 L5.78 162.42 L1.58 162.42 L1.58 161.34 L5.78 161.34 L5.78 158.1 L5.78 157.55
								 L6.31 157.55 L9.46 157.55 C9.78 157.55 9.99 157.55 10.51 157.55 L10.51 145.65 C10.51 145.06 10.04
								 144.57 9.46 144.57 ZM8.94 148.9 L1.58 148.9 L1.58 147.82 L8.94 147.82 L8.94 148.9 Z" class="st4"/>
				</g>
				<g id="group29-50" transform="translate(6.57108,-2.55795E-13)" v:mID="29" v:groupContext="group" v:layerMember="1">
					<title>Sheet.29</title>
					<g id="shape30-51" v:mID="30" v:groupContext="shape" v:layerMember="1">
						<title>Sheet.30</title>
						<path d="M0 158.37 L0 166.75 L12.09 166.75 L12.09 158.37 L0 158.37 ZM11.46 166.1 L0.42 166.1 L0.42 160.15
									 L11.46 160.15 L11.46 166.1 Z" class="st4"/>
					</g>
					<g id="shape31-53" v:mID="31" v:groupContext="shape" v:layerMember="1" transform="translate(1.47192,-1.73096)">
						<title>Sheet.31</title>
						<rect x="0" y="162.964" width="3.67981" height="3.78647" class="st4"/>
					</g>
					<g id="shape32-55" v:mID="32" v:groupContext="shape" v:layerMember="1" transform="translate(6.46594,-1.73096)">
						<title>Sheet.32</title>
						<rect x="0" y="166.209" width="3.94265" height="0.540924" class="st4"/>
					</g>
					<g id="shape33-57" v:mID="33" v:groupContext="shape" v:layerMember="1" transform="translate(6.46594,-2.8128)">
						<title>Sheet.33</title>
						<rect x="0" y="166.209" width="3.94265" height="0.540924" class="st4"/>
					</g>
					<g id="shape34-59" v:mID="34" v:groupContext="shape" v:layerMember="1" transform="translate(6.46594,-3.89465)">
						<title>Sheet.34</title>
						<rect x="0" y="166.209" width="3.94265" height="0.540924" class="st4"/>
					</g>
					<g id="shape35-61" v:mID="35" v:groupContext="shape" v:layerMember="1" transform="translate(6.46594,-4.9765)">
						<title>Sheet.35</title>
						<rect x="0" y="166.209" width="3.94265" height="0.540924" class="st4"/>
					</g>
				</g>
			</g>
		</g>
		<g id="group63-63" transform="translate(165.314,-66.2019)" v:mID="63" v:groupContext="group">
			<title>Azure VPN Gateway (opaque)</title>
			<desc>VPN Gateway</desc>
			<g id="shape64-64" v:mID="64" v:groupContext="shape">
				<title>Sheet.64</title>
				<path d="M20.27 166.75 L10.46 166.75 L10.46 165.44 L0 165.44 L0 160.87 L10.46 160.87 L10.46 159.56 L13.08 159.56
							 L13.08 154.33 L3.73 154.33 C1.37 154.33 0.07 152.23 0.07 150.21 L0.07 136.54 C0.07 134.12 1.31 132.68
							 3.53 132.49 L3.53 131.64 C3.53 128.7 4.64 125.82 6.6 123.73 C8.5 121.5 12.55 120.33 15.37 120.33 C18.18
							 120.33 22.23 121.5 24.19 123.73 C26.09 125.69 27.2 128.63 27.2 131.64 L27.2 132.42 C29.42 132.62 30.67
							 134.06 30.67 136.54 L30.67 150.21 C30.67 152.69 29.23 154.33 27 154.33 L17.65 154.33 L17.65 159.56 L20.27
							 159.56 L20.27 160.87 L30.73 160.87 L30.73 165.44 L20.27 165.44 L20.27 166.75 Z" class="st5"/>
			</g>
			<g id="group65-66" transform="translate(0.653846,-0.653846)" v:mID="65" v:groupContext="group">
				<title>Sheet.65</title>
				<g id="group66-67" v:mID="66" v:groupContext="group">
					<title>Sheet.66</title>
					<g id="shape67-68" v:mID="67" v:groupContext="shape" transform="translate(13.0769,-7.19231)">
						<title>Sheet.67</title>
						<rect x="0" y="162.827" width="3.26923" height="3.92308" class="st6"/>
					</g>
					<g id="shape68-70" v:mID="68" v:groupContext="shape" transform="translate(10.4615,0)">
						<title>Sheet.68</title>
						<rect x="0" y="160.865" width="8.5" height="5.88462" class="st6"/>
					</g>
					<g id="shape69-72" v:mID="69" v:groupContext="shape" transform="translate(20.2692,-1.30769)">
						<title>Sheet.69</title>
						<rect x="0" y="163.481" width="9.15385" height="3.26923" class="st6"/>
					</g>
					<g id="shape70-74" v:mID="70" v:groupContext="shape" transform="translate(1.45883E-13,-1.30769)">
						<title>Sheet.70</title>
						<rect x="0" y="163.481" width="9.15385" height="3.26923" class="st6"/>
					</g>
				</g>
				<g id="shape71-76" v:mID="71" v:groupContext="shape" transform="translate(0.0653846,-12.4231)">
					<title>Sheet.71</title>
					<path d="M25.83 146.15 L25.83 144.72 C25.83 141.84 24.78 139.16 22.95 137.26 C21.25 135.3 17.46 134.06 14.65
								 134.06 C11.83 134.06 8.04 135.3 6.34 137.26 C4.58 139.16 3.47 141.84 3.47 144.72 L3.47 146.15 C0.92
								 146.15 0 147.66 0 149.62 L0 163.28 C-0 164.98 1.05 166.75 3.01 166.75 L26.28 166.75 C28.51 166.75
								 29.29 164.98 29.29 163.28 L29.29 149.62 C29.29 147.85 28.57 146.15 25.83 146.15 ZM8.63 145.43 C8.63
								 143.73 9.22 141.58 10.2 140.47 C11.18 139.35 13.27 138.83 14.65 138.77 C16.02 138.77 18.11 139.35
								 19.09 140.47 C20.07 141.58 20.66 143.02 20.66 144.65 L20.66 146.09 L8.63 146.09 L8.63 145.43 ZM10.72
								 151.78 L14.52 147.98 L18.31 151.78 L15.63 151.78 L15.63 154.52 L13.34 154.52 L13.34 151.78 L10.72
								 151.78 ZM3.73 157.53 L3.73 155.31 L7.65 155.31 L7.65 152.69 L11.31 156.35 L7.65 160.02 L7.65 157.47
								 L3.73 157.47 L3.73 157.53 ZM14.52 164.92 L10.66 161.06 L13.34 161.06 L13.34 158.38 L15.63 158.38
								 L15.63 161.06 L18.37 161.06 L14.52 164.92 ZM25.3 157.53 L21.38 157.53 L21.38 160.15 L17.65 156.42
								 L21.38 152.69 L21.38 155.31 L25.3 155.31 L25.3 157.53 Z" class="st6"/>
				</g>
			</g>
			<g id="shape63-78" v:mID="63" v:groupContext="groupContent">
				<v:textBlock v:margins="rect(0,0,0,0)" v:verticalAlign="0"/>
				<v:textRect cx="15.3654" cy="195.288" width="49.5" height="46.4231"/>
				<text x="6.68" y="180.18" class="st7" v:langID="1033"><v:paragraph v:horizAlign="1"/><v:tabList/>VPN <tspan
							x="-1.61" dy="1.2em" class="st8">Gateway</tspan></text>			</g>
		</g>
		<g id="shape72-81" v:mID="72" v:groupContext="shape" transform="translate(232.045,-130.625)">
			<title>Art caption, FL.1447</title>
			<desc>oakproxyserv</desc>
			<v:textBlock v:margins="rect(4,4,4,4)" v:verticalAlign="0"/>
			<v:textRect cx="26.9708" cy="157.643" width="53.95" height="18.214"/>
			<rect x="0" y="148.536" width="53.9416" height="18.214" class="st9"/>
			<text x="4" y="158.84" class="st10" v:langID="1033"><v:paragraph/><v:tabList/>oakproxyserv</text>		</g>
		<g id="shape73-84" v:mID="73" v:groupContext="shape" transform="translate(241.103,-13.625)">
			<title>Art caption, FL.73</title>
			<desc>appserv</desc>
			<v:textBlock v:margins="rect(4,4,4,4)" v:verticalAlign="0"/>
			<v:textRect cx="26.9708" cy="157.643" width="53.95" height="18.214"/>
			<rect x="0" y="148.536" width="53.9416" height="18.214" class="st9"/>
			<text x="4" y="158.84" class="st10" v:langID="1033"><v:paragraph/><v:tabList/>appserv</text>		</g>
		<g id="shape74-87" v:mID="74" v:groupContext="shape" transform="translate(344.603,-130.625)">
			<title>Art caption, FL.74</title>
			<desc>client</desc>
			<v:textBlock v:margins="rect(4,4,4,4)" v:verticalAlign="0"/>
			<v:textRect cx="26.9708" cy="157.643" width="53.95" height="18.214"/>
			<rect x="0" y="148.536" width="53.9416" height="18.214" class="st9"/>
			<text x="4" y="158.84" class="st10" v:langID="1033"><v:paragraph/><v:tabList/>client</text>		</g>
		<g id="shape75-90" v:mID="75" v:groupContext="shape" transform="translate(343.614,-13.625)">
			<title>Art caption, FL.75</title>
			<desc>addc</desc>
			<v:textBlock v:margins="rect(4,4,4,4)" v:verticalAlign="0"/>
			<v:textRect cx="26.9708" cy="157.643" width="53.95" height="18.214"/>
			<rect x="0" y="148.536" width="53.9416" height="18.214" class="st9"/>
			<text x="4" y="158.84" class="st10" v:langID="1033"><v:paragraph/><v:tabList/>addc</text>		</g>
		<g id="shape76-93" v:mID="76" v:groupContext="shape" v:layerMember="2" transform="translate(343.614,-109.785)">
			<title>Dynamic connector</title>
			<path d="M0 157.75 L-58.42 157.75" class="st11"/>
		</g>
		<g id="shape77-99" v:mID="77" v:groupContext="shape" v:layerMember="2" transform="translate(250.851,-103.625)">
			<title>Dynamic connector.77</title>
			<path d="M9 166.75 L9 201.89" class="st11"/>
		</g>
		<g id="shape78-104" v:mID="78" v:groupContext="shape" v:layerMember="2" transform="translate(343.614,-118.785)">
			<title>Dynamic connector.78</title>
			<path d="M0 166.75 L-60.58 233.89" class="st11"/>
		</g>
		<g id="group79-109" transform="translate(33.3345,-74.0385)" v:mID="79" v:groupContext="group">
			<title>Workstation client</title>
			<desc>Workstation client</desc>
			<g id="shape80-110" v:mID="80" v:groupContext="shape" transform="translate(8.25,0)">
				<title>Sheet.80</title>
				<path d="M21.78 147.25 L0.72 147.25 C0.33 147.25 0 147.58 0 147.98 L0 161.29 C0 161.69 0.33 162.25 0.72 162.25 L9.75
							 162.25 C9.75 163.06 9.75 163.59 9.75 163.69 C9.75 164.16 9.05 164.95 8.59 164.95 C8.43 164.95 7.06 164.95
							 7.06 164.95 C5.38 164.95 4.22 165.41 4.22 166.27 C4.22 166.7 4.12 166.75 5.8 166.75 C5.8 166.75 6.22
							 166.75 6.64 166.75 C7.9 166.75 8.17 166 9.43 166 C9.85 166 12.24 166 12.66 166 C13.92 166 14.91 166.75
							 15.75 166.75 C16.17 166.75 16.59 166.75 16.59 166.75 C18.28 166.75 18.28 166.7 18.28 166.27 C18.28 165.41
							 17.01 164.95 15.33 164.95 C15.33 164.95 13.96 164.95 13.81 164.95 C13.35 164.95 12.75 164.16 12.75 163.69
							 C12.75 163.59 12.75 163.06 12.75 162.25 L21.78 162.25 C22.17 162.25 22.5 161.69 22.5 161.29 L22.5 147.98
							 C22.5 147.58 22.17 147.25 21.78 147.25 ZM20.25 160 L2.25 160 L2.25 149.5 L20.25 149.5 L20.25 160 Z"
						class="st13"/>
			</g>
			<g id="shape81-112" v:mID="81" v:groupContext="shape">
				<title>Sheet.81</title>
				<path d="M6.75 159.25 L6.75 147.98 C6.75 146.75 7.75 145.75 8.97 145.75 L15 145.75 L15 137.46 C15 136.66 14.33 136
							 13.5 136 L1.5 136 C0.67 136 0 136.66 0 137.46 L0 166.75 L11 166.75 C10.97 166.56 10.97 166.41 10.97
							 166.32 L10.97 166.27 C10.97 165.76 11.16 164.36 13.08 163.75 L12.75 163.75 L8.97 163.75 L2.25 163.75
							 L2.25 162.25 L6.95 162.25 C6.83 161.94 6.75 161.61 6.75 161.29 L6.75 160.75 L2.25 160.75 L2.25 159.25
							 L6.75 159.25 L6.75 159.25 ZM2.25 140.5 L12.75 140.5 L12.75 142 L2.25 142 L2.25 140.5 Z" class="st13"/>
			</g>
			<g id="shape79-114" v:mID="79" v:groupContext="groupContent">
				<v:textBlock v:margins="rect(0,0,0,0)" v:verticalAlign="0"/>
				<v:textRect cx="15.3543" cy="187.375" width="72" height="31.5"/>
				<text x="-8.81" y="179.72" class="st14" v:langID="1033"><v:paragraph v:horizAlign="1"/><v:tabList/>Workstation <tspan
							x="4.67" dy="1.5em" class="st8">client</tspan></text>			</g>
		</g>
		<g id="shape82-117" v:mID="82" v:groupContext="shape" transform="translate(0.375,-42.4179)">
			<title>Sheet.82</title>
			<rect x="0" y="95.8755" width="96.6697" height="70.8745" rx="4.5" ry="4.5" class="st15"/>
		</g>
		<g id="group83-119" transform="translate(2.54471,-43.9858)" v:mID="83" v:groupContext="group">
			<title>Sheet.83</title>
			<g id="shape84-120" v:mID="84" v:groupContext="shape" transform="translate(0.608836,8.52651E-14)">
				<title>Sheet.84</title>
				<rect x="0" y="147.993" width="13.09" height="18.7571" class="st16"/>
			</g>
			<g id="group85-122" transform="translate(1.05593,-0.93367)" v:mID="85" v:groupContext="group">
				<title>Enterprise.1048</title>
				<desc>Local</desc>
				<g id="shape86-123" v:mID="86" v:groupContext="shape">
					<title>Sheet.86</title>
					<path d="M0 166.75 L5.21 166.75 L5.21 152.1 L0 152.1 L0 166.75 ZM4.3 158.28 L2.91 158.28 L2.91 157.02 L4.3 157.02
								 L4.3 158.28 ZM0.8 156.39 L0.8 155.13 L2.2 155.13 L2.2 156.39 L0.8 156.39 ZM2.92 156.39 L2.92 155.13
								 L4.31 155.13 L4.31 156.39 L2.92 156.39 ZM2.91 153.25 L4.3 153.25 L4.3 154.5 L2.91 154.5 L2.91 153.25
								 ZM0.82 153.25 L2.21 153.25 L2.21 154.5 L0.82 154.5 L0.82 153.25 ZM0.82 157.02 L2.21 157.02 L2.21
								 158.28 L0.82 158.28 L0.82 157.02 ZM4.3 163.98 L2.91 163.98 L2.91 162.72 L4.3 162.72 L4.3 163.98
								 ZM0.8 162.09 L0.8 160.83 L2.2 160.83 L2.2 162.09 L0.8 162.09 ZM2.92 162.09 L2.92 160.83 L4.31 160.83
								 L4.31 162.09 L2.92 162.09 ZM2.91 158.94 L4.3 158.94 L4.3 160.21 L2.91 160.21 L2.91 158.94 ZM0.82
								 158.94 L2.21 158.94 L2.21 160.21 L0.82 160.21 L0.82 158.94 ZM0.82 162.72 L2.21 162.72 L2.21 163.98
								 L0.82 163.98 L0.82 162.72 ZM9.53 156.88 L9.53 155.37 L8.77 155.37 L8.77 153.9 L8.23 153.9 L8.23
								 152.53 L7.77 152.53 L7.77 153.9 L7.23 153.9 L7.23 155.37 L6.47 155.37 L6.47 156.88 L5.86 156.88
								 L5.86 166.75 L10.15 166.75 L10.15 156.88 L9.53 156.88 ZM7.96 162.82 L6.57 162.82 L6.57 161.55 L7.96
								 161.55 L7.96 162.82 ZM7.96 158.95 L6.57 158.95 L6.57 157.69 L7.96 157.69 L7.96 158.95 ZM9.59 160.87
								 L8.2 160.87 L8.2 159.61 L9.59 159.61 L9.59 160.87 Z" class="st17"/>
				</g>
				<g id="shape85-125" v:mID="85" v:groupContext="groupContent">
					<v:textBlock v:margins="rect(0,0,0,0)" v:verticalAlign="0"/>
					<v:textRect cx="21.443" cy="174.292" width="45.29" height="13.0101"/>
					<text x="-1.2" y="180.39" class="st18" v:langID="1033"><v:paragraph/><v:tabList/>Local</text>				</g>
			</g>
		</g>
		<g id="shape87-127" v:mID="87" v:groupContext="shape" v:layerMember="2" transform="translate(64.7201,-98.4593)">
			<title>Dynamic connector.1013</title>
			<desc>P2S Connection</desc>
			<v:textBlock v:margins="rect(4,4,4,4)"/>
			<v:textRect cx="50.3695" cy="181.264" width="65.87" height="17.6036"/>
			<path d="M0 175.63 L92.74 175.85" class="st19"/>
			<text x="22.53" y="183.66" class="st21" v:langID="1033"><v:paragraph v:horizAlign="1"/><v:tabList/>P2S Connection</text>		</g>
	</g>
</svg>
