<?xml version="1.0" encoding="UTF-8" standalone="no"?>
<!DOCTYPE svg PUBLIC "-//W3C//DTD SVG 1.1//EN" "http://www.w3.org/Graphics/SVG/1.1/DTD/svg11.dtd">
<!-- Generated by Microsoft Visio, SVG Export aadrep.svg Page-1 -->
<svg xmlns="http://www.w3.org/2000/svg" xmlns:xlink="http://www.w3.org/1999/xlink" xmlns:ev="http://www.w3.org/2001/xml-events"
		xmlns:v="http://schemas.microsoft.com/visio/2003/SVGExtensions/" width="6.16319in" height="4.27323in"
		viewBox="0 0 443.75 307.672" xml:space="preserve" color-interpolation-filters="sRGB" class="st19">
	<v:documentProperties v:langID="1033" v:viewMarkup="false"/>

	<style type="text/css">
	<![CDATA[
		.st1 {fill:#dae7f6;stroke:#ffffff;stroke-linecap:round;stroke-linejoin:round;stroke-width:0.5}
		.st2 {fill:#1ba1e2;font-family:Segoe UI;font-size:1.16666em}
		.st3 {fill:#e8d9ff;stroke:#ffffff;stroke-linecap:round;stroke-linejoin:round;stroke-width:0.5}
		.st4 {fill:#a200ff;font-family:Consolas;font-size:0.666664em}
		.st5 {fill:#00188f;stroke:none;stroke-linecap:butt;stroke-width:0.5}
		.st6 {fill:#a200ff;font-family:Segoe UI;font-size:0.833336em}
		.st7 {font-size:1em}
		.st8 {fill:#dbe6db;stroke:#ffffff;stroke-linecap:round;stroke-linejoin:round;stroke-width:0.5}
		.st9 {fill:#339933;font-family:Segoe UI;font-size:0.833336em}
		.st10 {marker-end:url(#mrkr4-59);stroke:#9800f1;stroke-linecap:round;stroke-linejoin:round;stroke-width:0.75}
		.st11 {fill:#9800f1;fill-opacity:1;stroke:#9800f1;stroke-opacity:1;stroke-width:0.22935779816514}
		.st12 {fill:none;stroke:#0000ff;stroke-dasharray:0.5,1;stroke-linecap:round;stroke-linejoin:round;stroke-width:0.5}
		.st13 {fill:#0078d7;font-family:Segoe UI;font-size:0.833336em}
		.st14 {fill:#0078d7;stroke:none;stroke-linecap:butt;stroke-width:0.5}
		.st15 {fill:#339933;font-family:Segoe UI;font-size:0.666664em}
		.st16 {fill:#a200ff;font-family:Segoe UI;font-size:0.666664em}
		.st17 {fill:#ffffff;stroke:none;stroke-linecap:butt;stroke-width:7.2}
		.st18 {fill:#7600bd;font-family:Segoe UI;font-size:0.499992em}
		.st19 {fill:none;fill-rule:evenodd;font-size:12px;overflow:visible;stroke-linecap:square;stroke-miterlimit:3}
	]]>
	</style>

	<defs id="Markers">
		<g id="lend4">
			<path d="M 2 1 L 0 0 L 2 -1 L 2 1 " style="stroke:none"/>
		</g>
		<marker id="mrkr4-59" class="st11" v:arrowType="4" v:arrowSize="2" v:setback="8.72" refX="-8.72" orient="auto"
				markerUnits="strokeWidth" overflow="visible">
			<use xlink:href="#lend4" transform="scale(-4.36,-4.36) "/>
		</marker>
	</defs>
	<g v:mID="0" v:index="1" v:groupContext="foregroundPage">
		<title>Page-1</title>
		<v:pageProperties v:drawingScale="1" v:pageScale="1" v:drawingUnits="19" v:shadowOffsetX="9" v:shadowOffsetY="-9"/>
		<v:layer v:name="Connector" v:index="0"/>
		<g id="shape1000-1" v:mID="1000" v:groupContext="shape" transform="translate(123.438,-18.31)">
			<title>Rectangle.1000</title>
			<desc>OAKProxy</desc>
			<v:userDefs>
				<v:ud v:nameU="visVersion" v:val="VT0(15):26"/>
			</v:userDefs>
			<v:textBlock v:margins="rect(4,4,4,4)" v:verticalAlign="0"/>
			<v:textRect cx="56.8125" cy="242.737" width="113.63" height="129.871"/>
			<rect x="0" y="177.801" width="113.625" height="129.871" class="st1"/>
			<text x="39.33" y="194.4" class="st2" v:langID="1033"><v:paragraph v:horizAlign="1"/><v:tabList/>OAKProxy</text>		</g>
		<g id="shape1001-4" v:mID="1001" v:groupContext="shape" transform="translate(303.874,-83.9349)">
			<title>Rectangle.1001</title>
			<desc>http/hrapp.corp.contoso.com</desc>
			<v:userDefs>
				<v:ud v:nameU="visVersion" v:val="VT0(15):26"/>
			</v:userDefs>
			<v:textBlock v:margins="rect(4,4,4,4)"/>
			<v:textRect cx="69.8131" cy="293.61" width="139.63" height="28.125"/>
			<rect x="0" y="279.547" width="139.626" height="28.125" class="st3"/>
			<text x="10.44" y="296.01" class="st4" v:langID="1033"><v:paragraph v:horizAlign="1"/><v:tabList/>http/hrapp.corp.contoso.com</text>		</g>
		<g id="shape1002-7" v:mID="1002" v:groupContext="shape" transform="translate(303.874,-35.4759)">
			<title>Rectangle.1002</title>
			<desc>http/biz.corp.contoso.com</desc>
			<v:userDefs>
				<v:ud v:nameU="visVersion" v:val="VT0(15):26"/>
			</v:userDefs>
			<v:textBlock v:margins="rect(4,4,4,4)"/>
			<v:textRect cx="69.8131" cy="293.61" width="139.63" height="28.125"/>
			<rect x="0" y="279.547" width="139.626" height="28.125" class="st3"/>
			<text x="14.83" y="296.01" class="st4" v:langID="1033"><v:paragraph v:horizAlign="1"/><v:tabList/>http/biz.corp.contoso.com</text>		</g>
		<g id="group1003-10" transform="translate(281.763,-83.9349)" v:mID="1003" v:groupContext="group">
			<title>Application server.1003</title>
			<g id="group1004-11" transform="translate(9.34575,-0.375)" v:mID="1004" v:groupContext="group">
				<title>Sheet.1004</title>
				<g id="shape1005-12" v:mID="1005" v:groupContext="shape">
					<title>Sheet.1005</title>
					<path d="M0 296.42 L0 307.67 L16.87 307.67 L16.87 296.42 L0 296.42 ZM4.69 306.73 L0.94 306.73 L0.94 299.7 L4.69
								 299.7 L4.69 306.73 ZM15.94 306.73 L5.62 306.73 L5.62 299.7 L15.94 299.7 L15.94 306.73 Z"
							class="st5"/>
				</g>
				<g id="shape1006-14" v:mID="1006" v:groupContext="shape" transform="translate(8.4375,-6.09375)">
					<title>Sheet.1006</title>
					<rect x="0" y="306.735" width="5.15625" height="0.9375" class="st5"/>
				</g>
				<g id="shape1007-16" v:mID="1007" v:groupContext="shape" transform="translate(8.4375,-4.6875)">
					<title>Sheet.1007</title>
					<rect x="0" y="306.735" width="5.15625" height="0.9375" class="st5"/>
				</g>
				<g id="shape1008-18" v:mID="1008" v:groupContext="shape" transform="translate(8.4375,-3.28125)">
					<title>Sheet.1008</title>
					<rect x="0" y="306.735" width="5.15625" height="0.9375" class="st5"/>
				</g>
				<g id="shape1009-20" v:mID="1009" v:groupContext="shape" transform="translate(8.4375,-1.875)">
					<title>Sheet.1009</title>
					<rect x="0" y="306.735" width="5.15625" height="0.9375" class="st5"/>
				</g>
				<g id="shape1010-22" v:mID="1010" v:groupContext="shape" transform="translate(0.9375,-8.90625)">
					<title>Sheet.1010</title>
					<rect x="0" y="306.266" width="15" height="1.40625" class="st5"/>
				</g>
			</g>
			<g id="shape1011-24" v:mID="1011" v:groupContext="shape">
				<title>Sheet.1011</title>
				<v:textBlock v:margins="rect(0,0,0,0)" v:verticalAlign="0"/>
				<path d="M13.5 276.92 L1.5 276.92 C0.67 276.92 0 277.58 0 278.39 L0 307.67 L8.25 307.67 L8.25 304.67 L2.25 304.67
							 L2.25 303.17 L8.25 303.17 L8.25 301.67 L2.25 301.67 L2.25 300.17 L8.25 300.17 L8.25 295.67 L8.22 294.92
							 L9 294.92 L13.5 294.92 C13.92 294.92 14.25 294.92 15 294.92 L15 278.39 C15 277.58 14.33 276.92 13.5
							 276.92 ZM12.75 282.92 L2.25 282.92 L2.25 281.42 L12.75 281.42 L12.75 282.92 Z" class="st5"/>
			</g>
		</g>
		<g id="group1012-26" transform="translate(281.763,-35.463)" v:mID="1012" v:groupContext="group">
			<title>Application server.1012</title>
			<g id="group1013-27" transform="translate(9.34575,-0.375)" v:mID="1013" v:groupContext="group">
				<title>Sheet.1013</title>
				<g id="shape1014-28" v:mID="1014" v:groupContext="shape">
					<title>Sheet.1014</title>
					<path d="M0 296.42 L0 307.67 L16.87 307.67 L16.87 296.42 L0 296.42 ZM4.69 306.73 L0.94 306.73 L0.94 299.7 L4.69
								 299.7 L4.69 306.73 ZM15.94 306.73 L5.62 306.73 L5.62 299.7 L15.94 299.7 L15.94 306.73 Z"
							class="st5"/>
				</g>
				<g id="shape1015-30" v:mID="1015" v:groupContext="shape" transform="translate(8.4375,-6.09375)">
					<title>Sheet.1015</title>
					<rect x="0" y="306.735" width="5.15625" height="0.9375" class="st5"/>
				</g>
				<g id="shape1016-32" v:mID="1016" v:groupContext="shape" transform="translate(8.4375,-4.6875)">
					<title>Sheet.1016</title>
					<rect x="0" y="306.735" width="5.15625" height="0.9375" class="st5"/>
				</g>
				<g id="shape1017-34" v:mID="1017" v:groupContext="shape" transform="translate(8.4375,-3.28125)">
					<title>Sheet.1017</title>
					<rect x="0" y="306.735" width="5.15625" height="0.9375" class="st5"/>
				</g>
				<g id="shape1018-36" v:mID="1018" v:groupContext="shape" transform="translate(8.4375,-1.875)">
					<title>Sheet.1018</title>
					<rect x="0" y="306.735" width="5.15625" height="0.9375" class="st5"/>
				</g>
				<g id="shape1019-38" v:mID="1019" v:groupContext="shape" transform="translate(0.9375,-8.90625)">
					<title>Sheet.1019</title>
					<rect x="0" y="306.266" width="15" height="1.40625" class="st5"/>
				</g>
			</g>
			<g id="shape1020-40" v:mID="1020" v:groupContext="shape">
				<title>Sheet.1020</title>
				<v:textBlock v:margins="rect(0,0,0,0)" v:verticalAlign="0"/>
				<path d="M13.5 276.92 L1.5 276.92 C0.67 276.92 0 277.58 0 278.39 L0 307.67 L8.25 307.67 L8.25 304.67 L2.25 304.67
							 L2.25 303.17 L8.25 303.17 L8.25 301.67 L2.25 301.67 L2.25 300.17 L8.25 300.17 L8.25 295.67 L8.22 294.92
							 L9 294.92 L13.5 294.92 C13.92 294.92 14.25 294.92 15 294.92 L15 278.39 C15 277.58 14.33 276.92 13.5
							 276.92 ZM12.75 282.92 L2.25 282.92 L2.25 281.42 L12.75 281.42 L12.75 282.92 Z" class="st5"/>
			</g>
		</g>
		<g id="shape1022-42" v:mID="1022" v:groupContext="shape" transform="translate(138.084,-83.935)">
			<title>Rectangle.1022</title>
			<desc>hrapp AAD Identity</desc>
			<v:userDefs>
				<v:ud v:nameU="visVersion" v:val="VT0(15):26"/>
			</v:userDefs>
			<v:textBlock v:margins="rect(4,4,4,4)"/>
			<v:textRect cx="42.1656" cy="292.297" width="84.34" height="30.75"/>
			<rect x="0" y="276.922" width="84.3311" height="30.75" class="st3"/>
			<text x="17.85" y="289.3" class="st6" v:langID="1033"><v:paragraph v:horizAlign="1"/><v:tabList/>hrapp AAD<v:newlineChar/><tspan
						x="25.43" dy="1.2em" class="st7">Identity</tspan></text>		</g>
		<g id="shape1023-46" v:mID="1023" v:groupContext="shape" transform="translate(138.084,-35.463)">
			<title>Rectangle.1023</title>
			<desc>biz AAD Identity</desc>
			<v:userDefs>
				<v:ud v:nameU="visVersion" v:val="VT0(15):26"/>
			</v:userDefs>
			<v:textBlock v:margins="rect(4,4,4,4)"/>
			<v:textRect cx="42.1656" cy="292.297" width="84.34" height="30.75"/>
			<rect x="0" y="276.922" width="84.3311" height="30.75" class="st3"/>
			<text x="24.43" y="289.3" class="st6" v:langID="1033"><v:paragraph v:horizAlign="1"/><v:tabList/>biz AAD<v:newlineChar/><tspan
						x="25.43" dy="1.2em" class="st7">Identity</tspan></text>		</g>
		<g id="shape1024-50" v:mID="1024" v:groupContext="shape" transform="translate(0.25,-120.31)">
			<title>Rectangle.1024</title>
			<desc>Modern HR Web App</desc>
			<v:userDefs>
				<v:ud v:nameU="visVersion" v:val="VT0(15):26"/>
			</v:userDefs>
			<v:textBlock v:margins="rect(4,4,4,4)"/>
			<v:textRect cx="31.5" cy="286.672" width="63" height="42"/>
			<rect x="0" y="265.672" width="63" height="42" class="st8"/>
			<text x="6.04" y="283.67" class="st9" v:langID="1033"><v:paragraph v:horizAlign="1"/><v:tabList/>Modern HR<v:newlineChar/><tspan
						x="10.8" dy="1.2em" class="st7">Web App</tspan></text>		</g>
		<g id="shape1025-54" v:mID="1025" v:groupContext="shape" v:layerMember="0" transform="translate(222.416,-108.31)">
			<title>Dynamic connector.1025</title>
			<path d="M0 316.67 L52.81 316.67" class="st10"/>
		</g>
		<g id="shape1026-60" v:mID="1026" v:groupContext="shape" v:layerMember="0" transform="translate(222.416,-41.838)">
			<title>Dynamic connector.1026</title>
			<path d="M0 298.67 L52.81 298.67" class="st10"/>
		</g>
		<g id="shape1027-65" v:mID="1027" v:groupContext="shape" transform="translate(0.25,-64.81)">
			<title>Rectangle.1027</title>
			<desc>Modern Biz Mobile App</desc>
			<v:userDefs>
				<v:ud v:nameU="visVersion" v:val="VT0(15):26"/>
			</v:userDefs>
			<v:textBlock v:margins="rect(4,4,4,4)"/>
			<v:textRect cx="31.5" cy="286.672" width="63" height="42"/>
			<rect x="0" y="265.672" width="63" height="42" class="st8"/>
			<text x="6.25" y="283.67" class="st9" v:langID="1033"><v:paragraph v:horizAlign="1"/><v:tabList/>Modern Biz <tspan
						x="5.63" dy="1.2em" class="st7">Mobile App</tspan></text>		</g>
		<g id="shape1028-69" v:mID="1028" v:groupContext="shape" transform="translate(0.25,-9.30995)">
			<title>Rectangle.1028</title>
			<desc>Biz Data Analytics Service</desc>
			<v:userDefs>
				<v:ud v:nameU="visVersion" v:val="VT0(15):26"/>
			</v:userDefs>
			<v:textBlock v:margins="rect(4,4,4,4)"/>
			<v:textRect cx="31.5" cy="286.672" width="63" height="42"/>
			<rect x="0" y="265.672" width="63" height="42" class="st8"/>
			<text x="13.5" y="277.67" class="st9" v:langID="1033"><v:paragraph v:horizAlign="1"/><v:tabList/>Biz Data <tspan
						x="11.93" dy="1.2em" class="st7">Analytics </tspan><tspan x="15.96" dy="1.2em" class="st7">Service</tspan></text>		</g>
		<g id="shape1029-74" v:mID="1029" v:groupContext="shape" v:layerMember="0" transform="translate(63.25,-141.31)">
			<title>Dynamic connector.1029</title>
			<path d="M0 307.67 L36 307.67 L36 349.67 L68.29 349.67" class="st10"/>
		</g>
		<g id="shape1030-79" v:mID="1030" v:groupContext="shape" v:layerMember="0" transform="translate(63.25,-85.81)">
			<title>Dynamic connector.1030</title>
			<path d="M0 307.67 L23 307.67 L23 342.64 L68.29 342.64" class="st10"/>
		</g>
		<g id="shape1031-84" v:mID="1031" v:groupContext="shape" v:layerMember="0" transform="translate(63.25,-30.31)">
			<title>Dynamic connector.1031</title>
			<path d="M0 307.67 L22.5 307.67 L22.5 287.14 L68.29 287.14" class="st10"/>
		</g>
		<g id="group1032-89" transform="translate(135.25,-120.31)" v:mID="1032" v:groupContext="group">
			<title>Windows Server.1032</title>
			<g id="shape1033-90" v:mID="1033" v:groupContext="shape" transform="translate(0,-0.163125)">
				<title>Sheet.1033</title>
				<path d="M5.06 302.05 L5.06 296.34 L11.25 295.4 L11.25 285.71 C11.25 285.1 10.75 284.61 10.13 284.61 L1.12 284.61
							 C0.5 284.61 0 285.1 0 285.71 L0 307.67 L9.36 307.67 L5.06 307.04 L5.06 305.42 L1.69 305.42 L1.69 304.3
							 L5.06 304.3 L5.06 303.17 L1.69 303.17 L1.69 302.05 L5.06 302.05 ZM1.69 287.98 L9.56 287.98 L9.56 289.11
							 L1.69 289.11 L1.69 287.98 Z" class="st5"/>
			</g>
			<g id="shape1034-92" v:mID="1034" v:groupContext="shape" transform="translate(11.25,-6.36131)">
				<title>Sheet.1034</title>
				<path d="M0 307.67 L6.75 307.67 L6.75 301.89 L0 302.79 L0 307.67 Z" class="st5"/>
			</g>
			<g id="shape1035-94" v:mID="1035" v:groupContext="shape" transform="translate(6.18919,-6.36131)">
				<title>Sheet.1035</title>
				<path d="M4.5 307.67 L4.5 302.87 L0 303.5 L0 307.67 L4.5 307.67 Z" class="st5"/>
			</g>
			<g id="shape1036-96" v:mID="1036" v:groupContext="shape" transform="translate(6.1875,-1.04456)">
				<title>Sheet.1036</title>
				<path d="M4.5 302.97 L0 302.97 L0 307 L4.5 307.67 L4.5 302.97 Z" class="st5"/>
			</g>
			<g id="shape1037-98" v:mID="1037" v:groupContext="shape" transform="translate(11.25,0)">
				<title>Sheet.1037</title>
				<path d="M0 301.92 L0 306.71 L6.75 307.67 L6.75 301.92 L0 301.92 Z" class="st5"/>
			</g>
		</g>
		<g id="shape1038-100" v:mID="1038" v:groupContext="shape" transform="translate(0.25,-171.31)">
			<title>Affinity group.1038</title>
			<desc>Azure AD</desc>
			<v:textBlock v:margins="rect(4,4,4,4)" v:verticalAlign="0"/>
			<v:textRect cx="132.75" cy="242.737" width="265.5" height="129.871"/>
			<path d="M0 307.67 L265.5 307.67 L265.5 177.8 L0 177.8 L0 307.67 Z" class="st12"/>
			<text x="219.96" y="190.8" class="st13" v:langID="1033"><v:paragraph v:horizAlign="2"/><v:tabList/>Azure AD</text>		</g>
		<g id="group1039-103" transform="translate(190.029,-279.786)" v:mID="1039" v:groupContext="group">
			<title>Azure  Active Directory.1039</title>
			<g id="group1040-104" transform="translate(7.79531,-7.97503)" v:mID="1040" v:groupContext="group">
				<title>Sheet.1040</title>
				<g id="shape1041-105" v:mID="1041" v:groupContext="shape">
					<title>Sheet.1041</title>
					<path d="M0 303.32 C0.19 303.64 0.3 304.01 0.3 304.38 C0.3 304.57 0.27 304.76 0.22 304.95 L4.73 307.67 L4.73
								 299.81 C4.67 299.78 4.41 299.33 4.36 299.3 L0 303.32 Z" class="st14"/>
				</g>
			</g>
			<g id="group1042-107" transform="translate(13.4994,-7.97191)" v:mID="1042" v:groupContext="group">
				<title>Sheet.1042</title>
				<g id="shape1043-108" v:mID="1043" v:groupContext="shape">
					<title>Sheet.1043</title>
					<path d="M0.87 299.22 C0.79 299.26 0.08 299.81 0 299.85 L0 307.67 L4.49 304.79 C4.45 304.64 4.44 304.5 4.44 304.35
								 C4.44 304.1 4.49 303.84 4.57 303.6 L0.87 299.22 Z" class="st14"/>
				</g>
			</g>
			<g id="group1044-110" v:mID="1044" v:groupContext="group">
				<title>Sheet.1044</title>
				<g id="shape1045-111" v:mID="1045" v:groupContext="shape">
					<title>Sheet.1045</title>
					<path d="M20.04 298.48 C19.47 298.48 18.91 298.25 18.53 297.84 L14.92 300.4 C15.16 300.73 15.27 301.13 15.27
								 301.54 C15.27 302.7 14.33 303.64 13.16 303.64 C12.01 303.64 11.07 302.7 11.07 301.54 C11.07 301.03
								 11.25 300.55 11.58 300.18 L7.42 297.94 C7.04 298.31 6.53 298.51 6 298.51 C4.84 298.51 3.89 297.57
								 3.89 296.41 C3.89 295.25 4.84 294.3 6 294.3 C6.35 294.3 6.68 294.39 6.98 294.56 L11.34 290.53 C11.03
								 290.13 10.86 289.64 10.86 289.15 C10.86 287.87 11.9 286.84 13.18 286.84 C14.46 286.84 15.49 287.87
								 15.49 289.15 C15.49 289.57 15.37 289.99 15.13 290.36 L18.8 294.69 C19.16 294.42 19.6 294.27 20.06
								 294.27 C21.21 294.27 22.16 295.21 22.16 296.38 C22.14 297.53 21.2 298.48 20.04 298.48 ZM13.22 281.42
								 L13.22 281.2 L13.14 281.31 L12.99 281.15 L12.99 281.48 L0 296.9 L13.07 307.55 L13.07 307.67 L26.22
								 296.95 L13.22 281.42 Z" class="st14"/>
				</g>
			</g>
		</g>
		<g id="shape1046-113" v:mID="1046" v:groupContext="shape" transform="translate(9.25,-264.31)">
			<title>Rectangle.1046</title>
			<desc>Modern HR Service Principal</desc>
			<v:userDefs>
				<v:ud v:nameU="visVersion" v:val="VT0(15):26"/>
			</v:userDefs>
			<v:textBlock v:margins="rect(4,4,4,4)"/>
			<v:textRect cx="24.75" cy="291.172" width="49.5" height="33"/>
			<rect x="0" y="274.672" width="49.5" height="33" class="st8"/>
			<text x="4.38" y="283.97" class="st15" v:langID="1033"><v:paragraph v:horizAlign="1"/><v:tabList/>Modern HR<v:newlineChar/><tspan
						x="12.32" dy="1.2em" class="st7">Service </tspan><tspan x="9.72" dy="1.2em" class="st7">Principal</tspan></text>		</g>
		<g id="shape1047-118" v:mID="1047" v:groupContext="shape" transform="translate(9.25,-223.81)">
			<title>Rectangle.1047</title>
			<desc>Modern Biz Service Principal</desc>
			<v:userDefs>
				<v:ud v:nameU="visVersion" v:val="VT0(15):26"/>
			</v:userDefs>
			<v:textBlock v:margins="rect(4,4,4,4)"/>
			<v:textRect cx="24.75" cy="291.172" width="49.5" height="33"/>
			<rect x="0" y="274.672" width="49.5" height="33" class="st8"/>
			<text x="4.55" y="283.97" class="st15" v:langID="1033"><v:paragraph v:horizAlign="1"/><v:tabList/>Modern Biz <tspan
						x="12.32" dy="1.2em" class="st7">Service </tspan><tspan x="9.72" dy="1.2em" class="st7">Principal</tspan></text>		</g>
		<g id="shape1048-123" v:mID="1048" v:groupContext="shape" transform="translate(9.25,-174.31)">
			<title>Rectangle.1048</title>
			<desc>Biz Data Analytics Service Principal</desc>
			<v:userDefs>
				<v:ud v:nameU="visVersion" v:val="VT0(15):26"/>
			</v:userDefs>
			<v:textBlock v:margins="rect(4,4,4,4)"/>
			<v:textRect cx="24.75" cy="286.672" width="49.5" height="42"/>
			<rect x="0" y="265.672" width="49.5" height="42" class="st8"/>
			<text x="10.35" y="274.67" class="st15" v:langID="1033"><v:paragraph v:horizAlign="1"/><v:tabList/>Biz Data <tspan
						x="9.1" dy="1.2em" class="st7">Analytics </tspan><tspan x="12.32" dy="1.2em" class="st7">Service </tspan><tspan
						x="9.72" dy="1.2em" class="st7">Principal</tspan></text>		</g>
		<g id="shape1049-129" v:mID="1049" v:groupContext="shape" transform="translate(131.919,-234.31)">
			<title>Rectangle.1049</title>
			<desc>hrapp AAD Service Principal</desc>
			<v:userDefs>
				<v:ud v:nameU="visVersion" v:val="VT0(15):26"/>
			</v:userDefs>
			<v:textBlock v:margins="rect(4,4,4,4)"/>
			<v:textRect cx="42.1656" cy="292.297" width="84.34" height="30.75"/>
			<rect x="0" y="276.922" width="84.3311" height="30.75" class="st3"/>
			<text x="22.71" y="289.9" class="st16" v:langID="1033"><v:paragraph v:horizAlign="1"/><v:tabList/>hrapp AAD<v:newlineChar/><tspan
						x="13.6" dy="1.2em" class="st7">Service Principal</tspan></text>		</g>
		<g id="shape1050-133" v:mID="1050" v:groupContext="shape" transform="translate(131.919,-194.56)">
			<title>Rectangle.1050</title>
			<desc>biz AAD Service Principal</desc>
			<v:userDefs>
				<v:ud v:nameU="visVersion" v:val="VT0(15):26"/>
			</v:userDefs>
			<v:textBlock v:margins="rect(4,4,4,4)"/>
			<v:textRect cx="42.1656" cy="292.297" width="84.34" height="30.75"/>
			<rect x="0" y="276.922" width="84.3311" height="30.75" class="st3"/>
			<text x="27.98" y="289.9" class="st16" v:langID="1033"><v:paragraph v:horizAlign="1"/><v:tabList/>biz AAD<v:newlineChar/><tspan
						x="13.6" dy="1.2em" class="st7">Service Principal</tspan></text>		</g>
		<g id="shape1051-137" v:mID="1051" v:groupContext="shape" v:layerMember="0" transform="translate(58.75,-280.81)">
			<title>Dynamic connector.1051</title>
			<desc>API scope user_imperonsation</desc>
			<v:textBlock v:margins="rect(4,4,4,4)"/>
			<v:textRect cx="49.5" cy="302.303" width="89.2" height="15.2035"/>
			<path d="M0 307.67 L49.5 307.67 L49.5 338.8 L66.63 338.8" class="st10"/>
			<rect v:rectContext="textBkgnd" x="9.72713" y="298.703" width="79.5457" height="7.20016" class="st17"/>
			<text x="9.73" y="304.1" class="st18" v:langID="1033"><v:paragraph v:horizAlign="1"/><v:tabList/>API scope user_imperonsation</text>		</g>
		<g id="shape1052-144" v:mID="1052" v:groupContext="shape" v:layerMember="0" transform="translate(58.75,-240.31)">
			<title>Dynamic connector.1052</title>
			<desc>API scope user_imperonsation</desc>
			<v:textBlock v:margins="rect(4,4,4,4)"/>
			<v:textRect cx="40.5" cy="318.172" width="89.2" height="15.2035"/>
			<path d="M0 307.67 L13.5 307.67 L13.5 338.05 L66.63 338.05" class="st10"/>
			<rect v:rectContext="textBkgnd" x="0.72713" y="314.573" width="79.5457" height="7.20016" class="st17"/>
			<text x="0.73" y="319.97" class="st18" v:langID="1033"><v:paragraph v:horizAlign="1"/><v:tabList/>API scope user_imperonsation</text>		</g>
		<g id="shape1053-151" v:mID="1053" v:groupContext="shape" v:layerMember="0" transform="translate(58.75,-182.624)">
			<title>Dynamic connector.1053</title>
			<desc>Role app_impersonation</desc>
			<v:textBlock v:margins="rect(4,4,4,4)"/>
			<v:textRect cx="37.6875" cy="296.487" width="73.87" height="15.2035"/>
			<path d="M0 307.67 L13.5 307.67 L13.5 280.36 L66.63 280.36" class="st10"/>
			<rect v:rectContext="textBkgnd" x="5.58007" y="292.887" width="64.2148" height="7.20016" class="st17"/>
			<text x="5.58" y="298.29" class="st18" v:langID="1033"><v:paragraph v:horizAlign="1"/><v:tabList/>Role app_impersonation</text>		</g>
	</g>
</svg>
