<?xml version="1.0" encoding="UTF-8" standalone="no"?>
<!DOCTYPE svg PUBLIC "-//W3C//DTD SVG 1.1//EN" "http://www.w3.org/Graphics/SVG/1.1/DTD/svg11.dtd">
<!-- Generated by Microsoft Visio, SVG Export highlevel.svg Page-1 -->
<svg xmlns="http://www.w3.org/2000/svg" xmlns:xlink="http://www.w3.org/1999/xlink" xmlns:ev="http://www.w3.org/2001/xml-events"
		xmlns:v="http://schemas.microsoft.com/visio/2003/SVGExtensions/" width="5.89419in" height="2.67627in"
		viewBox="0 0 424.382 192.691" xml:space="preserve" color-interpolation-filters="sRGB" class="st21">
	<v:documentProperties v:langID="1033" v:viewMarkup="false"/>

	<style type="text/css">
	<![CDATA[
		.st1 {fill:#0078d7;stroke:none;stroke-linecap:butt;stroke-width:0.75}
		.st2 {fill:#0078d7;font-family:Segoe UI;font-size:0.75em}
		.st3 {font-size:1em}
		.st4 {fill:#ffffff;stroke:none;stroke-linecap:round;stroke-linejoin:round;stroke-width:0.75}
		.st5 {fill:#00188f;stroke:none;stroke-linecap:round;stroke-linejoin:round;stroke-width:0.75}
		.st6 {fill:#000000;font-family:Calibri;font-size:0.75em}
		.st7 {fill:none;stroke:#0000ff;stroke-dasharray:0.75,1.5;stroke-linecap:round;stroke-linejoin:round;stroke-width:0.75}
		.st8 {fill:#0078d7;font-family:Segoe UI;font-size:0.833336em}
		.st9 {marker-end:url(#mrkr4-61);stroke:#000000;stroke-linecap:round;stroke-linejoin:round;stroke-width:0.75}
		.st10 {fill:#000000;fill-opacity:1;stroke:#000000;stroke-opacity:1;stroke-width:0.22935779816514}
		.st11 {fill:#ffffff;stroke:none;stroke-linecap:butt;stroke-width:7.2}
		.st12 {fill:#000000;font-family:Calibri;font-size:0.666664em}
		.st13 {fill:#ffffff;stroke:none;stroke-linecap:butt}
		.st14 {stroke:#000000;stroke-linecap:round;stroke-linejoin:round;stroke-width:0.75}
		.st15 {fill:#ffffff;stroke:#ffffff;stroke-linecap:butt;stroke-width:1.5}
		.st16 {fill:#00188f;stroke:none;stroke-linecap:butt;stroke-width:0.75}
		.st17 {fill:#ffffff;stroke:none;stroke-linecap:butt;stroke-width:0.75}
		.st18 {fill:none;stroke:none;stroke-linecap:butt;stroke-width:0.75}
		.st19 {fill:#7f7f7f;stroke:none;stroke-linecap:butt;stroke-width:0.75}
		.st20 {fill:#7f7f7f;font-family:Segoe UI;font-size:0.75em}
		.st21 {fill:none;fill-rule:evenodd;font-size:12px;overflow:visible;stroke-linecap:square;stroke-miterlimit:3}
	]]>
	</style>

	<defs id="Markers">
		<g id="lend4">
			<path d="M 2 1 L 0 0 L 2 -1 L 2 1 " style="stroke:none"/>
		</g>
		<marker id="mrkr4-61" class="st10" v:arrowType="4" v:arrowSize="2" v:setback="8.72" refX="-8.72" orient="auto"
				markerUnits="strokeWidth" overflow="visible">
			<use xlink:href="#lend4" transform="scale(-4.36,-4.36) "/>
		</marker>
	</defs>
	<g v:mID="0" v:index="1" v:groupContext="foregroundPage">
		<title>Page-1</title>
		<v:pageProperties v:drawingScale="1" v:pageScale="1" v:drawingUnits="19" v:shadowOffsetX="9" v:shadowOffsetY="-9"/>
		<v:layer v:name="Azure" v:index="0"/>
		<v:layer v:name="Connector" v:index="1"/>
		<g id="group1-1" transform="translate(128.25,-160.513)" v:mID="1" v:groupContext="group">
			<title>Azure  Active Directory</title>
			<desc>Azure Active Directory</desc>
			<g id="group2-2" transform="translate(8.99512,-9.2025)" v:mID="2" v:groupContext="group">
				<title>Sheet.2</title>
				<g id="shape3-3" v:mID="3" v:groupContext="shape">
					<title>Sheet.3</title>
					<path d="M0 187.66 C0.22 188.04 0.35 188.46 0.35 188.89 C0.35 189.12 0.31 189.33 0.25 189.55 L5.46 192.69 L5.46
								 183.61 C5.38 183.59 5.09 183.07 5.04 183.03 L0 187.66 Z" class="st1"/>
				</g>
			</g>
			<g id="group4-5" transform="translate(15.5771,-9.1989)" v:mID="4" v:groupContext="group">
				<title>Sheet.4</title>
				<g id="shape5-6" v:mID="5" v:groupContext="shape">
					<title>Sheet.5</title>
					<path d="M1 182.93 C0.91 182.98 0.09 183.61 0 183.66 L0 192.69 L5.18 189.37 C5.13 189.2 5.12 189.03 5.12 188.86
								 C5.12 188.57 5.18 188.27 5.28 187.99 L1 182.93 Z" class="st1"/>
				</g>
			</g>
			<g id="group6-8" v:mID="6" v:groupContext="group">
				<title>Sheet.6</title>
				<g id="shape7-9" v:mID="7" v:groupContext="shape">
					<title>Sheet.7</title>
					<path d="M23.12 182.08 C22.46 182.08 21.83 181.82 21.38 181.34 L17.22 184.3 C17.49 184.68 17.62 185.14 17.62
								 185.61 C17.62 186.96 16.53 188.04 15.19 188.04 C13.86 188.04 12.77 186.96 12.77 185.61 C12.77 185.02
								 12.98 184.48 13.36 184.05 L8.56 181.47 C8.12 181.89 7.54 182.12 6.93 182.12 C5.58 182.12 4.49 181.04
								 4.49 179.69 C4.49 178.36 5.58 177.26 6.93 177.26 C7.33 177.26 7.71 177.36 8.06 177.56 L13.08 172.91
								 C12.73 172.45 12.54 171.89 12.54 171.31 C12.54 169.84 13.74 168.65 15.21 168.65 C16.68 168.65 17.88
								 169.84 17.88 171.31 C17.88 171.81 17.73 172.29 17.45 172.71 L21.69 177.71 C22.11 177.4 22.62 177.23
								 23.14 177.23 C24.48 177.23 25.57 178.31 25.57 179.66 C25.55 180.99 24.46 182.08 23.12 182.08 ZM15.26
								 162.4 L15.26 162.15 L15.16 162.27 L14.99 162.09 L14.99 162.47 L0 180.26 L15.08 192.55 L15.08 192.69
								 L30.26 180.32 L15.26 162.4 Z" class="st1"/>
				</g>
			</g>
			<g id="shape1-11" v:mID="1" v:groupContext="groupContent">
				<v:textBlock v:margins="rect(0,4,4,4)" v:verticalAlign="0"/>
				<v:textRect cx="15.1283" cy="213.103" width="72" height="30.606"/>
				<text x="3.73" y="205.9" class="st2" v:langID="1033"><v:paragraph v:horizAlign="1"/><v:tabList/>Azure <v:newlineChar/><tspan
							x="-16.35" dy="1.2em" class="st3">Active Directory</tspan></text>			</g>
		</g>
		<g id="group53-14" transform="translate(258.257,-38.1195)" v:mID="53" v:groupContext="group" v:layerMember="0">
			<title>Generic Server (Stackable)</title>
			<desc>OAKProxy Server</desc>
			<g id="shape54-15" v:mID="54" v:groupContext="shape" v:layerMember="0" transform="translate(0.74925,-0.75)">
				<title>_x3C_Slice_x3E__62_</title>
				<rect x="0" y="161.941" width="15" height="30.75" class="st4"/>
			</g>
			<g id="shape55-17" v:mID="55" v:groupContext="shape" v:layerMember="0">
				<title>Sheet.55</title>
				<path d="M14.25 161.19 C15.08 161.19 15.75 161.85 15.75 162.66 L15.75 191.94 L0.75 191.94 L0.75 162.66 C0.75 161.85
							 1.42 161.19 2.25 161.19 L14.25 161.19 ZM14.25 160.44 L2.25 160.44 C1.01 160.44 0 161.43 0 162.66 L0
							 191.94 L0 192.69 L0.75 192.69 L15.75 192.69 L16.5 192.69 L16.5 191.94 L16.5 162.66 C16.5 161.44 15.49
							 160.44 14.25 160.44 Z" class="st4"/>
			</g>
			<g id="shape56-19" v:mID="56" v:groupContext="shape" v:layerMember="0" transform="translate(2.39325,-3.2715)">
				<title>Sheet.56</title>
				<rect x="0" y="168.418" width="11.55" height="24.273" class="st4"/>
			</g>
			<g id="shape57-21" v:mID="57" v:groupContext="shape" v:layerMember="0" transform="translate(0.75,-0.75)">
				<title>Sheet.57</title>
				<path d="M13.5 161.94 L1.5 161.94 C0.67 161.94 0 162.6 0 163.41 L0 192.69 L15 192.69 L15 163.41 C15 162.6 14.33 161.94
							 13.5 161.94 ZM12.75 189.69 L2.25 189.69 L2.25 188.19 L12.75 188.19 L12.75 189.69 ZM12.75 186.69 L2.25
							 186.69 L2.25 185.19 L12.75 185.19 L12.75 186.69 ZM12.75 167.94 L2.25 167.94 L2.25 166.44 L12.75 166.44
							 L12.75 167.94 Z" class="st5"/>
			</g>
			<g id="shape53-23" v:mID="53" v:groupContext="groupContent" v:layerMember="0">
				<v:textBlock v:margins="rect(4,4,4,4)"/>
				<v:textRect cx="8.25" cy="202.093" width="71.86" height="18.8036"/>
				<text x="-22.66" y="204.79" class="st6" v:langID="1033"><v:paragraph v:horizAlign="1"/><v:tabList/>OAKProxy Server</text>			</g>
		</g>
		<g id="group58-25" transform="translate(354.894,-128.119)" v:mID="58" v:groupContext="group" v:layerMember="0">
			<title>Active Directory VM</title>
			<desc>Domain Controller</desc>
			<g id="shape59-26" v:mID="59" v:groupContext="shape" v:layerMember="0">
				<title>Sheet.59</title>
				<path d="M37.52 164.87 C37.52 165.54 37.61 163.43 37.04 162.85 C36.75 162.56 36.37 162.37 36.08 162.37 C35.98 162.37
							 35.89 162.37 35.79 162.37 L1.63 162.37 C0.77 162.37 0 163.23 0 164.29 L0 190.77 C0 191.83 0.67 192.69
							 1.63 192.69 L35.89 192.69 C36.75 192.69 37.52 191.83 37.52 190.77 L37.52 164.87 Z" class="st5"/>
			</g>
			<g id="group60-28" transform="translate(9.81572,-4.20328)" v:mID="60" v:groupContext="group" v:layerMember="0">
				<title>AD FS.5004</title>
				<g id="shape61-29" v:mID="61" v:groupContext="shape" v:layerMember="0" transform="translate(4.06992,-0.0773046)">
					<title>Sheet.61</title>
					<path d="M13.64 191.9 L7.44 181.59 C7.17 181.15 6.74 181.15 6.47 181.59 L0.27 191.9 C0 192.35 0.21 192.69 0.74
								 192.69 L13.17 192.69 C13.7 192.69 13.91 192.35 13.64 191.9 ZM10.63 191.68 L7.91 191.68 L7.91 190.05
								 L9 190.05 L9 188.96 L7.36 188.96 L6.82 188.96 L5.18 188.96 L5.18 190.05 L6.27 190.05 L6.27 191.68
								 L3.55 191.68 L3.55 190.05 L4.64 190.05 L4.64 188.41 L5.18 188.41 L6.82 188.41 L6.82 187.32 L5.73
								 187.32 L5.73 185.69 L8.45 185.69 L8.45 187.32 L7.36 187.32 L7.36 188.41 L9 188.41 L9.54 188.41 L9.54
								 190.05 L10.63 190.05 L10.63 191.68 Z" class="st4"/>
				</g>
				<g id="shape62-31" v:mID="62" v:groupContext="shape" v:layerMember="0">
					<title>Sheet.62</title>
					<path d="M9.8 170.37 L1.09 170.37 C0.49 170.37 0 170.85 0 171.43 L0 192.69 L3.04 192.69 C3.04 192.46 3.1 192.22
								 3.25 191.98 L4.13 190.51 L1.63 190.51 L1.63 189.43 L4.79 189.43 L5.44 188.34 L1.63 188.34 L1.63
								 187.25 L6.1 187.25 L9.97 180.84 C10.19 180.47 10.52 180.24 10.89 180.19 L10.89 171.43 C10.89 170.85
								 10.4 170.37 9.8 170.37 ZM9.25 174.73 L1.63 174.73 L1.63 173.64 L9.25 173.64 L9.25 174.73 Z"
							class="st4"/>
				</g>
			</g>
			<g id="shape58-33" v:mID="58" v:groupContext="groupContent" v:layerMember="0">
				<v:textBlock v:margins="rect(4,4,4,4)"/>
				<v:textRect cx="18.8065" cy="202.093" width="77.57" height="18.8036"/>
				<text x="-14.96" y="204.79" class="st6" v:langID="1033"><v:paragraph v:horizAlign="1"/><v:tabList/>Domain Controller</text>			</g>
		</g>
		<g id="group72-35" transform="translate(363.647,-38.8695)" v:mID="72" v:groupContext="group" v:layerMember="0">
			<title>Application Server.72</title>
			<desc>Web App</desc>
			<g id="group73-36" transform="translate(9.34575,-0.375)" v:mID="73" v:groupContext="group" v:layerMember="0">
				<title>Sheet.73</title>
				<g id="shape74-37" v:mID="74" v:groupContext="shape" v:layerMember="0">
					<title>Sheet.74</title>
					<path d="M0 181.44 L0 192.69 L16.87 192.69 L16.87 181.44 L0 181.44 ZM4.69 191.75 L0.94 191.75 L0.94 184.72 L4.69
								 184.72 L4.69 191.75 ZM15.94 191.75 L5.62 191.75 L5.62 184.72 L15.94 184.72 L15.94 191.75 Z"
							class="st5"/>
				</g>
				<g id="shape75-39" v:mID="75" v:groupContext="shape" v:layerMember="0" transform="translate(8.4375,-6.09375)">
					<title>Sheet.75</title>
					<rect x="0" y="191.754" width="5.15625" height="0.9375" class="st5"/>
				</g>
				<g id="shape76-41" v:mID="76" v:groupContext="shape" v:layerMember="0" transform="translate(8.4375,-4.6875)">
					<title>Sheet.76</title>
					<rect x="0" y="191.754" width="5.15625" height="0.9375" class="st5"/>
				</g>
				<g id="shape77-43" v:mID="77" v:groupContext="shape" v:layerMember="0" transform="translate(8.4375,-3.28125)">
					<title>Sheet.77</title>
					<rect x="0" y="191.754" width="5.15625" height="0.9375" class="st5"/>
				</g>
				<g id="shape78-45" v:mID="78" v:groupContext="shape" v:layerMember="0" transform="translate(8.4375,-1.875)">
					<title>Sheet.78</title>
					<rect x="0" y="191.754" width="5.15625" height="0.9375" class="st5"/>
				</g>
				<g id="shape79-47" v:mID="79" v:groupContext="shape" v:layerMember="0" transform="translate(0.9375,-8.90625)">
					<title>Sheet.79</title>
					<rect x="0" y="191.285" width="15" height="1.40625" class="st5"/>
				</g>
			</g>
			<g id="shape80-49" v:mID="80" v:groupContext="shape" v:layerMember="0">
				<title>Sheet.80</title>
				<path d="M13.5 161.94 L1.5 161.94 C0.67 161.94 0 162.6 0 163.41 L0 192.69 L8.25 192.69 L8.25 189.69 L2.25 189.69
							 L2.25 188.19 L8.25 188.19 L8.25 186.69 L2.25 186.69 L2.25 185.19 L8.25 185.19 L8.25 180.69 L8.22 179.94
							 L9 179.94 L13.5 179.94 C13.92 179.94 14.25 179.94 15 179.94 L15 163.41 C15 162.6 14.33 161.94 13.5 161.94
							 ZM12.75 167.94 L2.25 167.94 L2.25 166.44 L12.75 166.44 L12.75 167.94 Z" class="st5"/>
			</g>
			<g id="shape72-51" v:mID="72" v:groupContext="groupContent" v:layerMember="0">
				<v:textBlock v:margins="rect(4,4,4,4)"/>
				<v:textRect cx="13.1104" cy="202.093" width="43.96" height="18.8036"/>
				<text x="-3.85" y="204.79" class="st6" v:langID="1033"><v:paragraph v:horizAlign="1"/><v:tabList/>Web App</text>			</g>
		</g>
		<g id="shape81-53" v:mID="81" v:groupContext="shape" transform="translate(221.507,-6.61949)">
			<title>Affinity group</title>
			<desc>AD DS Domain</desc>
			<v:textBlock v:margins="rect(4,4,4,4)" v:verticalAlign="0"/>
			<v:textRect cx="101.25" cy="105.447" width="202.5" height="174.488"/>
			<path d="M0 192.69 L202.5 192.69 L202.5 18.2 L0 18.2 L0 192.69 Z" class="st7"/>
			<text x="68.29" y="31.2" class="st8" v:langID="1033"><v:paragraph v:horizAlign="1"/><v:tabList/>AD DS Domain</text>		</g>
		<g id="shape82-56" v:mID="82" v:groupContext="shape" v:layerMember="1" transform="translate(274.944,-45.138)">
			<title>Dynamic connector</title>
			<desc>Kerberos</desc>
			<v:textBlock v:margins="rect(4,4,4,4)"/>
			<v:textRect cx="44.3511" cy="183.691" width="40" height="17.6036"/>
			<path d="M0 183.8 L82.16 183.6" class="st9"/>
			<rect v:rectContext="textBkgnd" x="29.7281" y="178.892" width="29.2459" height="9.59985" class="st11"/>
			<text x="29.73" y="186.09" class="st12" v:langID="1033"><v:paragraph v:horizAlign="1"/><v:tabList/>Kerberos</text>		</g>
		<g id="group83-64" transform="translate(188.507,-87.9945)" v:mID="83" v:groupContext="group" v:layerMember="0">
			<title>Firewall</title>
			<desc>Firewall</desc>
			<g id="shape84-65" v:mID="84" v:groupContext="shape" v:layerMember="0" transform="translate(0,-20.25)">
				<title>Sheet.84</title>
				<rect x="0" y="186.691" width="7.5" height="6" class="st5"/>
			</g>
			<g id="shape85-67" v:mID="85" v:groupContext="shape" v:layerMember="0" transform="translate(8.33325,-20.25)">
				<title>Sheet.85</title>
				<rect x="0" y="186.691" width="13.3327" height="6" class="st5"/>
			</g>
			<g id="shape86-69" v:mID="86" v:groupContext="shape" v:layerMember="0" transform="translate(22.5,-20.25)">
				<title>Sheet.86</title>
				<rect x="0" y="186.691" width="7.5" height="6" class="st5"/>
			</g>
			<g id="shape87-71" v:mID="87" v:groupContext="shape" v:layerMember="0" transform="translate(0,-13.5)">
				<title>Sheet.87</title>
				<rect x="0" y="186.691" width="14.1667" height="6" class="st5"/>
			</g>
			<g id="shape88-73" v:mID="88" v:groupContext="shape" v:layerMember="0" transform="translate(15,-13.5)">
				<title>Sheet.88</title>
				<rect x="0" y="186.691" width="15" height="6" class="st5"/>
			</g>
			<g id="shape89-75" v:mID="89" v:groupContext="shape" v:layerMember="0" transform="translate(0,-6.75)">
				<title>Sheet.89</title>
				<rect x="0" y="186.691" width="7.5" height="6" class="st5"/>
			</g>
			<g id="shape90-77" v:mID="90" v:groupContext="shape" v:layerMember="0" transform="translate(8.33325,-6.75)">
				<title>Sheet.90</title>
				<rect x="0" y="186.691" width="13.3327" height="6" class="st5"/>
			</g>
			<g id="shape91-79" v:mID="91" v:groupContext="shape" v:layerMember="0" transform="translate(22.5,-6.75)">
				<title>Sheet.91</title>
				<rect x="0" y="186.691" width="7.5" height="6" class="st5"/>
			</g>
			<g id="shape92-81" v:mID="92" v:groupContext="shape" v:layerMember="0">
				<title>Sheet.92</title>
				<rect x="0" y="186.691" width="14.1667" height="6" class="st5"/>
			</g>
			<g id="shape93-83" v:mID="93" v:groupContext="shape" v:layerMember="0" transform="translate(15,1.42109E-13)">
				<title>Sheet.93</title>
				<rect x="0" y="186.691" width="15" height="6" class="st5"/>
			</g>
			<g id="shape83-85" v:mID="83" v:groupContext="groupContent" v:layerMember="0">
				<v:textBlock v:margins="rect(4,4,4,4)"/>
				<v:textRect cx="15" cy="202.093" width="38.74" height="18.8036"/>
				<text x="0.65" y="204.79" class="st6" v:langID="16393"><v:paragraph v:horizAlign="1"/><v:tabList/>Firewall</text>			</g>
		</g>
		<g id="shape94-87" v:mID="94" v:groupContext="shape" transform="translate(72.7648,-29.1195)">
			<title>Azure Functions (nc)</title>
			<path d="M23.6 163.44 L13.94 163.44 L8.73 178.12 L15.08 178.17 L10.12 192.69 L23.8 173.31 L17.16 173.31 L23.6 163.44
						 ZM0.2 178.26 L1.74 180 L1.79 180.05 L8.73 186.69 C8.98 186.94 9.53 186.99 9.82 186.69 C10.12 186.4 10.12
						 185.85 9.82 185.55 L2.63 178.26 C2.34 177.97 2.34 177.42 2.63 177.12 L9.67 170.08 C10.07 169.79 9.97 169.24
						 9.67 168.94 C9.33 168.65 8.88 168.65 8.58 168.94 L1.74 175.59 L0.2 177.12 C-0.04 177.42 -0.09 177.97 0.2
						 178.26 ZM31.54 178.26 C31.83 177.97 31.79 177.42 31.54 177.12 L30 175.59 L23.16 168.94 C22.86 168.65 22.42
						 168.65 22.07 168.94 C21.77 169.24 21.67 169.79 22.07 170.08 L29.26 177.12 C29.55 177.42 29.55 177.97 29.26
						 178.26 L21.92 185.55 C21.62 185.85 21.62 186.4 21.92 186.69 C22.22 186.99 22.76 186.94 23.01 186.69 L29.8
						 179.95 L29.85 179.9 L31.54 178.26 Z" class="st1"/>
		</g>
		<g id="group123-89" transform="translate(106.488,-87.0967)" v:mID="123" v:groupContext="group">
			<title>Web App (was websites).14</title>
			<desc>Web App</desc>
			<g id="group124-90" v:mID="124" v:groupContext="group">
				<title>Sheet.124</title>
				<g id="shape125-91" v:mID="125" v:groupContext="shape">
					<title>Sheet.125</title>
					<path d="M23.51 188.31 C21.28 190.01 18.64 190.85 16.03 190.85 C12.31 190.85 8.65 189.18 6.22 186.01 C2.08 180.6
								 3.1 172.86 8.52 168.71 C10.76 166.99 13.39 166.17 16.01 166.17 C19.72 166.17 23.39 167.84 25.82
								 171.01 C29.96 176.42 28.93 184.16 23.51 188.31 ZM27.28 169.88 C24.49 166.23 20.27 164.32 16.01 164.32
								 C13.01 164.32 9.96 165.28 7.39 167.24 C1.18 172.01 -0 180.91 4.76 187.13 C7.55 190.78 11.77 192.69
								 16.03 192.69 C19.04 192.69 22.07 191.75 24.64 189.77 C30.86 185.01 32.04 176.1 27.28 169.88 Z"
							class="st1"/>
				</g>
			</g>
			<g id="group126-93" transform="translate(5.09156,-4.39894)" v:mID="126" v:groupContext="group">
				<title>Sheet.126</title>
				<g id="group127-94" transform="translate(0.351188,-0.176625)" v:mID="127" v:groupContext="group">
					<title>Sheet.127</title>
					<g id="group128-95" transform="translate(0.44925,3.41061E-13)" v:mID="128" v:groupContext="group">
						<title>Sheet.128</title>
						<g id="shape129-96" v:mID="129" v:groupContext="shape">
							<title>Sheet.129</title>
							<path d="M3.72 185.66 C2.9 184.85 2.24 184.07 1.71 183.31 C0.52 185.73 0.1 188.21 0 190.2 C0.12 190.36
										 0.12 190.48 0.23 190.64 C0.83 191.39 1.57 192.11 2.29 192.69 C2.18 191.07 2.34 188.41 3.72
										 185.66 Z" class="st1"/>
						</g>
					</g>
					<g id="shape130-98" v:mID="130" v:groupContext="shape" transform="translate(3.3825,-8.98425)">
						<title>Sheet.130</title>
						<path d="M5.07 185.19 C3.96 185.96 2.81 186.94 1.66 188.17 C1.02 188.84 0.48 189.53 0 190.22 C0.49 191.02
									 1.14 191.84 1.95 192.69 C2.56 191.83 3.31 190.97 4.21 190.12 C5.35 189.06 6.42 188.2 7.43 187.52
									 C6.6 186.76 5.81 185.98 5.07 185.19 Z" class="st1"/>
					</g>
					<g id="group131-100" transform="translate(10.2079,-15.2081)" v:mID="131" v:groupContext="group">
						<title>Sheet.131</title>
						<g id="shape132-101" v:mID="132" v:groupContext="shape">
							<title>Sheet.132</title>
							<path d="M10.04 190.62 C9.5 189.93 8.9 189.33 8.26 188.79 C6.35 188.5 3.39 188.53 0 190.33 C0.78 191.17
										 1.55 191.95 2.3 192.69 C6.82 190.26 10.04 190.62 10.04 190.62 Z" class="st1"/>
						</g>
					</g>
					<g id="group133-103" transform="translate(1.1291E-13,-9.38775)" v:mID="133" v:groupContext="group">
						<title>Sheet.133</title>
						<g id="shape134-104" v:mID="134" v:groupContext="shape">
							<title>Sheet.134</title>
							<path d="M2.16 192.69 C2.5 192 2.91 191.31 3.38 190.62 C1.44 187.55 1.53 185.02 1.74 183.83 C1.26 184.34
										 0.8 184.86 0.41 185.43 C0.02 187.04 0 189.6 2.16 192.69 Z" class="st1"/>
						</g>
					</g>
					<g id="group135-106" transform="translate(4.16269,-0.740812)" v:mID="135" v:groupContext="group">
						<title>Sheet.135</title>
						<g id="shape136-107" v:mID="136" v:groupContext="shape">
							<title>Sheet.136</title>
							<path d="M3.51 186.58 C2.6 185.86 1.83 185.14 1.17 184.45 C0.7 185.1 0.32 185.75 0 186.4 C0.62 187.02
										 1.33 187.65 2.14 188.3 C7.2 192.31 12.23 192.69 15.05 192.69 C15.24 192.69 16.12 191.49
										 16.63 190.75 C15.37 191.01 9.97 191.69 3.51 186.58 Z" class="st1"/>
						</g>
					</g>
					<g id="group137-109" transform="translate(2.16112,-7.03612)" v:mID="137" v:groupContext="group">
						<title>Sheet.137</title>
						<g id="shape138-110" v:mID="138" v:groupContext="shape">
							<title>Sheet.138</title>
							<path d="M0 190.34 C0.53 191.1 1.18 191.88 2 192.69 C2.32 192.05 2.71 191.39 3.17 190.74 C2.36 189.89
										 1.72 189.07 1.22 188.27 C0.74 188.96 0.34 189.65 0 190.34 Z" class="st1"/>
						</g>
					</g>
					<g id="group139-112" transform="translate(10.8082,-5.32762)" v:mID="139" v:groupContext="group">
						<title>Sheet.139</title>
						<g id="shape140-113" v:mID="140" v:groupContext="shape">
							<title>Sheet.140</title>
							<path d="M0 183.86 C4.61 188.12 10.07 191.74 11.46 192.69 C11.6 192.34 11.69 192 11.79 191.64 C10.3 190.53
										 6.39 187.48 1.7 182.81 C1.16 183.11 0.59 183.46 0 183.86 Z" class="st1"/>
						</g>
					</g>
					<g id="group141-115" transform="translate(5.12419,-16.4848)" v:mID="141" v:groupContext="group">
						<title>Sheet.141</title>
						<g id="shape142-116" v:mID="142" v:groupContext="shape">
							<title>Sheet.142</title>
							<path d="M5.08 191.6 C3.95 190.42 2.81 189.16 1.63 187.8 C1.07 187.98 0.53 188.2 0 188.46 C0.86 189.88
										 2.03 191.3 3.33 192.69 C3.93 192.27 4.5 191.91 5.08 191.6 Z" class="st1"/>
						</g>
					</g>
					<g id="shape143-118" v:mID="143" v:groupContext="shape" transform="translate(8.361,-14.0617)">
						<title>Sheet.143</title>
						<path d="M1.92 189.15 C1.34 189.46 0.59 189.91 0 190.33 C0.74 191.12 1.49 191.93 2.31 192.69 C2.9 192.29
									 3.69 191.8 4.23 191.5 C3.48 190.77 2.7 189.98 1.92 189.15 Z" class="st1"/>
					</g>
					<g id="shape144-120" v:mID="144" v:groupContext="shape" transform="translate(8.36025,-14.0152)">
						<title>Sheet.144</title>
						<path d="M1.71 188.99 C1.13 189.3 0.59 189.7 0 190.12 C0.74 190.91 1.79 191.93 2.61 192.69 C3.2 192.29 3.69
									 191.88 4.23 191.58 C3.48 190.85 2.49 189.83 1.71 188.99 Z" class="st1"/>
					</g>
				</g>
				<g id="group145-122" transform="translate(15.2696,-6.24169)" v:mID="145" v:groupContext="group">
					<title>Sheet.145</title>
					<g id="shape146-123" v:mID="146" v:groupContext="shape">
						<title>Sheet.146</title>
						<path d="M1.38 187.6 C0.23 188.49 0 190.15 0.89 191.31 C1.78 192.48 3.45 192.69 4.61 191.81 C5.77 190.93
									 5.99 189.26 5.11 188.1 C4.21 186.94 2.55 186.7 1.38 187.6 Z" class="st1"/>
					</g>
				</g>
				<g id="group147-125" transform="translate(9.9159,-2.27374E-13)" v:mID="147" v:groupContext="group">
					<title>Sheet.147</title>
					<g id="shape148-126" v:mID="148" v:groupContext="shape">
						<title>Sheet.148</title>
						<path d="M1.27 187.98 C0.2 188.8 0 190.35 0.81 191.42 C1.64 192.49 3.18 192.69 4.26 191.87 C5.33 191.05 5.53
									 189.51 4.71 188.44 C3.89 187.36 2.35 187.16 1.27 187.98 Z" class="st1"/>
					</g>
				</g>
				<g id="group149-128" transform="translate(0,-5.36869)" v:mID="149" v:groupContext="group">
					<title>Sheet.149</title>
					<g id="shape150-129" v:mID="150" v:groupContext="shape">
						<title>Sheet.150</title>
						<path d="M1.94 185.53 C0.31 186.78 0 189.11 1.25 190.74 C2.5 192.38 4.85 192.69 6.48 191.44 C8.11 190.19
									 8.42 187.85 7.17 186.2 C5.92 184.59 3.57 184.27 1.94 185.53 Z" class="st1"/>
					</g>
				</g>
			</g>
			<g id="shape123-131" v:mID="123" v:groupContext="groupContent">
				<v:textBlock v:margins="rect(0,0,0,0)" v:verticalAlign="0"/>
				<v:textRect cx="16.0185" cy="210.569" width="72" height="31.5"/>
				<text x="-2.61" y="202.92" class="st2" v:langID="1033"><v:paragraph v:horizAlign="1"/><v:tabList/>Web App</text>			</g>
		</g>
		<g id="shape151-133" v:mID="151" v:groupContext="shape" v:layerMember="1" transform="translate(219.257,-101.281)">
			<title>Dynamic connector.151</title>
			<desc>OAuth2</desc>
			<v:textBlock v:margins="rect(4,4,4,4)"/>
			<v:textRect cx="39.081" cy="192.691" width="40" height="17.6036"/>
			<path d="M0 192.69 L47.25 192.69 L47.25 217.06" class="st9"/>
			<rect v:rectContext="textBkgnd" x="26.5479" y="187.892" width="25.0661" height="9.59985" class="st11"/>
			<text x="26.55" y="195.09" class="st12" v:langID="1033"><v:paragraph v:horizAlign="1"/><v:tabList/>OAuth2</text>		</g>
		<g id="shape152-140" v:mID="152" v:groupContext="shape" v:layerMember="1" transform="translate(137.694,-92.2815)">
			<title>Dynamic connector.152</title>
			<desc>REST Call</desc>
			<v:textBlock v:margins="rect(4,4,4,4)"/>
			<v:textRect cx="29.8125" cy="174.853" width="40" height="17.6036"/>
			<path d="M0 183.69 L43.52 183.69" class="st9"/>
			<rect v:rectContext="textBkgnd" x="15.1115" y="170.054" width="29.4022" height="9.59985" class="st13"/>
			<text x="15.11" y="177.25" class="st12" v:langID="1033"><v:paragraph v:horizAlign="1"/><v:tabList/>REST Call</text>		</g>
		<g id="shape154-147" v:mID="154" v:groupContext="shape" v:layerMember="1" transform="translate(104.302,-44.6864)">
			<title>Dynamic connector.154</title>
			<desc>Client Credential Grant</desc>
			<v:textBlock v:margins="rect(4,4,4,4)"/>
			<v:textRect cx="41.2963" cy="198.133" width="84.39" height="17.6036"/>
			<path d="M0 192.69 L46.99 192.69 L46.99 136.1 L83.45 136.1" class="st14"/>
			<rect v:rectContext="textBkgnd" x="4.00975" y="193.334" width="74.5733" height="9.59985" class="st11"/>
			<text x="4.01" y="200.53" class="st12" v:langID="1033"><v:paragraph v:horizAlign="1"/><v:tabList/>Client Credential Grant</text>		</g>
		<g id="group156-152" transform="translate(239.507,-142.306)" v:mID="156" v:groupContext="group">
			<title>Server directory (opaque)</title>
			<desc>Azure AD Connect</desc>
			<g id="shape157-153" v:mID="157" v:groupContext="shape" transform="translate(0,-0.06225)">
				<title>Sheet.157</title>
				<path d="M23.98 184.44 L23.98 182.21 L23.25 182.21 L23.25 181.44 L19.66 181.44 C18.75 181.44 17.82 181.76 17.03 182.11
							 L16.72 182.11 C16.19 181.87 15.6 181.66 14.98 181.54 C14.99 181.54 14.99 181.54 15 181.54 L15 163.41
							 C15 162.6 14.33 161.94 13.5 161.94 L1.5 161.94 C0.67 161.94 0 162.6 0 163.41 L0 192.69 L9.77 192.69
							 L23.59 192.69 L23.59 191.03 L23.25 191.03 L23.25 190.43 L23.98 190.43 L23.98 188.19 L23.25 188.19 L23.25
							 187.42 L23.98 187.42 L23.98 185.26 L23.25 185.26 L23.25 184.44 L23.98 184.44 L23.98 184.44 Z"
						class="st15"/>
			</g>
			<g id="shape158-155" v:mID="158" v:groupContext="shape" transform="translate(3.52718E-13,-0.063)">
				<title>Sheet.158</title>
				<path d="M8.25 189.69 L2.25 189.69 L2.25 188.19 L8.25 188.19 L8.25 186.69 L2.25 186.69 L2.25 185.19 L8.25 185.19
							 L8.25 180.69 L9 180.69 L9 179.94 L13.5 179.94 C13.92 179.94 14.25 179.94 15 179.94 L15 163.41 C15 162.6
							 14.33 161.94 13.5 161.94 L1.5 161.94 C0.67 161.94 0 162.6 0 163.41 L0 192.69 L8.25 192.69 L8.25 189.69
							 ZM2.25 166.44 L12.75 166.44 L12.75 167.94 L2.25 167.94 L2.25 166.44 Z" class="st16"/>
			</g>
			<g id="shape159-157" v:mID="159" v:groupContext="shape" transform="translate(9.7695,0)">
				<title>Sheet.159</title>
				<path d="M14.21 184.44 L14.21 182.21 L12.67 182.21 L12.67 182.19 L0 182.19 L0 192.69 L13.82 192.69 L13.82 191.03
							 L12.67 191.03 L12.67 190.43 L14.21 190.43 L14.21 188.19 L12.67 188.19 L12.67 187.42 L14.21 187.42 L14.21
							 185.26 L12.67 185.26 L12.67 184.44 L14.21 184.44 Z" class="st16"/>
			</g>
			<g id="shape160-159" v:mID="160" v:groupContext="shape" transform="translate(11.0183,-0.705)">
				<title>Sheet.160</title>
				<path d="M5.63 192.69 C4.88 192.34 4.02 192.16 3.19 192.16 L0 192.16 L0 182.25 L3.19 182.25 C4.02 182.25 4.88 182.54
							 5.63 182.9 L6 182.9 C6.75 182.54 7.62 182.25 8.44 182.25 L11.63 182.25 L11.63 192.16 L8.44 192.16 C7.62
							 192.16 6.75 192.34 6 192.69 L5.63 192.69 Z" class="st17"/>
			</g>
			<g id="shape161-161" v:mID="161" v:groupContext="shape" transform="translate(10.5,-0.1245)">
				<title>Sheet.161</title>
				<path d="M9.16 181.57 C8.25 181.57 7.32 181.88 6.53 182.23 L6.22 182.23 C5.43 181.88 4.5 181.57 3.58 181.57 L0 181.57
							 L0 192.14 L3.58 192.14 C4.46 192.14 5.34 192.33 6.09 192.67 L6.13 192.69 L6.62 192.69 L6.66 192.67 C7.41
							 192.33 8.3 192.14 9.16 192.14 L12.75 192.14 L12.75 181.57 L9.16 181.57 ZM0.75 191.35 L0.75 182.32 L4.5
							 182.32 C5.35 182.48 5.41 182.49 6 182.75 L6 191.77 C5.31 191.5 4.52 191.35 3.75 191.35 L0.75 191.35
							 ZM12 191.35 L9 191.35 C8.22 191.35 7.44 191.5 6.75 191.77 L6.75 182.75 C7.34 182.49 7.4 182.48 8.25
							 182.32 L12 182.32 L12 191.35 Z" class="st16"/>
			</g>
			<g id="shape162-163" v:mID="162" v:groupContext="shape" transform="translate(12.9443,-7.80975)">
				<title>Sheet.162</title>
				<path d="M0.96 190.84 C1.48 190.84 1.91 191.26 1.91 191.77 C1.91 192.28 1.48 192.69 0.96 192.69 C0.43 192.69 0 192.28
							 0 191.77 C0 191.26 0.43 190.84 0.96 190.84 Z" class="st16"/>
			</g>
			<g id="shape163-165" v:mID="163" v:groupContext="shape" transform="translate(12.1448,-5.7105)">
				<title>Sheet.163</title>
				<path d="M3.48 191.96 C3.33 191.19 3.27 191.14 2.53 190.96 C2.51 190.95 2.5 190.95 2.47 190.94 C2.41 190.93 2.35
							 190.94 2.35 190.94 C2.28 191.18 1.89 191.68 1.78 191.82 C1.77 191.82 1.77 191.82 1.76 191.82 L1.75 191.82
							 L1.75 191.82 C1.74 191.82 1.73 191.82 1.73 191.82 C1.62 191.68 1.23 191.18 1.16 190.94 C1.16 190.94
							 1.1 190.93 1.04 190.94 C1.01 190.95 1 190.95 0.97 190.96 C0.24 191.14 0.18 191.19 0.03 191.96 C-0 192.14
							 0 192.18 0.01 192.22 C0.04 192.5 0.8 192.69 1.75 192.69 L1.75 192.69 L1.76 192.69 C2.7 192.69 3.47 192.5
							 3.5 192.22 C3.5 192.18 3.51 192.14 3.48 191.96 Z" class="st16"/>
			</g>
			<g id="shape164-167" v:mID="164" v:groupContext="shape" transform="translate(18.87,-7.857)">
				<title>Sheet.164</title>
				<path d="M0.97 190.86 C1.51 190.86 1.94 191.27 1.94 191.78 C1.94 192.28 1.51 192.69 0.97 192.69 C0.43 192.69 0 192.28
							 0 191.78 C0 191.27 0.43 190.86 0.97 190.86 Z" class="st16"/>
			</g>
			<g id="shape165-169" v:mID="165" v:groupContext="shape" transform="translate(18.0593,-5.7105)">
				<title>Sheet.165</title>
				<path d="M3.52 191.96 C3.37 191.2 3.31 191.15 2.57 190.97 C2.54 190.96 2.53 190.96 2.5 190.95 C2.44 190.94 2.38 190.95
							 2.38 190.95 C2.31 191.19 1.92 191.69 1.81 191.83 C1.8 191.83 1.79 191.83 1.78 191.83 L1.78 191.83 L1.78
							 191.83 C1.77 191.83 1.76 191.83 1.75 191.83 C1.64 191.69 1.25 191.19 1.18 190.95 C1.18 190.95 1.12 190.94
							 1.05 190.95 C1.03 190.96 1.01 190.96 0.99 190.97 C0.25 191.15 0.18 191.2 0.03 191.96 C-0 192.14 0 192.18
							 0.01 192.22 C0.04 192.5 0.81 192.69 1.78 192.69 L1.78 192.69 L1.78 192.69 C2.74 192.69 3.52 192.5 3.55
							 192.22 C3.55 192.18 3.56 192.14 3.52 191.96 Z" class="st16"/>
			</g>
			<g id="shape166-171" v:mID="166" v:groupContext="shape" transform="translate(18,-3.75075)">
				<title>Sheet.166</title>
				<rect x="0" y="191.941" width="3.75" height="0.75" class="st16"/>
			</g>
			<g id="shape167-173" v:mID="167" v:groupContext="shape" transform="translate(18,-2.25075)">
				<title>Sheet.167</title>
				<rect x="0" y="191.941" width="3.75" height="0.75" class="st16"/>
			</g>
			<g id="shape168-175" v:mID="168" v:groupContext="shape" transform="translate(12,-3.75075)">
				<title>Sheet.168</title>
				<rect x="0" y="191.941" width="3.75" height="0.75" class="st16"/>
			</g>
			<g id="shape169-177" v:mID="169" v:groupContext="shape" transform="translate(12,-2.25075)">
				<title>Sheet.169</title>
				<rect x="0" y="191.941" width="3.75" height="0.75" class="st16"/>
			</g>
			<g id="shape156-179" v:mID="156" v:groupContext="groupContent">
				<v:textBlock v:margins="rect(0,0,0,0)" v:verticalAlign="0"/>
				<v:textRect cx="11.9903" cy="213.285" width="72" height="31.5"/>
				<text x="-4.95" y="205.63" class="st6" v:langID="1033"><v:paragraph v:horizAlign="1"/><v:tabList/>Azure AD<v:newlineChar/><tspan
							x="-3.16" dy="1.2em" class="st3">Connect</tspan></text>			</g>
		</g>
		<g id="shape175-182" v:mID="175" v:groupContext="shape" v:layerMember="1" transform="translate(238.7,-157.846)">
			<title>Dynamic connector.175</title>
			<path d="M0 192.66 L-12.69 192.66 L-12.69 174.72 L-73.03 174.72" class="st9"/>
		</g>
		<g id="shape179-187" v:mID="179" v:groupContext="shape" v:layerMember="1" transform="translate(36,-143.869)">
			<title>Dynamic connector.179</title>
			<desc>Auth Code Grant</desc>
			<v:textBlock v:margins="rect(4,4,4,4)"/>
			<v:textRect cx="32.5069" cy="184.816" width="64.37" height="17.6036"/>
			<path d="M0 192.69 L0 160.74 L86.21 160.74" class="st9"/>
			<rect v:rectContext="textBkgnd" x="5.23177" y="180.017" width="54.5504" height="9.59985" class="st13"/>
			<text x="5.23" y="187.22" class="st12" v:langID="1033"><v:paragraph v:horizAlign="1"/><v:tabList/>Auth Code Grant</text>		</g>
		<g id="shape180-194" v:mID="180" v:groupContext="shape" v:layerMember="1" transform="translate(50.625,-132.781)">
			<title>Dynamic connector.180</title>
			<path d="M0 192.69 L15.14 192.69 L15.14 224.19 L49.59 224.19" class="st9"/>
		</g>
		<g id="shape181-199" v:mID="181" v:groupContext="shape" transform="translate(69.5236,-0.75)">
			<title>Web App (was websites).181</title>
			<desc>Service Function</desc>
			<v:textBlock v:margins="rect(0,0,0,0)" v:verticalAlign="0"/>
			<v:textRect cx="19.1122" cy="178.507" width="38.23" height="28.3695"/>
			<rect x="0" y="164.322" width="38.2245" height="28.3695" class="st18"/>
			<text x="5.13" y="172.42" class="st2" v:langID="1033"><v:paragraph v:horizAlign="1"/><v:tabList/>Service <tspan
						x="1.94" dy="1.2em" class="st3">Function</tspan></text>		</g>
		<g id="shape182-203" v:mID="182" v:groupContext="shape" transform="translate(21.7711,-122.285)">
			<title>Tablet</title>
			<desc>Client</desc>
			<v:textBlock v:margins="rect(0,0,0,0)" v:verticalAlign="0"/>
			<v:textRect cx="14.2289" cy="218.357" width="72" height="31.5"/>
			<path d="M26.78 171.7 L1.55 171.7 C0.69 171.7 0 172.46 0 173.32 L0 191.07 C0 191.93 0.69 192.69 1.55 192.69 L26.78 192.69
						 C27.63 192.69 28.5 191.93 28.5 191.07 L28.5 173.32 C28.5 172.45 27.63 171.7 26.78 171.7 ZM16.01 192.03 L12.49
						 192.03 C12.13 192.03 11.84 191.82 11.84 191.58 C11.84 191.33 12.14 191.13 12.49 191.13 L16.01 191.13 C16.36
						 191.13 16.66 191.33 16.66 191.58 C16.66 191.82 16.36 192.03 16.01 192.03 ZM26.25 173.94 L26.25 190.44 L2.25
						 190.44 L2.25 173.94 L26.29 173.91 L26.25 173.94 Z" class="st19"/>
			<text x="2.84" y="210.71" class="st20" v:langID="1033"><v:paragraph v:horizAlign="1"/><v:tabList/>Client</text>		</g>
	</g>
</svg>
