<?xml version="1.0" encoding="UTF-8" standalone="no"?>
<!DOCTYPE svg PUBLIC "-//W3C//DTD SVG 1.1//EN" "http://www.w3.org/Graphics/SVG/1.1/DTD/svg11.dtd">
<!-- Generated by Microsoft Visio, SVG Export refarchdomvm.svg Page-1 -->
<svg xmlns="http://www.w3.org/2000/svg" xmlns:xlink="http://www.w3.org/1999/xlink" xmlns:ev="http://www.w3.org/2001/xml-events"
		xmlns:v="http://schemas.microsoft.com/visio/2003/SVGExtensions/" width="9.60149in" height="5.30974in"
		viewBox="0 0 691.307 382.301" xml:space="preserve" color-interpolation-filters="sRGB" class="st41">
	<v:documentProperties v:langID="1033" v:viewMarkup="false"/>

	<style type="text/css">
	<![CDATA[
		.st1 {fill:#a0a1a2;stroke:none;stroke-linecap:butt;stroke-width:0.75}
		.st2 {fill:#7a7a7a;stroke:none;stroke-linecap:butt;stroke-width:0.75}
		.st3 {fill:#0072c6;stroke:none;stroke-linecap:butt;stroke-width:0.75}
		.st4 {fill:#ffffff;stroke:none;stroke-linecap:butt;stroke-width:0.75}
		.st5 {fill:#ffffff;fill-opacity:0.2;stroke:none;stroke-linecap:butt;stroke-width:0.75}
		.st6 {fill:#7fba00;stroke:none;stroke-linecap:butt;stroke-width:12.24}
		.st7 {fill:#ffffff;stroke:none;stroke-linecap:butt;stroke-width:12.24}
		.st8 {fill:#ffffff;fill-opacity:0.15;stroke:none;stroke-linecap:butt;stroke-width:12.24}
		.st9 {fill:#59b4d9;stroke:none;stroke-linecap:butt;stroke-width:12.24}
		.st10 {fill:#59b4d9;stroke:none;stroke-linecap:butt;stroke-width:0.75}
		.st11 {fill:#b8d432;stroke:none;stroke-linecap:butt;stroke-width:0.75}
		.st12 {fill:#ffffff;fill-opacity:0.7;stroke:none;stroke-linecap:butt;stroke-width:0.75}
		.st13 {fill:#ffffff;fill-opacity:0.4;stroke:none;stroke-linecap:butt;stroke-width:0.75}
		.st14 {fill:#fcd116;stroke:none;stroke-linecap:butt;stroke-width:12.24}
		.st15 {fill:none;stroke:#0078d7;stroke-dasharray:0,1.5;stroke-linecap:round;stroke-linejoin:round;stroke-width:0.5}
		.st16 {fill:#3999c6;stroke:none;stroke-linecap:butt;stroke-width:12.24}
		.st17 {fill:#7a7a7a}
		.st18 {stroke:none;stroke-linecap:butt;stroke-width:0.75}
		.st19 {fill:#0072c6;fill-opacity:0.2;stroke:none;stroke-linecap:butt;stroke-width:0.75}
		.st20 {fill:#ffffff;fill-opacity:0.8;stroke:none;stroke-linecap:butt;stroke-width:0.75}
		.st21 {fill:#7030a0;fill-opacity:0.027;stroke:#0000ff;stroke-dasharray:0.5,1;stroke-linecap:round;stroke-linejoin:round;stroke-width:0.5}
		.st22 {fill:#000000;font-family:Segoe UI;font-size:0.75em}
		.st23 {fill:#00b050;fill-opacity:0.02;stroke:#00b050;stroke-dasharray:0.5,1;stroke-linecap:round;stroke-linejoin:round;stroke-width:0.5}
		.st24 {marker-end:url(#mrkr4-233);stroke:#cc006c;stroke-linecap:round;stroke-linejoin:round;stroke-width:0.75}
		.st25 {fill:#cc006c;fill-opacity:1;stroke:#cc006c;stroke-opacity:1;stroke-width:0.18796992481203}
		.st26 {fill:#f4d9e0;stroke:#ffffff;stroke-linecap:round;stroke-linejoin:round;stroke-width:0.5}
		.st27 {fill:#d80073;font-family:Segoe UI;font-size:1.00001em}
		.st28 {font-size:1em}
		.st29 {marker-end:url(#mrkr4-258);stroke:#1897d5;stroke-linecap:round;stroke-linejoin:round;stroke-width:0.75}
		.st30 {fill:#1897d5;fill-opacity:1;stroke:#1897d5;stroke-opacity:1;stroke-width:0.18796992481203}
		.st31 {fill:none;stroke:none;stroke-linecap:round;stroke-linejoin:round;stroke-width:0.5}
		.st32 {fill:#0070c0;font-family:Segoe UI;font-size:0.833336em}
		.st33 {fill:#0070c0;font-family:Segoe UI;font-size:0.75em}
		.st34 {visibility:visible}
		.st35 {stroke:#a200ff;stroke-linecap:round;stroke-linejoin:round;stroke-opacity:0.098;stroke-width:0.5}
		.st36 {stroke:#a200ff;stroke-linecap:round;stroke-linejoin:round;stroke-width:0.5}
		.st37 {fill:#a200ff;font-family:Segoe UI;font-size:0.75em}
		.st38 {stroke:#d80073;stroke-linecap:round;stroke-linejoin:round;stroke-opacity:0.098;stroke-width:0.5}
		.st39 {stroke:#d80073;stroke-linecap:round;stroke-linejoin:round;stroke-width:0.5}
		.st40 {fill:#d80073;font-family:Segoe UI;font-size:0.75em}
		.st41 {fill:none;fill-rule:evenodd;font-size:12px;overflow:visible;stroke-linecap:square;stroke-miterlimit:3}
	]]>
	</style>

	<defs id="Markers">
		<g id="lend4">
			<path d="M 2 1 L 0 0 L 2 -1 L 2 1 " style="stroke:none"/>
		</g>
		<marker id="mrkr4-233" class="st25" v:arrowType="4" v:arrowSize="3" v:setback="10.64" refX="-10.64" orient="auto"
				markerUnits="strokeWidth" overflow="visible">
			<use xlink:href="#lend4" transform="scale(-5.32,-5.32) "/>
		</marker>
		<marker id="mrkr4-258" class="st30" v:arrowType="4" v:arrowSize="3" v:setback="10.64" refX="-10.64" orient="auto"
				markerUnits="strokeWidth" overflow="visible">
			<use xlink:href="#lend4" transform="scale(-5.32,-5.32) "/>
		</marker>
	</defs>
	<g v:mID="0" v:index="1" v:groupContext="foregroundPage">
		<title>Page-1</title>
		<v:pageProperties v:drawingScale="1" v:pageScale="1" v:drawingUnits="19" v:shadowOffsetX="9" v:shadowOffsetY="-9"/>
		<v:layer v:name="Callout" v:index="0"/>
		<g id="group23-1" transform="translate(554.688,-190.466)" v:mID="23" v:groupContext="group">
			<title>Azure Blob Storage</title>
			<g id="shape24-2" v:mID="24" v:groupContext="shape">
				<title>Sheet.24</title>
				<path d="M0 380.48 C0 381.44 0.77 382.3 1.73 382.3 L46.18 382.3 C47.14 382.3 48 381.53 48 380.48 L48 348.7 L0 348.7
							 L0 380.48 Z" class="st1"/>
			</g>
			<g id="shape25-4" v:mID="25" v:groupContext="shape" transform="translate(0,-33.696)">
				<title>Sheet.25</title>
				<path d="M46.18 375.01 L1.73 375.01 C0.77 375.01 0 375.87 0 376.83 L0 382.3 L48 382.3 L48 376.83 C48 375.87 47.23
							 375.01 46.18 375.01 Z" class="st2"/>
			</g>
			<g id="shape26-6" v:mID="26" v:groupContext="shape" transform="translate(3.552,-17.856)">
				<title>Sheet.26</title>
				<rect x="0" y="369.821" width="19.584" height="12.48" class="st3"/>
			</g>
			<g id="shape27-8" v:mID="27" v:groupContext="shape" transform="translate(3.552,-3.648)">
				<title>Sheet.27</title>
				<rect x="0" y="369.821" width="19.584" height="12.48" class="st3"/>
			</g>
			<g id="shape28-10" v:mID="28" v:groupContext="shape" transform="translate(24.864,-17.856)">
				<title>Sheet.28</title>
				<rect x="0" y="369.821" width="19.488" height="12.48" class="st4"/>
			</g>
			<g id="shape29-12" v:mID="29" v:groupContext="shape" transform="translate(24.864,-3.648)">
				<title>Sheet.29</title>
				<rect x="0" y="369.821" width="19.488" height="12.48" class="st3"/>
			</g>
			<g id="shape30-14" v:mID="30" v:groupContext="shape" transform="translate(0,-0.096)">
				<title>Sheet.30</title>
				<path d="M1.92 341.41 C0.86 341.41 0 342.27 0 343.33 L0 350.33 L0 353.5 L0 380.38 C0 381.44 0.86 382.3 1.92 382.3
							 L4.03 382.3 L41.86 341.41 L1.92 341.41 Z" class="st5"/>
			</g>
		</g>
		<g id="group31-16" transform="translate(404.688,-314.059)" v:mID="31" v:groupContext="group">
			<title>Azure Blob Storage.31</title>
			<g id="shape32-17" v:mID="32" v:groupContext="shape">
				<title>Sheet.32</title>
				<path d="M0 380.48 C0 381.44 0.77 382.3 1.73 382.3 L46.18 382.3 C47.14 382.3 48 381.53 48 380.48 L48 348.7 L0 348.7
							 L0 380.48 Z" class="st1"/>
			</g>
			<g id="shape33-19" v:mID="33" v:groupContext="shape" transform="translate(0,-33.696)">
				<title>Sheet.33</title>
				<path d="M46.18 375.01 L1.73 375.01 C0.77 375.01 0 375.87 0 376.83 L0 382.3 L48 382.3 L48 376.83 C48 375.87 47.23
							 375.01 46.18 375.01 Z" class="st2"/>
			</g>
			<g id="shape34-21" v:mID="34" v:groupContext="shape" transform="translate(3.552,-17.856)">
				<title>Sheet.34</title>
				<rect x="0" y="369.821" width="19.584" height="12.48" class="st3"/>
			</g>
			<g id="shape35-23" v:mID="35" v:groupContext="shape" transform="translate(3.552,-3.648)">
				<title>Sheet.35</title>
				<rect x="0" y="369.821" width="19.584" height="12.48" class="st3"/>
			</g>
			<g id="shape36-25" v:mID="36" v:groupContext="shape" transform="translate(24.864,-17.856)">
				<title>Sheet.36</title>
				<rect x="0" y="369.821" width="19.488" height="12.48" class="st4"/>
			</g>
			<g id="shape37-27" v:mID="37" v:groupContext="shape" transform="translate(24.864,-3.648)">
				<title>Sheet.37</title>
				<rect x="0" y="369.821" width="19.488" height="12.48" class="st3"/>
			</g>
			<g id="shape38-29" v:mID="38" v:groupContext="shape" transform="translate(0,-0.096)">
				<title>Sheet.38</title>
				<path d="M1.92 341.41 C0.86 341.41 0 342.27 0 343.33 L0 350.33 L0 353.5 L0 380.38 C0 381.44 0.86 382.3 1.92 382.3
							 L4.03 382.3 L41.86 341.41 L1.92 341.41 Z" class="st5"/>
			</g>
		</g>
		<g id="group39-31" transform="translate(283.188,-187.01)" v:mID="39" v:groupContext="group">
			<title>Application Gateway</title>
			<g id="shape40-32" v:mID="40" v:groupContext="shape">
				<title>Sheet.40</title>
				<path d="M23.95 382.3 C22.8 382.3 21.65 381.82 20.79 380.96 L1.34 361.51 C0.48 360.65 0 359.5 0 358.35 C0 357.2 0.48
							 356.05 1.34 355.19 L20.79 335.74 C21.65 334.88 22.8 334.4 23.95 334.4 C25.1 334.4 26.25 334.88 27.11
							 335.74 L46.66 355.28 C47.52 356.15 48 357.2 48 358.45 C48 359.59 47.52 360.74 46.66 361.61 L27.11 380.96
							 C26.25 381.82 25.1 382.3 23.95 382.3 Z" class="st6"/>
			</g>
			<g id="shape41-34" v:mID="41" v:groupContext="shape" transform="translate(15.6522,-28.5768)">
				<title>Sheet.41</title>
				<path d="M12.84 380.78 C11.5 381.8 9.92 382.3 8.36 382.3 C6.13 382.3 3.93 381.3 2.48 379.4 C0 376.16 0.61 371.53
							 3.86 369.05 C5.2 368.02 6.78 367.52 8.34 367.52 C10.56 367.52 12.76 368.52 14.22 370.42 C16.7 373.66
							 16.08 378.3 12.84 380.78 Z" class="st7"/>
			</g>
			<g id="shape42-36" v:mID="42" v:groupContext="shape" transform="translate(-2.45803E-13,-9.77245)">
				<title>Sheet.42</title>
				<path d="M27.11 345.51 C26.25 344.65 25.1 344.17 23.95 344.17 C22.8 344.17 21.65 344.65 20.79 345.51 L1.34 364.96
							 C0.48 365.82 0 366.97 0 368.12 C0 369.27 0.48 370.42 1.34 371.28 L12.36 382.3 L33.15 351.55 L27.11 345.51
							 Z" class="st8"/>
			</g>
			<g id="shape43-38" v:mID="43" v:groupContext="shape" transform="translate(17.6287,-4.21557)">
				<title>Sheet.43</title>
				<path d="M6.32 382.3 L12.65 375.98 L8.14 375.98 L8.14 356.96 L4.41 356.96 L4.41 375.98 L0 375.98 L6.32 382.3 Z"
						class="st7"/>
			</g>
			<g id="shape44-40" v:mID="44" v:groupContext="shape" transform="translate(23.7653,-15.8275)">
				<title>Sheet.44</title>
				<path d="M13.92 382.3 L13.92 373.36 L10.8 376.48 L2.71 368.39 L0 371.09 L8.09 379.18 L4.97 382.3 L13.92 382.3 Z"
						class="st7"/>
			</g>
			<g id="shape45-42" v:mID="45" v:groupContext="shape" transform="translate(10.2371,-15.794)">
				<title>Sheet.45</title>
				<path d="M0 382.3 L8.94 382.3 L5.83 379.19 L14.14 370.87 L11.43 368.16 L3.12 376.48 L0 373.36 L0 382.3 Z"
						class="st7"/>
			</g>
			<g id="shape46-44" v:mID="46" v:groupContext="shape" transform="translate(16.7617,-29.5578)">
				<title>Sheet.46</title>
				<path d="M11.13 380.98 C9.97 381.87 8.6 382.3 7.25 382.3 C5.32 382.3 3.41 381.44 2.15 379.79 C0 376.98 0.53 372.96
							 3.35 370.81 C4.51 369.91 5.88 369.49 7.23 369.49 C9.16 369.49 11.07 370.35 12.33 372 C14.48 374.81 13.94
							 378.83 11.13 380.98 Z" class="st9"/>
			</g>
			<g id="shape47-46" v:mID="47" v:groupContext="shape" transform="translate(18.4326,-30.8838)">
				<title>Sheet.47</title>
				<path d="M8.28 378.34 C8.75 378.95 9.61 379.06 10.22 378.6 C10.25 378.58 10.27 378.55 10.3 378.52 C10.92 378.96 11.35
							 379.25 11.59 379.41 C11.66 379.22 11.71 379.05 11.76 378.86 C11.51 378.67 11.16 378.4 10.66 378 C10.83
							 377.57 10.77 377.07 10.47 376.67 C10.05 376.12 9.29 375.98 8.7 376.32 C8.04 375.74 7.33 375.06 6.57
							 374.31 C8.92 373.05 10.59 373.23 10.59 373.23 C10.31 372.88 10 372.57 9.66 372.29 C8.67 372.13 7.13
							 372.15 5.38 373.09 L5.37 373.08 C4.79 372.47 4.19 371.81 3.59 371.11 C3.29 371.2 3.01 371.32 2.74 371.45
							 C3.18 372.19 3.79 372.93 4.47 373.65 C4.47 373.65 4.47 373.65 4.47 373.65 C3.91 374.05 3.27 374.58 2.69
							 375.2 C2.62 375.27 2.55 375.35 2.48 375.43 C2.13 375.36 1.76 375.38 1.42 375.51 C0.84 374.25 0.89 373.25
							 0.98 372.73 C0.73 372.99 0.49 373.27 0.29 373.57 C0.14 374.19 0.09 375.08 0.54 376.15 C0.02 376.83 0
							 377.79 0.54 378.5 C0.59 378.56 0.63 378.61 0.69 378.67 C0.45 379.47 0.34 380.25 0.31 380.91 C0.37 380.99
							 0.37 381.06 0.43 381.14 C0.74 381.54 1.12 381.87 1.5 382.17 C1.45 381.46 1.5 380.42 1.94 379.25 C2.24
							 379.28 2.54 379.23 2.83 379.11 C2.99 379.25 3.17 379.4 3.35 379.55 C3.98 380.05 4.61 380.43 5.22 380.74
							 C5.19 381.05 5.26 381.37 5.46 381.64 C5.9 382.2 6.7 382.3 7.25 381.88 C7.37 381.79 7.46 381.68 7.54
							 381.56 C8.54 381.79 9.41 381.83 10.05 381.83 C10.15 381.83 10.61 381.2 10.87 380.81 C10.48 380.9 9.31
							 381.06 7.72 380.6 C7.68 380.42 7.61 380.25 7.49 380.09 C7.09 379.56 6.35 379.44 5.79 379.8 C5.24 379.5
							 4.66 379.12 4.06 378.65 C3.94 378.55 3.82 378.46 3.71 378.36 C4.08 377.79 4.12 377.05 3.79 376.43 C3.87
							 376.35 3.94 376.28 4.02 376.21 C4.61 375.65 5.17 375.21 5.69 374.86 C5.67 374.84 5.65 374.82 5.63 374.8
							 C5.65 374.82 5.67 374.84 5.69 374.86 C5.69 374.86 5.69 374.86 5.69 374.86 C6.49 375.59 7.34 376.3 8.14
							 376.92 C7.93 377.37 7.96 377.92 8.28 378.34 Z" class="st7"/>
			</g>
		</g>
		<g id="group48-48" transform="translate(410.688,-183.212)" v:mID="48" v:groupContext="group">
			<title>Azure VM Scale Set</title>
			<g id="shape49-49" v:mID="49" v:groupContext="shape" transform="translate(0.00111,-24.7031)">
				<title>Sheet.49</title>
				<path d="M39.65 351.5 L2.29 351.5 C1.02 351.5 0 352.64 0 353.9 L0 379.92 C0 381.18 1.02 382.3 2.29 382.3 L39.65 382.3
							 C40.92 382.3 42.2 381.18 42.2 379.92 L42.2 353.9 C42.2 352.63 40.92 351.5 39.65 351.5 Z" class="st1"/>
			</g>
			<g id="shape50-51" v:mID="50" v:groupContext="shape" transform="translate(0,-24.7031)">
				<title>Sheet.50</title>
				<path d="M39.68 351.51 C39.67 351.51 39.66 351.5 39.65 351.5 L2.29 351.5 C1.02 351.51 0 352.64 0 353.91 L0 379.92
							 C0 381.18 1.02 382.3 2.29 382.3 L3.18 382.3 L39.68 351.51 Z" class="st5"/>
			</g>
			<g id="shape51-53" v:mID="51" v:groupContext="shape" transform="translate(3.19902,-27.9465)">
				<title>Sheet.51</title>
				<path d="M35.79 382.3 L0 382.3 L0 357.99 L35.79 357.94 L35.79 382.3 Z" class="st10"/>
			</g>
			<g id="shape52-55" v:mID="52" v:groupContext="shape" transform="translate(20.3408,-53.1357)">
				<title>Sheet.52</title>
				<path d="M1.2 381.7 C1.2 382.03 0.93 382.3 0.6 382.3 C0.27 382.3 0 382.03 0 381.7 C0 381.37 0.27 381.1 0.6 381.1
							 C0.93 381.1 1.2 381.37 1.2 381.7 Z" class="st11"/>
			</g>
			<g id="shape53-57" v:mID="53" v:groupContext="shape" transform="translate(13.9061,-40.838)">
				<title>Sheet.53</title>
				<path d="M7.66 382.3 C7.62 382.3 7.58 382.29 7.54 382.27 L0.11 377.99 C0.04 377.95 0 377.87 0 377.79 C0 377.71 0.04
							 377.64 0.11 377.6 L7.5 373.34 C7.57 373.3 7.65 373.3 7.72 373.34 L15.15 377.63 C15.22 377.67 15.26 377.74
							 15.26 377.82 C15.26 377.9 15.22 377.98 15.15 378.02 L7.77 382.27 C7.73 382.29 7.7 382.3 7.66 382.3 Z"
						class="st4"/>
			</g>
			<g id="shape54-59" v:mID="54" v:groupContext="shape" transform="translate(6.60339,-16.4269)">
				<title>Sheet.54</title>
				<path d="M39.65 351.5 L2.29 351.5 C1.02 351.5 0 352.64 0 353.9 L0 379.92 C0 381.18 1.02 382.3 2.29 382.3 L39.65 382.3
							 C40.92 382.3 42.2 381.18 42.2 379.92 L42.2 353.9 C42.2 352.63 40.92 351.5 39.65 351.5 Z" class="st1"/>
			</g>
			<g id="shape55-61" v:mID="55" v:groupContext="shape" transform="translate(6.60339,-16.428)">
				<title>Sheet.55</title>
				<path d="M39.68 351.51 C39.67 351.51 39.66 351.51 39.65 351.51 L2.29 351.51 C1.02 351.51 0 352.64 0 353.91 L0 379.92
							 C0 381.18 1.02 382.3 2.29 382.3 L3.18 382.3 L39.68 351.51 Z" class="st5"/>
			</g>
			<g id="shape56-63" v:mID="56" v:groupContext="shape" transform="translate(9.8013,-19.6703)">
				<title>Sheet.56</title>
				<path d="M35.8 382.3 L0 382.3 L0 357.99 L35.8 357.94 L35.8 382.3 Z" class="st10"/>
			</g>
			<g id="shape57-65" v:mID="57" v:groupContext="shape" transform="translate(26.943,-44.8595)">
				<title>Sheet.57</title>
				<path d="M1.2 381.7 C1.2 382.03 0.93 382.3 0.6 382.3 C0.27 382.3 0 382.03 0 381.7 C0 381.37 0.27 381.1 0.6 381.1
							 C0.93 381.1 1.2 381.37 1.2 381.7 Z" class="st11"/>
			</g>
			<g id="shape58-67" v:mID="58" v:groupContext="shape" transform="translate(20.5095,-32.563)">
				<title>Sheet.58</title>
				<path d="M7.66 382.3 C7.62 382.3 7.58 382.29 7.54 382.27 L0.11 377.99 C0.04 377.95 0 377.87 0 377.79 C0 377.71 0.04
							 377.64 0.11 377.6 L7.5 373.34 C7.57 373.3 7.65 373.3 7.72 373.34 L15.15 377.63 C15.22 377.67 15.26 377.74
							 15.26 377.82 C15.26 377.9 15.22 377.98 15.15 378.02 L7.77 382.27 C7.73 382.29 7.7 382.3 7.66 382.3 Z"
						class="st4"/>
			</g>
			<g id="shape59-69" v:mID="59" v:groupContext="shape" transform="translate(20.6016,0)">
				<title>Sheet.59</title>
				<path d="M20.06 374.2 L19.06 374.2 L9.11 374.2 L8.59 374.2 C9.97 379.06 8.11 379.76 0 379.76 L0 382.3 L10.32 382.3
							 L17.85 382.3 L27.59 382.3 L27.59 379.76 C19.48 379.76 18.68 379.06 20.06 374.2 Z" class="st2"/>
			</g>
			<g id="shape60-71" v:mID="60" v:groupContext="shape" transform="translate(13.2989,-8.103)">
				<title>Sheet.60</title>
				<path d="M39.65 351.5 L2.29 351.5 C1.02 351.5 0 352.64 0 353.9 L0 379.92 C0 381.18 1.02 382.3 2.29 382.3 L39.65 382.3
							 C40.92 382.3 42.2 381.18 42.2 379.92 L42.2 353.9 C42.2 352.64 40.92 351.5 39.65 351.5 Z" class="st1"/>
			</g>
			<g id="shape61-73" v:mID="61" v:groupContext="shape" transform="translate(13.2978,-8.103)">
				<title>Sheet.61</title>
				<path d="M39.68 351.51 C39.67 351.51 39.66 351.51 39.65 351.51 L2.29 351.51 C1.02 351.51 0 352.64 0 353.91 L0 379.92
							 C0 381.18 1.02 382.3 2.29 382.3 L3.18 382.3 L39.68 351.51 Z" class="st5"/>
			</g>
			<g id="shape62-75" v:mID="62" v:groupContext="shape" transform="translate(16.4968,-11.3453)">
				<title>Sheet.62</title>
				<path d="M35.79 382.3 L0 382.3 L0 357.99 L35.79 357.94 L35.79 382.3 Z" class="st10"/>
			</g>
			<g id="shape63-77" v:mID="63" v:groupContext="shape" transform="translate(20.6027,0)">
				<title>Sheet.63</title>
				<rect x="0" y="379.755" width="27.5924" height="2.54634" class="st1"/>
			</g>
			<g id="shape64-79" v:mID="64" v:groupContext="shape" transform="translate(33.6386,-36.5357)">
				<title>Sheet.64</title>
				<path d="M1.2 381.7 C1.2 382.03 0.93 382.3 0.6 382.3 C0.27 382.3 0 382.03 0 381.7 C0 381.37 0.27 381.1 0.6 381.1
							 C0.93 381.1 1.2 381.37 1.2 381.7 Z" class="st11"/>
			</g>
			<g id="shape65-81" v:mID="65" v:groupContext="shape" transform="translate(27.2039,-24.238)">
				<title>Sheet.65</title>
				<path d="M7.66 382.3 C7.62 382.3 7.58 382.29 7.54 382.27 L0.11 377.99 C0.04 377.95 0 377.87 0 377.79 C0 377.71 0.04
							 377.64 0.11 377.6 L7.5 373.34 C7.57 373.3 7.65 373.3 7.72 373.34 L15.15 377.63 C15.22 377.67 15.26 377.74
							 15.26 377.82 C15.26 377.9 15.22 377.98 15.15 378.02 L7.77 382.27 C7.73 382.29 7.7 382.3 7.66 382.3 Z"
						class="st4"/>
			</g>
			<g id="shape66-83" v:mID="66" v:groupContext="shape" transform="translate(26.1538,-13.8262)">
				<title>Sheet.66</title>
				<path d="M7.64 382.3 C7.6 382.3 7.56 382.29 7.52 382.27 L0.12 378 C0.04 377.96 0 377.89 0 377.81 L0 369.24 C0 369.16
							 0.04 369.08 0.12 369.04 C0.18 369 0.27 369 0.34 369.04 L7.75 373.31 C7.82 373.35 7.86 373.43 7.86 373.51
							 L7.86 382.08 C7.86 382.16 7.82 382.23 7.75 382.27 C7.71 382.29 7.67 382.3 7.64 382.3 Z" class="st12"/>
			</g>
			<g id="shape67-85" v:mID="67" v:groupContext="shape" transform="translate(35.6643,-13.8262)">
				<title>Sheet.67</title>
				<path d="M0.23 382.3 C0.18 382.3 0.15 382.29 0.11 382.27 C0.04 382.23 0 382.16 0 382.08 L0 373.56 C0 373.48 0.04
							 373.41 0.11 373.37 L7.52 369.1 C7.59 369.06 7.67 369.06 7.74 369.1 C7.81 369.14 7.85 369.21 7.85 369.29
							 L7.85 377.81 C7.85 377.89 7.81 377.96 7.74 378 L0.33 382.27 C0.3 382.29 0.26 382.3 0.23 382.3 Z"
						class="st13"/>
			</g>
		</g>
		<g id="group68-87" transform="translate(149.688,-194.975)" v:mID="68" v:groupContext="group">
			<title>Sheet.68</title>
			<g id="shape69-88" v:mID="69" v:groupContext="shape">
				<title>Sheet.69</title>
				<path d="M0 380.8 C0 381.63 0.67 382.3 1.51 382.3 L35.99 382.3 C36.83 382.3 37.5 381.63 37.5 380.8 L37.5 357.3 L0
							 357.3 L0 380.8 Z" class="st10"/>
			</g>
			<g id="shape70-90" v:mID="70" v:groupContext="shape" transform="translate(0,-22.5)">
				<title>Sheet.70</title>
				<path d="M35.99 372.83 L1.51 372.83 C0.67 372.83 0 373.5 0 374.33 L0 382.3 L37.5 382.3 L37.5 374.33 C37.5 373.5 36.83
							 372.83 35.99 372.83 Z" class="st1"/>
			</g>
			<g id="shape71-92" v:mID="71" v:groupContext="shape" transform="translate(0.00525,0)">
				<title>Sheet.71</title>
				<path d="M1.51 350.33 C0.67 350.33 0 351 0 351.83 L0 357.3 L0 359.8 L0 380.8 C0 381.63 0.67 382.3 1.51 382.3 L3.15
							 382.3 L32.71 350.33 L1.51 350.33 Z" class="st5"/>
			</g>
			<g id="shape72-94" v:mID="72" v:groupContext="shape" transform="translate(9.64275,-25.4348)">
				<title>Sheet.72</title>
				<rect x="0" y="379.345" width="25.2533" height="2.9565" class="st4"/>
			</g>
			<g id="shape73-96" v:mID="73" v:groupContext="shape" transform="translate(1.1655,-23.3047)">
				<title>Sheet.73</title>
				<path d="M7.32 378.64 C7.32 380.66 5.68 382.3 3.66 382.3 C1.64 382.3 0 380.66 0 378.64 C0 376.62 1.64 374.98 3.66
							 374.98 C5.68 374.98 7.32 376.62 7.32 378.64 Z" class="st10"/>
			</g>
			<g id="shape74-98" v:mID="74" v:groupContext="shape" transform="translate(2.97675,-24.7995)">
				<title>Sheet.74</title>
				<path d="M1.46 380.55 L3.12 382.3 L2.22 382.3 L0 380.19 L2.21 378.07 L3.11 378.07 L1.46 379.82 L5.51 379.82 L5.51
							 380.55 L1.46 380.55 Z" class="st4"/>
			</g>
			<g id="shape75-100" v:mID="75" v:groupContext="shape" transform="translate(9.80925,-6.45975)">
				<title>Sheet.75</title>
				<path d="M3.26 380.84 C3.26 381.27 3.11 381.62 2.8 381.89 C2.5 382.16 2.1 382.3 1.6 382.3 C1.15 382.3 0.78 382.16
							 0.47 381.88 C0.16 381.61 0 381.26 0 380.84 C0 380.42 0.16 380.07 0.47 379.8 C0.78 379.53 1.17 379.4
							 1.64 379.4 C2.1 379.4 2.48 379.54 2.79 379.81 C3.11 380.09 3.26 380.43 3.26 380.84 Z" class="st4"/>
			</g>
			<g id="shape76-102" v:mID="76" v:groupContext="shape" transform="translate(16.4873,-6.45975)">
				<title>Sheet.76</title>
				<path d="M3.26 380.84 C3.26 381.27 3.11 381.62 2.8 381.89 C2.5 382.16 2.1 382.3 1.6 382.3 C1.15 382.3 0.78 382.16
							 0.47 381.88 C0.16 381.61 0 381.26 0 380.84 C0 380.42 0.16 380.07 0.47 379.8 C0.78 379.53 1.17 379.4
							 1.64 379.4 C2.1 379.4 2.48 379.54 2.79 379.81 C3.11 380.09 3.26 380.43 3.26 380.84 Z" class="st4"/>
			</g>
			<g id="shape77-104" v:mID="77" v:groupContext="shape" transform="translate(23.1645,-6.45975)">
				<title>Sheet.77</title>
				<path d="M3.26 380.84 C3.26 381.27 3.11 381.62 2.8 381.89 C2.5 382.16 2.1 382.3 1.6 382.3 C1.15 382.3 0.78 382.16
							 0.47 381.88 C0.16 381.61 0 381.26 0 380.84 C0 380.42 0.16 380.07 0.47 379.8 C0.78 379.53 1.17 379.4
							 1.64 379.4 C2.1 379.4 2.48 379.54 2.79 379.81 C3.1 380.09 3.26 380.43 3.26 380.84 Z" class="st4"/>
			</g>
		</g>
		<g id="group109-106" transform="translate(297.393,-316.555)" v:mID="109" v:groupContext="group">
			<title>Key Vault</title>
			<g id="shape110-107" v:mID="110" v:groupContext="shape">
				<title>Sheet.110</title>
				<path d="M37.5 363.55 C37.5 357.44 34.57 352.08 30.13 348.65 C30.13 348.82 30.13 349.07 30.13 349.24 C30.13 351.08
							 29.63 352.84 28.88 354.34 C31.05 356.77 32.39 359.95 32.39 363.47 C32.39 371 26.28 377.11 18.75 377.11
							 C11.22 377.11 5.11 371 5.11 363.47 C5.11 359.7 6.61 356.35 9.04 353.84 C8.37 352.42 7.95 350.83 7.95
							 349.15 C7.95 348.82 7.95 348.4 8.04 348.07 C3.18 351.41 0 357.11 0 363.47 C0 373.93 8.37 382.3 18.75
							 382.3 C29.13 382.3 37.5 373.93 37.5 363.55 Z" class="st6"/>
			</g>
			<g id="shape111-109" v:mID="111" v:groupContext="shape" transform="translate(10.3795,-8.87277)">
				<title>Sheet.111</title>
				<path d="M8.62 349.32 C3.85 349.32 0 353.17 0 357.94 C0 361.88 2.59 365.14 6.19 366.23 L6.19 374.77 L2.18 374.77
							 L2.18 379.12 L6.19 379.12 L6.19 382.3 L10.97 382.3 L10.97 366.15 C14.56 365.14 17.16 361.79 17.16 357.86
							 C17.24 353.17 13.39 349.32 8.62 349.32 ZM8.62 353.84 C10.88 353.84 12.72 355.68 12.72 357.94 C12.72
							 360.2 10.88 362.04 8.62 362.04 C6.36 362.04 4.52 360.2 4.52 357.94 C4.52 355.68 6.36 353.84 8.62 353.84
							 Z" class="st14"/>
			</g>
		</g>
		<g id="shape115-111" v:mID="115" v:groupContext="shape" transform="translate(227.688,-10.2904)">
			<title>Virtual Network Box.10</title>
			<path d="M0 382.3 L297 382.3 L297 127.54 L0 127.54 L0 382.3 Z" class="st15"/>
		</g>
		<g id="group116-113" transform="translate(479.688,-13.0514)" v:mID="116" v:groupContext="group">
			<title>Virtual Network (VNet)</title>
			<g id="shape117-114" v:mID="117" v:groupContext="shape" transform="translate(25.5208,0)">
				<title>Sheet.117</title>
				<path d="M11.61 372.03 C11.98 371.66 11.9 371.07 11.61 370.69 L9.82 368.91 L1.79 361.1 C1.41 360.72 0.89 360.72 0.52
							 361.1 C0.15 361.47 0.07 362.06 0.52 362.44 L8.93 370.69 C9.3 371.07 9.3 371.66 8.93 372.03 L0.37 380.59
							 C0 380.96 0 381.56 0.37 381.93 C0.74 382.3 1.34 382.23 1.64 381.93 L9.6 374.04 C9.6 374.04 9.6 374.04
							 9.67 373.97 L11.61 372.03 Z" class="st16"/>
			</g>
			<g id="shape118-116" v:mID="118" v:groupContext="shape">
				<title>Sheet.118</title>
				<path d="M0.37 372.03 C0 371.66 0.07 371.07 0.37 370.69 L2.16 368.91 L10.19 361.1 C10.57 360.72 11.09 360.72 11.46
							 361.1 C11.83 361.47 11.9 362.06 11.46 362.44 L3.2 370.69 C2.83 371.07 2.83 371.66 3.2 372.03 L11.61
							 380.59 C11.98 380.96 11.98 381.56 11.61 381.93 C11.24 382.3 10.64 382.23 10.34 381.93 L2.23 374.12 C2.23
							 374.12 2.23 374.12 2.16 374.04 L0.37 372.03 Z" class="st16"/>
			</g>
			<g id="shape119-118" v:mID="119" v:groupContext="shape" transform="translate(8.63095,-8.48214)">
				<title>Sheet.119</title>
				<path d="M5.06 379.85 C5.06 381.26 3.87 382.3 2.6 382.3 C1.34 382.3 0 381.11 0 379.85 C0 378.58 1.04 377.39 2.6 377.39
							 C4.09 377.39 5.06 378.58 5.06 379.85 Z" class="st6"/>
			</g>
			<g id="shape120-120" v:mID="120" v:groupContext="shape" transform="translate(16.1458,-8.48214)">
				<title>Sheet.120</title>
				<path d="M5.06 379.85 C5.06 381.26 3.87 382.3 2.6 382.3 C1.34 382.3 0 381.11 0 379.85 C0 378.58 1.19 377.39 2.6 377.39
							 C4.02 377.39 5.06 378.58 5.06 379.85 Z" class="st6"/>
			</g>
			<g id="shape121-122" v:mID="121" v:groupContext="shape" transform="translate(23.8839,-8.48214)">
				<title>Sheet.121</title>
				<ellipse cx="2.45536" cy="379.846" rx="2.45536" ry="2.45536" class="st6"/>
			</g>
		</g>
		<g id="group122-124" transform="translate(555.579,-67.8014)" v:mID="122" v:groupContext="group">
			<title>Sheet.122</title>
			<g id="shape123-125" v:mID="123" v:groupContext="shape" transform="translate(6.74925,1.13687E-13)">
				<title>Sheet.123</title>
				<path d="M18 374.8 L17.09 374.8 L8.17 374.8 L7.7 374.8 C8.94 379.3 7.28 379.95 0 379.95 L0 382.3 L9.26 382.3 L16.01
							 382.3 L24.75 382.3 L24.75 379.95 C17.47 379.95 16.76 379.3 18 374.8 L18 374.8 Z" class="st17"/>
				<path d="M18 374.8 L17.09 374.8 L8.17 374.8 L7.7 374.8 C8.94 379.3 7.28 379.95 0 379.95 L0 382.3 L9.26 382.3 L16.01
							 382.3 L24.75 382.3 L24.75 379.95 C17.47 379.95 16.76 379.3 18 374.8" class="st18"/>
			</g>
			<g id="shape124-128" v:mID="124" v:groupContext="shape" transform="translate(0.00075,-6.75075)">
				<title>Sheet.124</title>
				<path d="M35.23 354.55 L2.04 354.55 C0.91 354.55 0 355.56 0 356.69 L0 380.18 C0 381.3 0.91 382.3 2.04 382.3 L35.23
							 382.3 C36.36 382.3 37.5 381.3 37.5 380.18 L37.5 356.69 C37.5 355.56 36.36 354.55 35.23 354.55 Z"
						class="st1"/>
			</g>
			<g id="shape125-130" v:mID="125" v:groupContext="shape" transform="translate(0,-6.75)">
				<title>Sheet.125</title>
				<path d="M35.26 354.55 C35.25 354.55 35.24 354.55 35.23 354.55 L2.04 354.55 C0.91 354.55 0 355.56 0 356.69 L0 380.18
							 C0 381.3 0.91 382.3 2.04 382.3 L2.83 382.3 L35.26 354.55 Z" class="st5"/>
			</g>
			<g id="shape126-132" v:mID="126" v:groupContext="shape" transform="translate(2.99925,-9.75)">
				<title>Sheet.126</title>
				<rect x="0" y="360.551" width="31.5" height="21.75" class="st10"/>
			</g>
			<g id="shape127-134" v:mID="127" v:groupContext="shape" transform="translate(6.74925,0)">
				<title>Sheet.127</title>
				<rect x="0" y="380.051" width="24.75" height="2.25" class="st1"/>
			</g>
			<g id="shape128-136" v:mID="128" v:groupContext="shape" transform="translate(18.0735,-32.3963)">
				<title>Sheet.128</title>
				<path d="M1.06 381.77 C1.06 382.06 0.83 382.3 0.53 382.3 C0.24 382.3 0 382.06 0 381.77 C0 381.47 0.24 381.24 0.53
							 381.24 C0.83 381.24 1.06 381.47 1.06 381.77 Z" class="st11"/>
			</g>
			<g id="shape129-138" v:mID="129" v:groupContext="shape" transform="translate(11.2492,-12.75)">
				<title>Sheet.129</title>
				<path d="M15.33 382.3 L0.62 381.11 C0.27 381.09 0 380.79 0 380.44 L0 369.16 C0 368.81 0.27 368.51 0.62 368.49 C0.62
							 368.49 15.33 367.3 15.33 367.3 C15.75 367.3 16.05 367.6 16.05 367.97 L16.05 381.63 C16.05 381.81 15.98
							 381.98 15.85 382.11 C15.73 382.23 15.56 382.3 15.38 382.3 L15.33 382.3 Z" class="st19"/>
			</g>
			<g id="shape130-140" v:mID="130" v:groupContext="shape" transform="translate(19.275,-20.7758)">
				<title>Sheet.130</title>
				<path d="M0 376.59 L0 382.3 L7.35 382.3 L7.35 376 L0 376.59 Z" class="st20"/>
			</g>
			<g id="shape131-142" v:mID="131" v:groupContext="shape" transform="translate(11.9212,-20.7758)">
				<title>Sheet.131</title>
				<path d="M0 377.18 L0 382.3 L6.3 382.3 L6.3 376.67 L0 377.18 Z" class="st20"/>
			</g>
			<g id="shape132-144" v:mID="132" v:groupContext="shape" transform="translate(19.275,-13.4228)">
				<title>Sheet.132</title>
				<path d="M0 381.71 L0 376 L7.35 376 L7.35 382.3 L0 381.71 Z" class="st20"/>
			</g>
			<g id="shape133-146" v:mID="133" v:groupContext="shape" transform="translate(11.9212,-14.0993)">
				<title>Sheet.133</title>
				<path d="M0 381.79 L0 376.67 L6.3 376.67 L6.3 382.3 L0 381.79 Z" class="st20"/>
			</g>
		</g>
		<g id="group134-148" transform="translate(368.688,-43.0514)" v:mID="134" v:groupContext="group">
			<title>Sheet.134</title>
			<g id="shape135-149" v:mID="135" v:groupContext="shape" transform="translate(20.8003,-43.2)">
				<title>Sheet.135</title>
				<rect x="0" y="377.501" width="6.40032" height="4.8" class="st10"/>
			</g>
			<g id="shape136-151" v:mID="136" v:groupContext="shape" transform="translate(11.2003,-43.2)">
				<title>Sheet.136</title>
				<rect x="0" y="377.501" width="6.40032" height="4.8" class="st10"/>
			</g>
			<g id="shape137-153" v:mID="137" v:groupContext="shape" transform="translate(40.0003,0)">
				<title>Sheet.137</title>
				<path d="M3.2 377.5 L0 377.5 L0 382.3 L4.8 382.3 C6.57 382.3 8 380.87 8 379.1 L8 374.3 L3.2 374.3 L3.2 377.5 Z"
						class="st10"/>
			</g>
			<g id="shape138-155" v:mID="138" v:groupContext="shape" transform="translate(0,-11.1994)">
				<title>Sheet.138</title>
				<rect x="0" y="375.901" width="4.8" height="6.40032" class="st10"/>
			</g>
			<g id="shape139-157" v:mID="139" v:groupContext="shape" transform="translate(20.8003,0)">
				<title>Sheet.139</title>
				<rect x="0" y="377.501" width="6.40032" height="4.8" class="st10"/>
			</g>
			<g id="shape140-159" v:mID="140" v:groupContext="shape" transform="translate(43.2,-11.1994)">
				<title>Sheet.140</title>
				<rect x="0" y="375.901" width="4.8" height="6.40032" class="st10"/>
			</g>
			<g id="shape141-161" v:mID="141" v:groupContext="shape" transform="translate(30.4003,0)">
				<title>Sheet.141</title>
				<rect x="0" y="377.501" width="6.40032" height="4.8" class="st10"/>
			</g>
			<g id="shape142-163" v:mID="142" v:groupContext="shape" transform="translate(11.2003,0)">
				<title>Sheet.142</title>
				<rect x="0" y="377.501" width="6.40032" height="4.8" class="st10"/>
			</g>
			<g id="shape143-165" v:mID="143" v:groupContext="shape">
				<title>Sheet.143</title>
				<path d="M4.8 377.5 L4.8 374.3 L0 374.3 L0 379.1 C0 380.87 1.43 382.3 3.2 382.3 L8 382.3 L8 377.5 L4.8 377.5 Z"
						class="st10"/>
			</g>
			<g id="shape144-167" v:mID="144" v:groupContext="shape" transform="translate(0,-30.3994)">
				<title>Sheet.144</title>
				<rect x="0" y="375.901" width="4.8" height="6.40032" class="st10"/>
			</g>
			<g id="shape145-169" v:mID="145" v:groupContext="shape" transform="translate(0,-40.0003)">
				<title>Sheet.145</title>
				<path d="M4.8 379.1 L8 379.1 L8 374.3 L3.2 374.3 C1.43 374.3 0 375.74 0 377.5 L0 382.3 L4.8 382.3 L4.8 379.1 Z"
						class="st10"/>
			</g>
			<g id="shape146-171" v:mID="146" v:groupContext="shape" transform="translate(0,-20.7994)">
				<title>Sheet.146</title>
				<rect x="0" y="375.901" width="4.8" height="6.40032" class="st10"/>
			</g>
			<g id="shape147-173" v:mID="147" v:groupContext="shape" transform="translate(43.2,-20.7994)">
				<title>Sheet.147</title>
				<rect x="0" y="375.901" width="4.8" height="6.40032" class="st10"/>
			</g>
			<g id="shape148-175" v:mID="148" v:groupContext="shape" transform="translate(43.2,-30.4003)">
				<title>Sheet.148</title>
				<rect x="0" y="375.901" width="4.8" height="6.40032" class="st10"/>
			</g>
			<g id="shape149-177" v:mID="149" v:groupContext="shape" transform="translate(30.3994,-43.2)">
				<title>Sheet.149</title>
				<rect x="0" y="377.501" width="6.40032" height="4.8" class="st10"/>
			</g>
			<g id="shape150-179" v:mID="150" v:groupContext="shape" transform="translate(40.0003,-40.0003)">
				<title>Sheet.150</title>
				<path d="M3.2 379.1 L3.2 382.3 L8 382.3 L8 377.5 C8 375.73 6.57 374.3 4.8 374.3 L0 374.3 L0 379.1 L3.2 379.1 Z"
						class="st10"/>
			</g>
			<g id="shape151-181" v:mID="151" v:groupContext="shape" transform="translate(8.05536,-19.3142)">
				<title>Sheet.151</title>
				<path d="M25.86 362.22 L1.5 362.22 C0.67 362.22 0 362.96 0 363.78 L0 380.75 C0 381.57 0.67 382.3 1.5 382.3 L25.86
							 382.3 C26.69 382.3 27.52 381.57 27.52 380.75 L27.52 363.78 C27.52 362.95 26.69 362.22 25.86 362.22 Z"
						class="st1"/>
			</g>
			<g id="shape152-183" v:mID="152" v:groupContext="shape" transform="translate(8.05536,-19.3152)">
				<title>Sheet.152</title>
				<path d="M25.88 362.22 C25.87 362.22 25.87 362.22 25.86 362.22 L1.5 362.22 C0.67 362.22 0 362.96 0 363.78 L0 380.75
							 C0 381.57 0.67 382.3 1.5 382.3 L2.08 382.3 L25.88 362.22 Z" class="st5"/>
			</g>
			<g id="shape153-185" v:mID="153" v:groupContext="shape" transform="translate(10.1414,-21.4291)">
				<title>Sheet.153</title>
				<path d="M23.34 382.3 L0 382.3 L0 366.45 L23.34 366.41 L23.34 382.3 Z" class="st10"/>
			</g>
			<g id="shape154-187" v:mID="154" v:groupContext="shape" transform="translate(21.3206,-37.8576)">
				<title>Sheet.154</title>
				<path d="M0.78 381.91 C0.78 382.13 0.61 382.3 0.39 382.3 C0.17 382.3 0 382.13 0 381.91 C0 381.7 0.17 381.52 0.39
							 381.52 C0.61 381.52 0.78 381.69 0.78 381.91 Z" class="st11"/>
			</g>
			<g id="shape155-189" v:mID="155" v:groupContext="shape" transform="translate(17.1245,-29.8378)">
				<title>Sheet.155</title>
				<path d="M4.99 382.3 C4.97 382.3 4.94 382.29 4.92 382.28 L0.07 379.49 C0.03 379.46 0 379.41 0 379.36 C0 379.31 0.03
							 379.26 0.07 379.23 L4.89 376.46 C4.93 376.43 4.99 376.43 5.03 376.46 L9.88 379.25 C9.93 379.28 9.95
							 379.33 9.95 379.38 C9.95 379.43 9.93 379.48 9.88 379.51 L5.07 382.28 C5.04 382.29 5.02 382.3 4.99 382.3
							 Z" class="st4"/>
			</g>
			<g id="shape156-191" v:mID="156" v:groupContext="shape" transform="translate(17.185,-8.60064)">
				<title>Sheet.156</title>
				<path d="M13.08 377.02 L12.43 377.02 L5.94 377.02 L5.6 377.02 C6.5 380.19 5.29 380.64 0 380.64 L0 382.3 L6.73 382.3
							 L11.64 382.3 L18 382.3 L18 380.64 C12.7 380.64 12.18 380.19 13.08 377.02 Z" class="st2"/>
			</g>
			<g id="shape157-193" v:mID="157" v:groupContext="shape" transform="translate(12.4224,-13.8854)">
				<title>Sheet.157</title>
				<path d="M25.86 362.22 L1.5 362.22 C0.67 362.22 0 362.96 0 363.78 L0 380.75 C0 381.57 0.67 382.3 1.5 382.3 L25.86
							 382.3 C26.69 382.3 27.52 381.57 27.52 380.75 L27.52 363.78 C27.52 362.95 26.69 362.22 25.86 362.22 Z"
						class="st1"/>
			</g>
			<g id="shape158-195" v:mID="158" v:groupContext="shape" transform="translate(12.4214,-13.8864)">
				<title>Sheet.158</title>
				<path d="M25.88 362.22 C25.87 362.22 25.87 362.22 25.86 362.22 L1.5 362.22 C0.67 362.22 0 362.96 0 363.78 L0 380.75
							 C0 381.57 0.67 382.3 1.5 382.3 L2.08 382.3 L25.88 362.22 Z" class="st5"/>
			</g>
			<g id="shape159-197" v:mID="159" v:groupContext="shape" transform="translate(14.5075,-16.0003)">
				<title>Sheet.159</title>
				<path d="M23.34 382.3 L0 382.3 L0 366.45 L23.34 366.41 L23.34 382.3 Z" class="st10"/>
			</g>
			<g id="shape160-199" v:mID="160" v:groupContext="shape" transform="translate(17.185,-8.60064)">
				<title>Sheet.160</title>
				<rect x="0" y="380.641" width="17.9952" height="1.6608" class="st1"/>
			</g>
			<g id="shape161-201" v:mID="161" v:groupContext="shape" transform="translate(25.6877,-32.4288)">
				<title>Sheet.161</title>
				<path d="M0.78 381.91 C0.78 382.13 0.61 382.3 0.39 382.3 C0.17 382.3 0 382.13 0 381.91 C0 381.7 0.17 381.52 0.39
							 381.52 C0.61 381.52 0.78 381.7 0.78 381.91 Z" class="st11"/>
			</g>
			<g id="shape162-203" v:mID="162" v:groupContext="shape" transform="translate(21.4906,-24.408)">
				<title>Sheet.162</title>
				<path d="M4.99 382.3 C4.97 382.3 4.94 382.29 4.92 382.28 L0.07 379.49 C0.03 379.46 0 379.41 0 379.36 C0 379.31 0.03
							 379.26 0.07 379.23 L4.89 376.46 C4.93 376.43 4.99 376.43 5.03 376.46 L9.88 379.25 C9.93 379.28 9.95
							 379.33 9.95 379.38 C9.95 379.43 9.93 379.48 9.88 379.51 L5.07 382.28 C5.04 382.29 5.02 382.3 4.99 382.3
							 Z" class="st4"/>
			</g>
			<g id="shape163-205" v:mID="163" v:groupContext="shape" transform="translate(20.8061,-17.6179)">
				<title>Sheet.163</title>
				<path d="M4.98 382.3 C4.95 382.3 4.93 382.29 4.91 382.28 L0.07 379.5 C0.03 379.47 0 379.42 0 379.37 L0 373.78 C0
							 373.73 0.03 373.68 0.07 373.65 C0.12 373.63 0.17 373.63 0.22 373.65 L5.05 376.44 C5.1 376.47 5.13 376.51
							 5.13 376.57 L5.13 382.16 C5.13 382.21 5.1 382.26 5.05 382.28 C5.03 382.29 5 382.3 4.98 382.3 Z"
						class="st12"/>
			</g>
			<g id="shape164-207" v:mID="164" v:groupContext="shape" transform="translate(27.0086,-17.6179)">
				<title>Sheet.164</title>
				<path d="M0.15 382.3 C0.12 382.3 0.1 382.29 0.07 382.28 C0.03 382.26 0 382.21 0 382.16 L0 376.6 C0 376.55 0.03 376.5
							 0.07 376.47 L4.9 373.69 C4.95 373.67 5 373.67 5.05 373.69 C5.09 373.72 5.12 373.77 5.12 373.82 L5.12
							 379.37 C5.12 379.43 5.09 379.47 5.05 379.5 L0.22 382.28 C0.2 382.29 0.17 382.3 0.15 382.3 Z"
						class="st13"/>
			</g>
		</g>
		<g id="shape165-209" v:mID="165" v:groupContext="shape" transform="translate(61.1875,-139.051)">
			<title>Affinity group</title>
			<desc>Deployed Resource Group</desc>
			<v:textBlock v:margins="rect(4,4,4,4)" v:verticalAlign="2"/>
			<v:textRect cx="312.75" cy="323.801" width="625.51" height="117"/>
			<path d="M0 382.3 L625.5 382.3 L625.5 265.3 L0 265.3 L0 382.3 Z" class="st21"/>
			<text x="4" y="375.6" class="st22" v:langID="1033"><v:paragraph/><v:tabList/>Deployed Resource Group</text>		</g>
		<g id="shape166-212" v:mID="166" v:groupContext="shape" transform="translate(532.495,-10.4883)">
			<title>Virtual Network Box.166</title>
			<path d="M0 382.3 L154.19 382.3 L154.19 272.18 L0 272.18 L0 382.3 Z" class="st15"/>
		</g>
		<g id="group167-214" transform="translate(641.688,-12.1199)" v:mID="167" v:groupContext="group">
			<title>Virtual Network (VNet).167</title>
			<g id="shape168-215" v:mID="168" v:groupContext="shape" transform="translate(25.5208,0)">
				<title>Sheet.168</title>
				<path d="M11.61 372.03 C11.98 371.66 11.9 371.07 11.61 370.69 L9.82 368.91 L1.79 361.1 C1.41 360.72 0.89 360.72 0.52
							 361.1 C0.15 361.47 0.07 362.06 0.52 362.44 L8.93 370.69 C9.3 371.07 9.3 371.66 8.93 372.03 L0.37 380.59
							 C0 380.96 0 381.56 0.37 381.93 C0.74 382.3 1.34 382.23 1.64 381.93 L9.6 374.04 C9.6 374.04 9.6 374.04
							 9.67 373.97 L11.61 372.03 Z" class="st16"/>
			</g>
			<g id="shape169-217" v:mID="169" v:groupContext="shape">
				<title>Sheet.169</title>
				<path d="M0.37 372.03 C0 371.66 0.07 371.07 0.37 370.69 L2.16 368.91 L10.19 361.1 C10.57 360.72 11.09 360.72 11.46
							 361.1 C11.83 361.47 11.9 362.06 11.46 362.44 L3.2 370.69 C2.83 371.07 2.83 371.66 3.2 372.03 L11.61
							 380.59 C11.98 380.96 11.98 381.56 11.61 381.93 C11.24 382.3 10.64 382.23 10.34 381.93 L2.23 374.12 C2.23
							 374.12 2.23 374.12 2.16 374.04 L0.37 372.03 Z" class="st16"/>
			</g>
			<g id="shape170-219" v:mID="170" v:groupContext="shape" transform="translate(8.63095,-8.48214)">
				<title>Sheet.170</title>
				<path d="M5.06 379.85 C5.06 381.26 3.87 382.3 2.6 382.3 C1.34 382.3 0 381.11 0 379.85 C0 378.58 1.04 377.39 2.6 377.39
							 C4.09 377.39 5.06 378.58 5.06 379.85 Z" class="st6"/>
			</g>
			<g id="shape171-221" v:mID="171" v:groupContext="shape" transform="translate(16.1458,-8.48214)">
				<title>Sheet.171</title>
				<path d="M5.06 379.85 C5.06 381.26 3.87 382.3 2.6 382.3 C1.34 382.3 0 381.11 0 379.85 C0 378.58 1.19 377.39 2.6 377.39
							 C4.02 377.39 5.06 378.58 5.06 379.85 Z" class="st6"/>
			</g>
			<g id="shape172-223" v:mID="172" v:groupContext="shape" transform="translate(23.8839,-8.48214)">
				<title>Sheet.172</title>
				<ellipse cx="2.45536" cy="379.846" rx="2.45536" ry="2.45536" class="st6"/>
			</g>
		</g>
		<g id="shape173-225" v:mID="173" v:groupContext="shape" transform="translate(241.75,-292.379)">
			<title>Affinity group.173</title>
			<desc>Pre-existing Deployment Resources</desc>
			<v:textBlock v:margins="rect(4,4,4,4)" v:verticalAlign="2"/>
			<v:textRect cx="117" cy="337.465" width="234.01" height="89.6727"/>
			<path d="M0 382.3 L234 382.3 L234 292.63 L0 292.63 L0 382.3 Z" class="st23"/>
			<text x="4" y="375.6" class="st22" v:langID="1033"><v:paragraph/><v:tabList/>Pre-existing Deployment Resources</text>		</g>
		<g id="shape1003-228" v:mID="1003" v:groupContext="shape" transform="translate(56.6875,-211.051)">
			<title>Sheet.1003</title>
			<path d="M0 382.3 L76.45 382.3" class="st24"/>
		</g>
		<g id="shape1004-234" v:mID="1004" v:groupContext="shape" transform="translate(191.688,-211.051)">
			<title>Sheet.1004</title>
			<path d="M0 382.3 L76.45 382.3" class="st24"/>
		</g>
		<g id="shape1005-239" v:mID="1005" v:groupContext="shape" transform="translate(342.756,-211.051)">
			<title>Sheet.1005</title>
			<path d="M0 382.3 L47.95 382.3" class="st24"/>
		</g>
		<g id="shape1006-244" v:mID="1006" v:groupContext="shape" transform="translate(739.084,-72.0779) rotate(45)">
			<title>Sheet.1006</title>
			<path d="M0 382.3 L103.69 382.3" class="st24"/>
		</g>
		<g id="shape1007-249" v:mID="1007" v:groupContext="shape" transform="translate(0.25,-194.975)">
			<title>Sheet.1007</title>
			<desc>Internet Ingress</desc>
			<v:textBlock v:margins="rect(4,4,4,4)"/>
			<v:textRect cx="26.7187" cy="366.314" width="53.44" height="31.9755"/>
			<rect x="0" y="350.326" width="53.4375" height="31.9755" class="st26"/>
			<text x="5.9" y="362.71" class="st27" v:langID="1033"><v:paragraph v:horizAlign="1"/><v:tabList/>Internet <tspan
						x="7.88" dy="1.2em" class="st28">Ingress</tspan></text>		</g>
		<g id="shape1008-253" v:mID="1008" v:groupContext="shape" transform="translate(470.259,-211.051)">
			<title>Sheet.1008</title>
			<path d="M0 382.3 L76.45 382.3" class="st29"/>
		</g>
		<g id="shape1009-259" v:mID="1009" v:groupContext="shape" transform="translate(775.877,364.869) rotate(114.444)">
			<title>Sheet.1009</title>
			<path d="M0 382.3 L76.07 382.3" class="st29"/>
		</g>
		<g id="shape1010-264" v:mID="1010" v:groupContext="shape" transform="translate(59.1437,176.991) rotate(-96.0919)">
			<title>Sheet.1010</title>
			<path d="M0 382.3 L56.55 382.3" class="st29"/>
		</g>
		<g id="shape1011-269" v:mID="1011" v:groupContext="shape" transform="translate(138.79,-178.051)">
			<title>Sheet.1011</title>
			<desc>Public IP</desc>
			<v:textBlock v:margins="rect(4,4,4,4)"/>
			<v:textRect cx="29.6471" cy="373.301" width="59.3" height="18"/>
			<rect x="0" y="364.301" width="59.2941" height="18" class="st31"/>
			<text x="10.85" y="376.3" class="st32" v:langID="1033"><v:paragraph v:horizAlign="1"/><v:tabList/>Public IP</text>		</g>
		<g id="shape1012-272" v:mID="1012" v:groupContext="shape" transform="translate(267.393,-169.909)">
			<title>Sheet.1012</title>
			<desc>App Gateway</desc>
			<v:textBlock v:margins="rect(4,4,4,4)"/>
			<v:textRect cx="38.6471" cy="373.301" width="77.3" height="18"/>
			<rect x="0" y="364.301" width="77.2941" height="18" class="st31"/>
			<text x="9.31" y="376.3" class="st32" v:langID="1033"><v:paragraph v:horizAlign="1"/><v:tabList/>App Gateway</text>		</g>
		<g id="shape1013-275" v:mID="1013" v:groupContext="shape" transform="translate(542.688,-166.051)">
			<title>Sheet.1013</title>
			<desc>Blob Storage (Session Keys)</desc>
			<v:textBlock v:margins="rect(4,4,4,4)"/>
			<v:textRect cx="38.6471" cy="373.301" width="77.3" height="18"/>
			<rect x="0" y="364.301" width="77.2941" height="18" class="st31"/>
			<text x="10.21" y="370.3" class="st32" v:langID="1033"><v:paragraph v:horizAlign="1"/><v:tabList/>Blob Storage <tspan
						x="7.72" dy="1.2em" class="st28">(Session Keys)</tspan></text>		</g>
		<g id="shape1014-279" v:mID="1014" v:groupContext="shape" transform="translate(389.688,-358.833)">
			<title>Sheet.1014</title>
			<desc>Blob Storage (Artifacts)</desc>
			<v:textBlock v:margins="rect(4,4,4,4)"/>
			<v:textRect cx="38.6471" cy="373.301" width="77.3" height="18"/>
			<rect x="0" y="364.301" width="77.2941" height="18" class="st31"/>
			<text x="13.05" y="370.6" class="st33" v:langID="1033"><v:paragraph v:horizAlign="1"/><v:tabList/>Blob Storage <tspan
						x="19.64" dy="1.2em" class="st28">(Artifacts)</tspan></text>		</g>
		<g id="shape1015-283" v:mID="1015" v:groupContext="shape" transform="translate(276.393,-357.547)">
			<title>Sheet.1015</title>
			<desc>Key Vault</desc>
			<v:textBlock v:margins="rect(4,4,4,4)"/>
			<v:textRect cx="38.6471" cy="373.301" width="77.3" height="18"/>
			<rect x="0" y="364.301" width="77.2941" height="18" class="st31"/>
			<text x="20.03" y="376" class="st33" v:langID="1033"><v:paragraph v:horizAlign="1"/><v:tabList/>Key Vault</text>		</g>
		<g id="shape1016-286" v:mID="1016" v:groupContext="shape" transform="translate(447.393,-232.909)">
			<title>Sheet.1016</title>
			<desc>VM Scale Set</desc>
			<v:textBlock v:margins="rect(4,4,4,4)"/>
			<v:textRect cx="38.6471" cy="373.301" width="77.3" height="18"/>
			<rect x="0" y="364.301" width="77.2941" height="18" class="st31"/>
			<text x="10.01" y="376.3" class="st32" v:langID="1033"><v:paragraph v:horizAlign="1"/><v:tabList/>VM Scale Set</text>		</g>
		<g id="shape1017-289" v:mID="1017" v:groupContext="shape" transform="translate(268.188,-43.0514)">
			<title>Sheet.1017</title>
			<desc>Pre-existing Highly Available AD DS Infrastructure</desc>
			<v:textBlock v:margins="rect(4,4,4,4)"/>
			<v:textRect cx="47.25" cy="358.526" width="94.5" height="47.5505"/>
			<rect x="0" y="334.751" width="94.5" height="47.5505" class="st31"/>
			<text x="5.64" y="349.53" class="st32" v:langID="1033"><v:paragraph v:horizAlign="1"/><v:tabList/>Pre-existing Highly <tspan
						x="11.72" dy="1.2em" class="st28">Available AD DS </tspan><tspan x="17.67" dy="1.2em" class="st28">Infrastructure</tspan></text>		</g>
		<g id="shape1018-294" v:mID="1018" v:groupContext="shape" transform="translate(594.88,-61.2761)">
			<title>Sheet.1018</title>
			<desc>Pre-existing Application Server using WIA</desc>
			<v:textBlock v:margins="rect(4,4,4,4)"/>
			<v:textRect cx="47.25" cy="358.526" width="94.5" height="47.5505"/>
			<rect x="0" y="334.751" width="94.5" height="47.5505" class="st31"/>
			<text x="21.18" y="349.53" class="st32" v:langID="1033"><v:paragraph v:horizAlign="1"/><v:tabList/>Pre-existing <tspan
						x="7.08" dy="1.2em" class="st28">Application Server </tspan><tspan x="24.72" dy="1.2em" class="st28">using WIA</tspan></text>		</g>
		<g id="shape1019-299" v:mID="1019" v:groupContext="shape" v:layerMember="0" transform="translate(590.259,-267.301)">
			<title>Orthogonal.1019</title>
			<desc>Fully Zone Redundant</desc>
			<v:userDefs>
				<v:ud v:nameU="BackFillColor" v:prompt="" v:val="VT5(#96afcf)"/>
				<v:ud v:nameU="BackLineColor" v:prompt="" v:val="VT5(#1f477d)"/>
				<v:ud v:nameU="BackCharColor" v:prompt="" v:val="VT5(#000000)"/>
				<v:ud v:nameU="DarkerColor" v:prompt="" v:val="VT5(#000000)"/>
				<v:ud v:nameU="visVersion" v:prompt="" v:val="VT0(15):26"/>
				<v:ud v:nameU="msvStructureType" v:prompt="" v:val="VT4(Callout)"/>
				<v:ud v:nameU="msvSDTargetIntersection" v:prompt=""/>
				<v:ud v:nameU="msvSDCalloutNoHighlight" v:prompt="" v:val="VT0(0):5"/>
				<v:ud v:nameU="msvShapeCategories" v:prompt="" v:val="VT0(0):26"/>
				<v:ud v:nameU="Side" v:prompt="" v:val="VT0(4):26"/>
				<v:ud v:nameU="LeaderEnd" v:prompt="" v:val="VT7(PNT(0.25,-0.25)):40"/>
				<v:ud v:nameU="WHBoxIntersection" v:prompt="" v:val="VT7(PNT(0.40384615384615,0)):40"/>
				<v:ud v:nameU="IsEndInterior" v:prompt="" v:val="VT0(0):5"/>
				<v:ud v:nameU="Extension" v:prompt="" v:val="VT0(0.0625):0"/>
				<v:ud v:nameU="Inset" v:prompt="" v:val="VT0(0.0625):0"/>
				<v:ud v:nameU="Embellishment" v:prompt="" v:val="VT0(2):26"/>
				<v:ud v:nameU="MultiFormat" v:prompt="" v:val="VT0(0):26"/>
				<v:ud v:nameU="BackFillColor" v:prompt="" v:val="VT5(#a200ff)"/>
				<v:ud v:nameU="BackLineColor" v:prompt="" v:val="VT5(#ffffff)"/>
				<v:ud v:nameU="BackCharColor" v:prompt="" v:val="VT5(#feffff)"/>
				<v:ud v:nameU="DarkerColor" v:prompt="" v:val="VT5(#a200ff)"/>
				<v:ud v:nameU="msvSDTargetIntersection" v:prompt="" v:val="VT7(PNT(-0.60667371353553,-0.15625031505312)):40"/>
				<v:ud v:nameU="Side" v:prompt="" v:val="VT0(3):26"/>
				<v:ud v:nameU="LeaderEnd" v:prompt="" v:val="VT7(PNT(-0.60667371353553,-0.15625031505312)):40"/>
				<v:ud v:nameU="WHBoxIntersection" v:prompt="" v:val="VT7(PNT(0,0)):40"/>
				<v:ud v:nameU="MultiFormat" v:prompt="" v:val="VT0(1):26"/>
			</v:userDefs>
			<v:textBlock v:margins="rect(4,4,4,4)"/>
			<v:textRect cx="36" cy="366.551" width="72" height="29.6036"/>
			<g id="shadow1019-300" v:groupContext="shadow" v:shadowOffsetX="2.12399" v:shadowOffsetY="-2.12399" v:shadowType="1"
					transform="matrix(1,0,0,1,2.12399,2.12399)" class="st34">
				<path d="M0 382.3 L-43.68 393.55" class="st35"/>
				<path d="M4.5 350.8 L0 350.8 L0 382.3 L4.5 382.3" class="st35"/>
			</g>
			<path d="M0 382.3 L-43.68 393.55" class="st36"/>
			<path d="M4.5 350.8 L0 350.8 L0 382.3 L4.5 382.3" class="st36"/>
			<text x="4" y="363.85" class="st37" v:langID="1033"><v:paragraph/><v:tabList/>Fully Zone <tspan x="4" dy="1.2em"
						class="st28">Redundant</tspan></text>		</g>
		<g id="shape1020-309" v:mID="1020" v:groupContext="shape" v:layerMember="0" transform="translate(493.83,-348.301)">
			<title>Orthogonal.1020</title>
			<desc>Artifact Storage must also be Zone Redundant!</desc>
			<v:userDefs>
				<v:ud v:nameU="BackFillColor" v:prompt="" v:val="VT5(#96afcf)"/>
				<v:ud v:nameU="BackLineColor" v:prompt="" v:val="VT5(#1f477d)"/>
				<v:ud v:nameU="BackCharColor" v:prompt="" v:val="VT5(#000000)"/>
				<v:ud v:nameU="DarkerColor" v:prompt="" v:val="VT5(#000000)"/>
				<v:ud v:nameU="visVersion" v:prompt="" v:val="VT0(15):26"/>
				<v:ud v:nameU="msvStructureType" v:prompt="" v:val="VT4(Callout)"/>
				<v:ud v:nameU="msvSDTargetIntersection" v:prompt=""/>
				<v:ud v:nameU="msvSDCalloutNoHighlight" v:prompt="" v:val="VT0(0):5"/>
				<v:ud v:nameU="msvShapeCategories" v:prompt="" v:val="VT0(0):26"/>
				<v:ud v:nameU="Side" v:prompt="" v:val="VT0(4):26"/>
				<v:ud v:nameU="LeaderEnd" v:prompt="" v:val="VT7(PNT(0.25,-0.25)):40"/>
				<v:ud v:nameU="WHBoxIntersection" v:prompt="" v:val="VT7(PNT(0.40384615384615,0)):40"/>
				<v:ud v:nameU="IsEndInterior" v:prompt="" v:val="VT0(0):5"/>
				<v:ud v:nameU="Extension" v:prompt="" v:val="VT0(0.0625):0"/>
				<v:ud v:nameU="Inset" v:prompt="" v:val="VT0(0.0625):0"/>
				<v:ud v:nameU="Embellishment" v:prompt="" v:val="VT0(2):26"/>
				<v:ud v:nameU="MultiFormat" v:prompt="" v:val="VT0(0):26"/>
				<v:ud v:nameU="BackFillColor" v:prompt="" v:val="VT5(#d80073)"/>
				<v:ud v:nameU="BackLineColor" v:prompt="" v:val="VT5(#ffffff)"/>
				<v:ud v:nameU="BackCharColor" v:prompt="" v:val="VT5(#feffff)"/>
				<v:ud v:nameU="DarkerColor" v:prompt="" v:val="VT5(#d80073)"/>
				<v:ud v:nameU="msvSDTargetIntersection" v:prompt="" v:val="VT7(PNT(-0.57142859089131,-0.10856030867799)):40"/>
				<v:ud v:nameU="Side" v:prompt="" v:val="VT0(3):26"/>
				<v:ud v:nameU="LeaderEnd" v:prompt="" v:val="VT7(PNT(-0.57142859089131,-0.10856030867799)):40"/>
				<v:ud v:nameU="WHBoxIntersection" v:prompt="" v:val="VT7(PNT(0,0)):40"/>
				<v:ud v:nameU="MultiFormat" v:prompt="" v:val="VT0(1):26"/>
			</v:userDefs>
			<v:textBlock v:margins="rect(4,4,4,4)"/>
			<v:textRect cx="54.2411" cy="366.551" width="108.49" height="29.6036"/>
			<g id="shadow1020-310" v:groupContext="shadow" v:shadowOffsetX="2.12399" v:shadowOffsetY="-2.12399" v:shadowType="1"
					transform="matrix(1,0,0,1,2.12399,2.12399)" class="st34">
				<path d="M0 382.3 L-41.14 390.12" class="st38"/>
				<path d="M4.5 350.8 L0 350.8 L0 382.3 L4.5 382.3" class="st38"/>
			</g>
			<path d="M0 382.3 L-41.14 390.12" class="st39"/>
			<path d="M4.5 350.8 L0 350.8 L0 382.3 L4.5 382.3" class="st39"/>
			<text x="4" y="363.85" class="st40" v:langID="1033"><v:paragraph/><v:tabList/>Artifact Storage must <tspan x="4"
						dy="1.2em" class="st28">also be Zone Redundant!</tspan></text>		</g>
	</g>
</svg>
