<?xml version="1.0" encoding="UTF-8" standalone="no"?>
<!DOCTYPE svg PUBLIC "-//W3C//DTD SVG 1.1//EN" "http://www.w3.org/Graphics/SVG/1.1/DTD/svg11.dtd">
<!-- Generated by Microsoft Visio, SVG Export refarchdomvmpriv.svg Page-1 -->
<svg xmlns="http://www.w3.org/2000/svg" xmlns:xlink="http://www.w3.org/1999/xlink" xmlns:ev="http://www.w3.org/2001/xml-events"
		xmlns:v="http://schemas.microsoft.com/visio/2003/SVGExtensions/" width="9.5641in" height="4.64914in"
		viewBox="0 0 688.615 334.738" xml:space="preserve" color-interpolation-filters="sRGB" class="st36">
	<v:documentProperties v:langID="1033" v:viewMarkup="false"/>

	<style type="text/css">
	<![CDATA[
		.st1 {fill:#a0a1a2;stroke:none;stroke-linecap:butt;stroke-width:0.75}
		.st2 {fill:#7a7a7a;stroke:none;stroke-linecap:butt;stroke-width:0.75}
		.st3 {fill:#0072c6;stroke:none;stroke-linecap:butt;stroke-width:0.75}
		.st4 {fill:#ffffff;stroke:none;stroke-linecap:butt;stroke-width:0.75}
		.st5 {fill:#ffffff;fill-opacity:0.2;stroke:none;stroke-linecap:butt;stroke-width:0.75}
		.st6 {fill:#59b4d9;stroke:none;stroke-linecap:butt;stroke-width:0.75}
		.st7 {fill:#b8d432;stroke:none;stroke-linecap:butt;stroke-width:0.75}
		.st8 {fill:#ffffff;fill-opacity:0.7;stroke:none;stroke-linecap:butt;stroke-width:0.75}
		.st9 {fill:#ffffff;fill-opacity:0.4;stroke:none;stroke-linecap:butt;stroke-width:0.75}
		.st10 {fill:none;stroke:#0078d7;stroke-dasharray:0,1.5;stroke-linecap:round;stroke-linejoin:round;stroke-width:0.5}
		.st11 {fill:#3999c6;stroke:none;stroke-linecap:butt;stroke-width:12.24}
		.st12 {fill:#7fba00;stroke:none;stroke-linecap:butt;stroke-width:12.24}
		.st13 {fill:#7a7a7a}
		.st14 {stroke:none;stroke-linecap:butt;stroke-width:0.75}
		.st15 {fill:#0072c6;fill-opacity:0.2;stroke:none;stroke-linecap:butt;stroke-width:0.75}
		.st16 {fill:#ffffff;fill-opacity:0.8;stroke:none;stroke-linecap:butt;stroke-width:0.75}
		.st17 {fill:#7030a0;fill-opacity:0.027;stroke:#0000ff;stroke-dasharray:0.5,1;stroke-linecap:round;stroke-linejoin:round;stroke-width:0.5}
		.st18 {fill:#000000;font-family:Segoe UI;font-size:0.75em}
		.st19 {marker-end:url(#mrkr4-193);stroke:#cc006c;stroke-linecap:round;stroke-linejoin:round;stroke-width:0.75}
		.st20 {fill:#cc006c;fill-opacity:1;stroke:#cc006c;stroke-opacity:1;stroke-width:0.18796992481203}
		.st21 {marker-end:url(#mrkr4-209);stroke:#00b050;stroke-linecap:round;stroke-linejoin:round;stroke-width:1.5}
		.st22 {fill:#00b050;fill-opacity:1;stroke:#00b050;stroke-opacity:1;stroke-width:0.31645569620253}
		.st23 {fill:#f4d9e0;stroke:#ffffff;stroke-linecap:round;stroke-linejoin:round;stroke-width:0.5}
		.st24 {fill:#d80073;font-family:Segoe UI;font-size:1.00001em}
		.st25 {font-size:1em}
		.st26 {marker-end:url(#mrkr4-219);stroke:#1897d5;stroke-linecap:round;stroke-linejoin:round;stroke-width:1}
		.st27 {fill:#1897d5;fill-opacity:1;stroke:#1897d5;stroke-opacity:1;stroke-width:0.23584905660377}
		.st28 {fill:none;stroke:none;stroke-linecap:round;stroke-linejoin:round;stroke-width:0.5}
		.st29 {fill:#0070c0;font-family:Segoe UI;font-size:0.833336em}
		.st30 {fill:#0070c0;font-family:Segoe UI;font-size:0.75em}
		.st31 {fill:#ffffff;stroke:none;stroke-linecap:butt;stroke-width:12.24}
		.st32 {fill:#59b4d9;stroke:none;stroke-linecap:butt;stroke-width:12.24}
		.st33 {fill:#ffffff;fill-opacity:0.15;stroke:none;stroke-linecap:butt;stroke-width:12.24}
		.st34 {fill:#dbe6db;stroke:#ffffff;stroke-linecap:round;stroke-linejoin:round;stroke-width:0.5}
		.st35 {fill:#339933;font-family:Segoe UI;font-size:1.00001em}
		.st36 {fill:none;fill-rule:evenodd;font-size:12px;overflow:visible;stroke-linecap:square;stroke-miterlimit:3}
	]]>
	</style>

	<defs id="Markers">
		<g id="lend4">
			<path d="M 2 1 L 0 0 L 2 -1 L 2 1 " style="stroke:none"/>
		</g>
		<marker id="mrkr4-193" class="st20" v:arrowType="4" v:arrowSize="3" v:setback="10.64" refX="-10.64" orient="auto"
				markerUnits="strokeWidth" overflow="visible">
			<use xlink:href="#lend4" transform="scale(-5.32,-5.32) "/>
		</marker>
		<marker id="mrkr4-209" class="st22" v:arrowType="4" v:arrowSize="3" v:setback="6.32" refX="-6.32" orient="auto"
				markerUnits="strokeWidth" overflow="visible">
			<use xlink:href="#lend4" transform="scale(-3.16,-3.16) "/>
		</marker>
		<marker id="mrkr4-219" class="st27" v:arrowType="4" v:arrowSize="3" v:setback="8.48" refX="-8.48" orient="auto"
				markerUnits="strokeWidth" overflow="visible">
			<use xlink:href="#lend4" transform="scale(-4.24,-4.24) "/>
		</marker>
	</defs>
	<g v:mID="0" v:index="1" v:groupContext="foregroundPage">
		<title>Page-1</title>
		<v:pageProperties v:drawingScale="1" v:pageScale="1" v:drawingUnits="19" v:shadowOffsetX="9" v:shadowOffsetY="-9"/>
		<g id="group23-1" transform="translate(554.688,-259.903)" v:mID="23" v:groupContext="group">
			<title>Azure Blob Storage</title>
			<g id="shape24-2" v:mID="24" v:groupContext="shape">
				<title>Sheet.24</title>
				<path d="M0 332.91 C0 333.87 0.77 334.74 1.73 334.74 L46.18 334.74 C47.14 334.74 48 333.97 48 332.91 L48 301.14 L0
							 301.14 L0 332.91 Z" class="st1"/>
			</g>
			<g id="shape25-4" v:mID="25" v:groupContext="shape" transform="translate(0,-33.696)">
				<title>Sheet.25</title>
				<path d="M46.18 327.44 L1.73 327.44 C0.77 327.44 0 328.31 0 329.27 L0 334.74 L48 334.74 L48 329.27 C48 328.31 47.23
							 327.44 46.18 327.44 Z" class="st2"/>
			</g>
			<g id="shape26-6" v:mID="26" v:groupContext="shape" transform="translate(3.552,-17.856)">
				<title>Sheet.26</title>
				<rect x="0" y="322.258" width="19.584" height="12.48" class="st3"/>
			</g>
			<g id="shape27-8" v:mID="27" v:groupContext="shape" transform="translate(3.552,-3.648)">
				<title>Sheet.27</title>
				<rect x="0" y="322.258" width="19.584" height="12.48" class="st3"/>
			</g>
			<g id="shape28-10" v:mID="28" v:groupContext="shape" transform="translate(24.864,-17.856)">
				<title>Sheet.28</title>
				<rect x="0" y="322.258" width="19.488" height="12.48" class="st4"/>
			</g>
			<g id="shape29-12" v:mID="29" v:groupContext="shape" transform="translate(24.864,-3.648)">
				<title>Sheet.29</title>
				<rect x="0" y="322.258" width="19.488" height="12.48" class="st3"/>
			</g>
			<g id="shape30-14" v:mID="30" v:groupContext="shape" transform="translate(0,-0.096)">
				<title>Sheet.30</title>
				<path d="M1.92 293.84 C0.86 293.84 0 294.71 0 295.76 L0 302.77 L0 305.94 L0 332.82 C0 333.87 0.86 334.74 1.92 334.74
							 L4.03 334.74 L41.86 293.84 L1.92 293.84 Z" class="st5"/>
			</g>
		</g>
		<g id="group48-16" transform="translate(410.688,-252.649)" v:mID="48" v:groupContext="group">
			<title>Azure VM Scale Set</title>
			<g id="shape49-17" v:mID="49" v:groupContext="shape" transform="translate(0.00111,-24.7031)">
				<title>Sheet.49</title>
				<path d="M39.65 303.94 L2.29 303.94 C1.02 303.94 0 305.07 0 306.34 L0 332.36 C0 333.62 1.02 334.74 2.29 334.74 L39.65
							 334.74 C40.92 334.74 42.2 333.62 42.2 332.36 L42.2 306.34 C42.2 305.07 40.92 303.94 39.65 303.94 Z"
						class="st1"/>
			</g>
			<g id="shape50-19" v:mID="50" v:groupContext="shape" transform="translate(0,-24.7031)">
				<title>Sheet.50</title>
				<path d="M39.68 303.94 C39.67 303.94 39.66 303.94 39.65 303.94 L2.29 303.94 C1.02 303.94 0 305.07 0 306.34 L0 332.36
							 C0 333.62 1.02 334.74 2.29 334.74 L3.18 334.74 L39.68 303.94 Z" class="st5"/>
			</g>
			<g id="shape51-21" v:mID="51" v:groupContext="shape" transform="translate(3.19902,-27.9465)">
				<title>Sheet.51</title>
				<path d="M35.79 334.74 L0 334.74 L0 310.43 L35.79 310.38 L35.79 334.74 Z" class="st6"/>
			</g>
			<g id="shape52-23" v:mID="52" v:groupContext="shape" transform="translate(20.3408,-53.1357)">
				<title>Sheet.52</title>
				<path d="M1.2 334.14 C1.2 334.47 0.93 334.74 0.6 334.74 C0.27 334.74 0 334.47 0 334.14 C0 333.81 0.27 333.54 0.6
							 333.54 C0.93 333.54 1.2 333.81 1.2 334.14 Z" class="st7"/>
			</g>
			<g id="shape53-25" v:mID="53" v:groupContext="shape" transform="translate(13.9061,-40.838)">
				<title>Sheet.53</title>
				<path d="M7.66 334.74 C7.62 334.74 7.58 334.73 7.54 334.71 L0.11 330.42 C0.04 330.38 0 330.31 0 330.23 C0 330.15
							 0.04 330.07 0.11 330.03 L7.5 325.78 C7.57 325.74 7.65 325.74 7.72 325.78 L15.15 330.06 C15.22 330.1
							 15.26 330.18 15.26 330.26 C15.26 330.34 15.22 330.41 15.15 330.45 L7.77 334.71 C7.73 334.73 7.7 334.74
							 7.66 334.74 Z" class="st4"/>
			</g>
			<g id="shape54-27" v:mID="54" v:groupContext="shape" transform="translate(6.60339,-16.4269)">
				<title>Sheet.54</title>
				<path d="M39.65 303.94 L2.29 303.94 C1.02 303.94 0 305.07 0 306.34 L0 332.36 C0 333.62 1.02 334.74 2.29 334.74 L39.65
							 334.74 C40.92 334.74 42.2 333.62 42.2 332.36 L42.2 306.34 C42.2 305.07 40.92 303.94 39.65 303.94 Z"
						class="st1"/>
			</g>
			<g id="shape55-29" v:mID="55" v:groupContext="shape" transform="translate(6.60339,-16.428)">
				<title>Sheet.55</title>
				<path d="M39.68 303.94 C39.67 303.94 39.66 303.94 39.65 303.94 L2.29 303.94 C1.02 303.94 0 305.08 0 306.34 L0 332.36
							 C0 333.62 1.02 334.74 2.29 334.74 L3.18 334.74 L39.68 303.94 Z" class="st5"/>
			</g>
			<g id="shape56-31" v:mID="56" v:groupContext="shape" transform="translate(9.8013,-19.6703)">
				<title>Sheet.56</title>
				<path d="M35.8 334.74 L0 334.74 L0 310.43 L35.8 310.38 L35.8 334.74 Z" class="st6"/>
			</g>
			<g id="shape57-33" v:mID="57" v:groupContext="shape" transform="translate(26.943,-44.8595)">
				<title>Sheet.57</title>
				<path d="M1.2 334.14 C1.2 334.47 0.93 334.74 0.6 334.74 C0.27 334.74 0 334.47 0 334.14 C0 333.81 0.27 333.54 0.6
							 333.54 C0.93 333.54 1.2 333.81 1.2 334.14 Z" class="st7"/>
			</g>
			<g id="shape58-35" v:mID="58" v:groupContext="shape" transform="translate(20.5095,-32.563)">
				<title>Sheet.58</title>
				<path d="M7.66 334.74 C7.62 334.74 7.58 334.73 7.54 334.71 L0.11 330.42 C0.04 330.38 0 330.31 0 330.23 C0 330.15
							 0.04 330.07 0.11 330.03 L7.5 325.78 C7.57 325.74 7.65 325.74 7.72 325.78 L15.15 330.06 C15.22 330.1
							 15.26 330.18 15.26 330.26 C15.26 330.34 15.22 330.41 15.15 330.45 L7.77 334.71 C7.73 334.73 7.7 334.74
							 7.66 334.74 Z" class="st4"/>
			</g>
			<g id="shape59-37" v:mID="59" v:groupContext="shape" transform="translate(20.6016,0)">
				<title>Sheet.59</title>
				<path d="M20.06 326.63 L19.06 326.63 L9.11 326.63 L8.59 326.63 C9.97 331.49 8.11 332.19 0 332.19 L0 334.74 L10.32
							 334.74 L17.85 334.74 L27.59 334.74 L27.59 332.19 C19.48 332.19 18.68 331.5 20.06 326.63 Z" class="st2"/>
			</g>
			<g id="shape60-39" v:mID="60" v:groupContext="shape" transform="translate(13.2989,-8.103)">
				<title>Sheet.60</title>
				<path d="M39.65 303.94 L2.29 303.94 C1.02 303.94 0 305.07 0 306.34 L0 332.36 C0 333.62 1.02 334.74 2.29 334.74 L39.65
							 334.74 C40.92 334.74 42.2 333.62 42.2 332.36 L42.2 306.34 C42.2 305.07 40.92 303.94 39.65 303.94 Z"
						class="st1"/>
			</g>
			<g id="shape61-41" v:mID="61" v:groupContext="shape" transform="translate(13.2978,-8.103)">
				<title>Sheet.61</title>
				<path d="M39.68 303.94 C39.67 303.94 39.66 303.94 39.65 303.94 L2.29 303.94 C1.02 303.94 0 305.08 0 306.34 L0 332.36
							 C0 333.62 1.02 334.74 2.29 334.74 L3.18 334.74 L39.68 303.94 Z" class="st5"/>
			</g>
			<g id="shape62-43" v:mID="62" v:groupContext="shape" transform="translate(16.4968,-11.3453)">
				<title>Sheet.62</title>
				<path d="M35.79 334.74 L0 334.74 L0 310.43 L35.79 310.37 L35.79 334.74 Z" class="st6"/>
			</g>
			<g id="shape63-45" v:mID="63" v:groupContext="shape" transform="translate(20.6027,0)">
				<title>Sheet.63</title>
				<rect x="0" y="332.192" width="27.5924" height="2.54634" class="st1"/>
			</g>
			<g id="shape64-47" v:mID="64" v:groupContext="shape" transform="translate(33.6386,-36.5357)">
				<title>Sheet.64</title>
				<path d="M1.2 334.14 C1.2 334.47 0.93 334.74 0.6 334.74 C0.27 334.74 0 334.47 0 334.14 C0 333.81 0.27 333.54 0.6
							 333.54 C0.93 333.54 1.2 333.81 1.2 334.14 Z" class="st7"/>
			</g>
			<g id="shape65-49" v:mID="65" v:groupContext="shape" transform="translate(27.2039,-24.238)">
				<title>Sheet.65</title>
				<path d="M7.66 334.74 C7.62 334.74 7.58 334.73 7.54 334.71 L0.11 330.42 C0.04 330.38 0 330.31 0 330.23 C0 330.15
							 0.04 330.07 0.11 330.03 L7.5 325.78 C7.57 325.74 7.65 325.74 7.72 325.78 L15.15 330.06 C15.22 330.1
							 15.26 330.18 15.26 330.26 C15.26 330.34 15.22 330.41 15.15 330.45 L7.77 334.71 C7.73 334.73 7.7 334.74
							 7.66 334.74 Z" class="st4"/>
			</g>
			<g id="shape66-51" v:mID="66" v:groupContext="shape" transform="translate(26.1538,-13.8262)">
				<title>Sheet.66</title>
				<path d="M7.64 334.74 C7.6 334.74 7.56 334.73 7.52 334.71 L0.12 330.44 C0.04 330.4 0 330.33 0 330.24 L0 321.67 C0
							 321.59 0.04 321.52 0.12 321.48 C0.18 321.44 0.27 321.44 0.34 321.48 L7.75 325.75 C7.82 325.79 7.86 325.86
							 7.86 325.95 L7.86 334.52 C7.86 334.6 7.82 334.67 7.75 334.71 C7.71 334.73 7.67 334.74 7.64 334.74 Z"
						class="st8"/>
			</g>
			<g id="shape67-53" v:mID="67" v:groupContext="shape" transform="translate(35.6643,-13.8262)">
				<title>Sheet.67</title>
				<path d="M0.23 334.74 C0.18 334.74 0.15 334.73 0.11 334.71 C0.04 334.67 0 334.6 0 334.51 L0 326 C0 325.92 0.04 325.84
							 0.11 325.8 L7.52 321.54 C7.59 321.5 7.67 321.5 7.74 321.54 C7.81 321.58 7.85 321.65 7.85 321.73 L7.85
							 330.24 C7.85 330.33 7.81 330.4 7.74 330.44 L0.33 334.71 C0.3 334.73 0.26 334.74 0.23 334.74 Z"
						class="st9"/>
			</g>
		</g>
		<g id="group68-55" transform="translate(149.688,-264.412)" v:mID="68" v:groupContext="group">
			<title>Sheet.68</title>
			<g id="shape69-56" v:mID="69" v:groupContext="shape">
				<title>Sheet.69</title>
				<path d="M0 333.23 C0 334.06 0.67 334.74 1.51 334.74 L35.99 334.74 C36.83 334.74 37.5 334.06 37.5 333.23 L37.5 309.74
							 L0 309.74 L0 333.23 Z" class="st6"/>
			</g>
			<g id="shape70-58" v:mID="70" v:groupContext="shape" transform="translate(0,-22.5)">
				<title>Sheet.70</title>
				<path d="M35.99 325.26 L1.51 325.26 C0.67 325.26 0 325.94 0 326.77 L0 334.74 L37.5 334.74 L37.5 326.77 C37.5 325.94
							 36.83 325.26 35.99 325.26 Z" class="st1"/>
			</g>
			<g id="shape71-60" v:mID="71" v:groupContext="shape" transform="translate(0.00525,0)">
				<title>Sheet.71</title>
				<path d="M1.51 302.76 C0.67 302.76 0 303.44 0 304.27 L0 309.74 L0 312.24 L0 333.23 C0 334.06 0.67 334.74 1.51 334.74
							 L3.15 334.74 L32.71 302.76 L1.51 302.76 Z" class="st5"/>
			</g>
			<g id="shape72-62" v:mID="72" v:groupContext="shape" transform="translate(9.64275,-25.4348)">
				<title>Sheet.72</title>
				<rect x="0" y="331.782" width="25.2533" height="2.9565" class="st4"/>
			</g>
			<g id="shape73-64" v:mID="73" v:groupContext="shape" transform="translate(1.1655,-23.3047)">
				<title>Sheet.73</title>
				<path d="M7.32 331.08 C7.32 333.1 5.68 334.74 3.66 334.74 C1.64 334.74 0 333.1 0 331.08 C0 329.06 1.64 327.42 3.66
							 327.42 C5.68 327.42 7.32 329.06 7.32 331.08 Z" class="st6"/>
			</g>
			<g id="shape74-66" v:mID="74" v:groupContext="shape" transform="translate(2.97675,-24.7995)">
				<title>Sheet.74</title>
				<path d="M1.46 332.99 L3.12 334.74 L2.22 334.74 L0 332.62 L2.21 330.51 L3.11 330.51 L1.46 332.25 L5.51 332.25 L5.51
							 332.99 L1.46 332.99 Z" class="st4"/>
			</g>
			<g id="shape75-68" v:mID="75" v:groupContext="shape" transform="translate(9.80925,-6.45975)">
				<title>Sheet.75</title>
				<path d="M3.26 333.28 C3.26 333.71 3.11 334.06 2.8 334.33 C2.5 334.6 2.1 334.74 1.6 334.74 C1.15 334.74 0.78 334.6
							 0.47 334.32 C0.16 334.04 0 333.7 0 333.28 C0 332.86 0.16 332.51 0.47 332.24 C0.78 331.97 1.17 331.84
							 1.64 331.84 C2.1 331.84 2.48 331.98 2.79 332.25 C3.11 332.53 3.26 332.87 3.26 333.28 Z" class="st4"/>
			</g>
			<g id="shape76-70" v:mID="76" v:groupContext="shape" transform="translate(16.4873,-6.45975)">
				<title>Sheet.76</title>
				<path d="M3.26 333.28 C3.26 333.71 3.11 334.06 2.8 334.33 C2.5 334.6 2.1 334.74 1.6 334.74 C1.15 334.74 0.78 334.6
							 0.47 334.32 C0.16 334.04 0 333.7 0 333.28 C0 332.86 0.16 332.51 0.47 332.24 C0.78 331.97 1.17 331.84
							 1.64 331.84 C2.1 331.84 2.48 331.98 2.79 332.25 C3.11 332.53 3.26 332.87 3.26 333.28 Z" class="st4"/>
			</g>
			<g id="shape77-72" v:mID="77" v:groupContext="shape" transform="translate(23.1645,-6.45975)">
				<title>Sheet.77</title>
				<path d="M3.26 333.28 C3.26 333.71 3.11 334.06 2.8 334.33 C2.5 334.6 2.1 334.74 1.6 334.74 C1.15 334.74 0.78 334.6
							 0.47 334.32 C0.16 334.04 0 333.7 0 333.28 C0 332.86 0.16 332.51 0.47 332.24 C0.78 331.97 1.17 331.84
							 1.64 331.84 C2.1 331.84 2.48 331.98 2.79 332.25 C3.1 332.53 3.26 332.87 3.26 333.28 Z" class="st4"/>
			</g>
		</g>
		<g id="shape115-74" v:mID="115" v:groupContext="shape" transform="translate(227.688,-10.4883)">
			<title>Virtual Network Box.10</title>
			<path d="M0 334.74 L297 334.74 L297 10.74 L0 10.74 L0 334.74 Z" class="st10"/>
		</g>
		<g id="group116-76" transform="translate(476.995,-13.0514)" v:mID="116" v:groupContext="group">
			<title>Virtual Network (VNet)</title>
			<g id="shape117-77" v:mID="117" v:groupContext="shape" transform="translate(25.5208,0)">
				<title>Sheet.117</title>
				<path d="M11.61 324.47 C11.98 324.1 11.9 323.5 11.61 323.13 L9.82 321.35 L1.79 313.53 C1.41 313.16 0.89 313.16 0.52
							 313.53 C0.15 313.9 0.07 314.5 0.52 314.87 L8.93 323.13 C9.3 323.5 9.3 324.1 8.93 324.47 L0.37 333.03
							 C0 333.4 0 333.99 0.37 334.37 C0.74 334.74 1.34 334.66 1.64 334.37 L9.6 326.48 C9.6 326.48 9.6 326.48
							 9.67 326.4 L11.61 324.47 Z" class="st11"/>
			</g>
			<g id="shape118-79" v:mID="118" v:groupContext="shape">
				<title>Sheet.118</title>
				<path d="M0.37 324.47 C0 324.1 0.07 323.5 0.37 323.13 L2.16 321.35 L10.19 313.53 C10.57 313.16 11.09 313.16 11.46
							 313.53 C11.83 313.9 11.9 314.5 11.46 314.87 L3.2 323.13 C2.83 323.5 2.83 324.1 3.2 324.47 L11.61 333.03
							 C11.98 333.4 11.98 333.99 11.61 334.37 C11.24 334.74 10.64 334.66 10.34 334.37 L2.23 326.55 C2.23 326.55
							 2.23 326.55 2.16 326.48 L0.37 324.47 Z" class="st11"/>
			</g>
			<g id="shape119-81" v:mID="119" v:groupContext="shape" transform="translate(8.63095,-8.48214)">
				<title>Sheet.119</title>
				<path d="M5.06 332.28 C5.06 333.7 3.87 334.74 2.6 334.74 C1.34 334.74 0 333.55 0 332.28 C0 331.02 1.04 329.83 2.6
							 329.83 C4.09 329.83 5.06 331.02 5.06 332.28 Z" class="st12"/>
			</g>
			<g id="shape120-83" v:mID="120" v:groupContext="shape" transform="translate(16.1458,-8.48214)">
				<title>Sheet.120</title>
				<path d="M5.06 332.28 C5.06 333.7 3.87 334.74 2.6 334.74 C1.34 334.74 0 333.55 0 332.28 C0 331.02 1.19 329.83 2.6
							 329.83 C4.02 329.83 5.06 331.02 5.06 332.28 Z" class="st12"/>
			</g>
			<g id="shape121-85" v:mID="121" v:groupContext="shape" transform="translate(23.8839,-8.48214)">
				<title>Sheet.121</title>
				<ellipse cx="2.45536" cy="332.283" rx="2.45536" ry="2.45536" class="st12"/>
			</g>
		</g>
		<g id="group122-87" transform="translate(552.887,-67.8014)" v:mID="122" v:groupContext="group">
			<title>Sheet.122</title>
			<g id="shape123-88" v:mID="123" v:groupContext="shape" transform="translate(6.74925,1.13687E-13)">
				<title>Sheet.123</title>
				<path d="M18 327.24 L17.09 327.24 L8.17 327.24 L7.7 327.24 C8.94 331.74 7.28 332.38 0 332.38 L0 334.74 L9.26 334.74
							 L16.01 334.74 L24.75 334.74 L24.75 332.38 C17.47 332.38 16.76 331.74 18 327.24 L18 327.24 Z"
						class="st13"/>
				<path d="M18 327.24 L17.09 327.24 L8.17 327.24 L7.7 327.24 C8.94 331.74 7.28 332.38 0 332.38 L0 334.74 L9.26 334.74
							 L16.01 334.74 L24.75 334.74 L24.75 332.38 C17.47 332.38 16.76 331.74 18 327.24" class="st14"/>
			</g>
			<g id="shape124-91" v:mID="124" v:groupContext="shape" transform="translate(0.00075,-6.75075)">
				<title>Sheet.124</title>
				<path d="M35.23 306.99 L2.04 306.99 C0.91 306.99 0 308 0 309.12 L0 332.62 C0 333.74 0.91 334.74 2.04 334.74 L35.23
							 334.74 C36.36 334.74 37.5 333.74 37.5 332.62 L37.5 309.12 C37.5 307.99 36.36 306.99 35.23 306.99 Z"
						class="st1"/>
			</g>
			<g id="shape125-93" v:mID="125" v:groupContext="shape" transform="translate(0,-6.75)">
				<title>Sheet.125</title>
				<path d="M35.26 306.99 C35.25 306.99 35.24 306.99 35.23 306.99 L2.04 306.99 C0.91 306.99 0 308 0 309.12 L0 332.62
							 C0 333.74 0.91 334.74 2.04 334.74 L2.83 334.74 L35.26 306.99 Z" class="st5"/>
			</g>
			<g id="shape126-95" v:mID="126" v:groupContext="shape" transform="translate(2.99925,-9.75)">
				<title>Sheet.126</title>
				<rect x="0" y="312.988" width="31.5" height="21.75" class="st6"/>
			</g>
			<g id="shape127-97" v:mID="127" v:groupContext="shape" transform="translate(6.74925,0)">
				<title>Sheet.127</title>
				<rect x="0" y="332.488" width="24.75" height="2.25" class="st1"/>
			</g>
			<g id="shape128-99" v:mID="128" v:groupContext="shape" transform="translate(18.0735,-32.3963)">
				<title>Sheet.128</title>
				<path d="M1.06 334.21 C1.06 334.5 0.83 334.74 0.53 334.74 C0.24 334.74 0 334.5 0 334.21 C0 333.91 0.24 333.67 0.53
							 333.67 C0.83 333.67 1.06 333.91 1.06 334.21 Z" class="st7"/>
			</g>
			<g id="shape129-101" v:mID="129" v:groupContext="shape" transform="translate(11.2492,-12.75)">
				<title>Sheet.129</title>
				<path d="M15.33 334.74 L0.62 333.55 C0.27 333.52 0 333.23 0 332.88 L0 321.59 C0 321.25 0.27 320.95 0.62 320.92 C0.62
							 320.92 15.33 319.74 15.33 319.74 C15.75 319.74 16.05 320.04 16.05 320.41 L16.05 334.07 C16.05 334.25
							 15.98 334.42 15.85 334.54 C15.73 334.67 15.56 334.74 15.38 334.74 L15.33 334.74 Z" class="st15"/>
			</g>
			<g id="shape130-103" v:mID="130" v:groupContext="shape" transform="translate(19.275,-20.7758)">
				<title>Sheet.130</title>
				<path d="M0 329.03 L0 334.74 L7.35 334.74 L7.35 328.43 L0 329.03 Z" class="st16"/>
			</g>
			<g id="shape131-105" v:mID="131" v:groupContext="shape" transform="translate(11.9212,-20.7758)">
				<title>Sheet.131</title>
				<path d="M0 329.62 L0 334.74 L6.3 334.74 L6.3 329.11 L0 329.62 Z" class="st16"/>
			</g>
			<g id="shape132-107" v:mID="132" v:groupContext="shape" transform="translate(19.275,-13.4228)">
				<title>Sheet.132</title>
				<path d="M0 334.15 L0 328.44 L7.35 328.44 L7.35 334.74 L0 334.15 Z" class="st16"/>
			</g>
			<g id="shape133-109" v:mID="133" v:groupContext="shape" transform="translate(11.9212,-14.0993)">
				<title>Sheet.133</title>
				<path d="M0 334.23 L0 329.11 L6.3 329.11 L6.3 334.74 L0 334.23 Z" class="st16"/>
			</g>
		</g>
		<g id="group134-111" transform="translate(455.688,-61.0514)" v:mID="134" v:groupContext="group">
			<title>Sheet.134</title>
			<g id="shape135-112" v:mID="135" v:groupContext="shape" transform="translate(20.8003,-43.2)">
				<title>Sheet.135</title>
				<rect x="0" y="329.938" width="6.40032" height="4.8" class="st6"/>
			</g>
			<g id="shape136-114" v:mID="136" v:groupContext="shape" transform="translate(11.2003,-43.2)">
				<title>Sheet.136</title>
				<rect x="0" y="329.938" width="6.40032" height="4.8" class="st6"/>
			</g>
			<g id="shape137-116" v:mID="137" v:groupContext="shape" transform="translate(40.0003,0)">
				<title>Sheet.137</title>
				<path d="M3.2 329.94 L0 329.94 L0 334.74 L4.8 334.74 C6.57 334.74 8 333.3 8 331.54 L8 326.74 L3.2 326.74 L3.2 329.94
							 Z" class="st6"/>
			</g>
			<g id="shape138-118" v:mID="138" v:groupContext="shape" transform="translate(0,-11.1994)">
				<title>Sheet.138</title>
				<rect x="0" y="328.338" width="4.8" height="6.40032" class="st6"/>
			</g>
			<g id="shape139-120" v:mID="139" v:groupContext="shape" transform="translate(20.8003,0)">
				<title>Sheet.139</title>
				<rect x="0" y="329.938" width="6.40032" height="4.8" class="st6"/>
			</g>
			<g id="shape140-122" v:mID="140" v:groupContext="shape" transform="translate(43.2,-11.1994)">
				<title>Sheet.140</title>
				<rect x="0" y="328.338" width="4.8" height="6.40032" class="st6"/>
			</g>
			<g id="shape141-124" v:mID="141" v:groupContext="shape" transform="translate(30.4003,0)">
				<title>Sheet.141</title>
				<rect x="0" y="329.938" width="6.40032" height="4.8" class="st6"/>
			</g>
			<g id="shape142-126" v:mID="142" v:groupContext="shape" transform="translate(11.2003,0)">
				<title>Sheet.142</title>
				<rect x="0" y="329.938" width="6.40032" height="4.8" class="st6"/>
			</g>
			<g id="shape143-128" v:mID="143" v:groupContext="shape">
				<title>Sheet.143</title>
				<path d="M4.8 329.94 L4.8 326.74 L0 326.74 L0 331.54 C0 333.31 1.43 334.74 3.2 334.74 L8 334.74 L8 329.94 L4.8 329.94
							 Z" class="st6"/>
			</g>
			<g id="shape144-130" v:mID="144" v:groupContext="shape" transform="translate(0,-30.3994)">
				<title>Sheet.144</title>
				<rect x="0" y="328.338" width="4.8" height="6.40032" class="st6"/>
			</g>
			<g id="shape145-132" v:mID="145" v:groupContext="shape" transform="translate(0,-40.0003)">
				<title>Sheet.145</title>
				<path d="M4.8 331.54 L8 331.54 L8 326.74 L3.2 326.74 C1.43 326.74 0 328.17 0 329.94 L0 334.74 L4.8 334.74 L4.8 331.54
							 Z" class="st6"/>
			</g>
			<g id="shape146-134" v:mID="146" v:groupContext="shape" transform="translate(0,-20.7994)">
				<title>Sheet.146</title>
				<rect x="0" y="328.338" width="4.8" height="6.40032" class="st6"/>
			</g>
			<g id="shape147-136" v:mID="147" v:groupContext="shape" transform="translate(43.2,-20.7994)">
				<title>Sheet.147</title>
				<rect x="0" y="328.338" width="4.8" height="6.40032" class="st6"/>
			</g>
			<g id="shape148-138" v:mID="148" v:groupContext="shape" transform="translate(43.2,-30.4003)">
				<title>Sheet.148</title>
				<rect x="0" y="328.338" width="4.8" height="6.40032" class="st6"/>
			</g>
			<g id="shape149-140" v:mID="149" v:groupContext="shape" transform="translate(30.3994,-43.2)">
				<title>Sheet.149</title>
				<rect x="0" y="329.938" width="6.40032" height="4.8" class="st6"/>
			</g>
			<g id="shape150-142" v:mID="150" v:groupContext="shape" transform="translate(40.0003,-40.0003)">
				<title>Sheet.150</title>
				<path d="M3.2 331.54 L3.2 334.74 L8 334.74 L8 329.94 C8 328.17 6.57 326.74 4.8 326.74 L0 326.74 L0 331.54 L3.2 331.54
							 Z" class="st6"/>
			</g>
			<g id="shape151-144" v:mID="151" v:groupContext="shape" transform="translate(8.05536,-19.3142)">
				<title>Sheet.151</title>
				<path d="M25.86 314.65 L1.5 314.65 C0.67 314.65 0 315.39 0 316.22 L0 333.19 C0 334.01 0.67 334.74 1.5 334.74 L25.86
							 334.74 C26.69 334.74 27.52 334.01 27.52 333.19 L27.52 316.22 C27.52 315.39 26.69 314.65 25.86 314.65
							 Z" class="st1"/>
			</g>
			<g id="shape152-146" v:mID="152" v:groupContext="shape" transform="translate(8.05536,-19.3152)">
				<title>Sheet.152</title>
				<path d="M25.88 314.66 C25.87 314.66 25.87 314.65 25.86 314.65 L1.5 314.65 C0.67 314.65 0 315.39 0 316.22 L0 333.19
							 C0 334.01 0.67 334.74 1.5 334.74 L2.08 334.74 L25.88 314.66 Z" class="st5"/>
			</g>
			<g id="shape153-148" v:mID="153" v:groupContext="shape" transform="translate(10.1414,-21.4291)">
				<title>Sheet.153</title>
				<path d="M23.34 334.74 L0 334.74 L0 318.88 L23.34 318.85 L23.34 334.74 Z" class="st6"/>
			</g>
			<g id="shape154-150" v:mID="154" v:groupContext="shape" transform="translate(21.3206,-37.8576)">
				<title>Sheet.154</title>
				<path d="M0.78 334.35 C0.78 334.56 0.61 334.74 0.39 334.74 C0.17 334.74 0 334.56 0 334.35 C0 334.13 0.17 333.96 0.39
							 333.96 C0.61 333.96 0.78 334.13 0.78 334.35 Z" class="st7"/>
			</g>
			<g id="shape155-152" v:mID="155" v:groupContext="shape" transform="translate(17.1245,-29.8378)">
				<title>Sheet.155</title>
				<path d="M4.99 334.74 C4.97 334.74 4.94 334.73 4.92 334.72 L0.07 331.92 C0.03 331.9 0 331.85 0 331.8 C0 331.74 0.03
							 331.7 0.07 331.67 L4.89 328.89 C4.93 328.87 4.99 328.87 5.03 328.89 L9.88 331.69 C9.93 331.72 9.95 331.77
							 9.95 331.82 C9.95 331.87 9.93 331.92 9.88 331.94 L5.07 334.72 C5.04 334.73 5.02 334.74 4.99 334.74 Z"
						class="st4"/>
			</g>
			<g id="shape156-154" v:mID="156" v:groupContext="shape" transform="translate(17.185,-8.60064)">
				<title>Sheet.156</title>
				<path d="M13.08 329.45 L12.43 329.45 L5.94 329.45 L5.6 329.45 C6.5 332.62 5.29 333.08 0 333.08 L0 334.74 L6.73 334.74
							 L11.64 334.74 L18 334.74 L18 333.08 C12.7 333.08 12.18 332.63 13.08 329.45 Z" class="st2"/>
			</g>
			<g id="shape157-156" v:mID="157" v:groupContext="shape" transform="translate(12.4224,-13.8854)">
				<title>Sheet.157</title>
				<path d="M25.86 314.65 L1.5 314.65 C0.67 314.65 0 315.39 0 316.22 L0 333.19 C0 334.01 0.67 334.74 1.5 334.74 L25.86
							 334.74 C26.69 334.74 27.52 334.01 27.52 333.19 L27.52 316.22 C27.52 315.39 26.69 314.65 25.86 314.65
							 Z" class="st1"/>
			</g>
			<g id="shape158-158" v:mID="158" v:groupContext="shape" transform="translate(12.4214,-13.8864)">
				<title>Sheet.158</title>
				<path d="M25.88 314.66 C25.87 314.66 25.87 314.65 25.86 314.65 L1.5 314.65 C0.67 314.65 0 315.39 0 316.22 L0 333.19
							 C0 334.01 0.67 334.74 1.5 334.74 L2.08 334.74 L25.88 314.66 Z" class="st5"/>
			</g>
			<g id="shape159-160" v:mID="159" v:groupContext="shape" transform="translate(14.5075,-16.0003)">
				<title>Sheet.159</title>
				<path d="M23.34 334.74 L0 334.74 L0 318.88 L23.34 318.85 L23.34 334.74 Z" class="st6"/>
			</g>
			<g id="shape160-162" v:mID="160" v:groupContext="shape" transform="translate(17.185,-8.60064)">
				<title>Sheet.160</title>
				<rect x="0" y="333.077" width="17.9952" height="1.6608" class="st1"/>
			</g>
			<g id="shape161-164" v:mID="161" v:groupContext="shape" transform="translate(25.6877,-32.4288)">
				<title>Sheet.161</title>
				<path d="M0.78 334.35 C0.78 334.56 0.61 334.74 0.39 334.74 C0.17 334.74 0 334.56 0 334.35 C0 334.13 0.17 333.96 0.39
							 333.96 C0.61 333.96 0.78 334.13 0.78 334.35 Z" class="st7"/>
			</g>
			<g id="shape162-166" v:mID="162" v:groupContext="shape" transform="translate(21.4906,-24.408)">
				<title>Sheet.162</title>
				<path d="M4.99 334.74 C4.97 334.74 4.94 334.73 4.92 334.72 L0.07 331.92 C0.03 331.9 0 331.85 0 331.8 C0 331.74 0.03
							 331.7 0.07 331.67 L4.89 328.89 C4.93 328.87 4.99 328.87 5.03 328.89 L9.88 331.69 C9.93 331.72 9.95 331.77
							 9.95 331.82 C9.95 331.87 9.93 331.92 9.88 331.94 L5.07 334.72 C5.04 334.73 5.02 334.74 4.99 334.74 Z"
						class="st4"/>
			</g>
			<g id="shape163-168" v:mID="163" v:groupContext="shape" transform="translate(20.8061,-17.6179)">
				<title>Sheet.163</title>
				<path d="M4.98 334.74 C4.95 334.74 4.93 334.73 4.91 334.72 L0.07 331.93 C0.03 331.91 0 331.86 0 331.81 L0 326.22
							 C0 326.17 0.03 326.12 0.07 326.09 C0.12 326.06 0.17 326.06 0.22 326.09 L5.05 328.88 C5.1 328.9 5.13
							 328.95 5.13 329 L5.13 334.59 C5.13 334.65 5.1 334.69 5.05 334.72 C5.03 334.73 5 334.74 4.98 334.74 Z"
						class="st8"/>
			</g>
			<g id="shape164-170" v:mID="164" v:groupContext="shape" transform="translate(27.0086,-17.6179)">
				<title>Sheet.164</title>
				<path d="M0.15 334.74 C0.12 334.74 0.1 334.73 0.07 334.72 C0.03 334.69 0 334.65 0 334.59 L0 329.04 C0 328.99 0.03
							 328.94 0.07 328.91 L4.9 326.13 C4.95 326.1 5 326.1 5.05 326.13 C5.09 326.15 5.12 326.2 5.12 326.25 L5.12
							 331.81 C5.12 331.86 5.09 331.91 5.05 331.94 L0.22 334.72 C0.2 334.73 0.17 334.74 0.15 334.74 Z"
						class="st9"/>
			</g>
		</g>
		<g id="shape165-172" v:mID="165" v:groupContext="shape" transform="translate(83.6875,-154.488)">
			<title>Affinity group</title>
			<desc>Deployed Resource Group</desc>
			<v:textBlock v:margins="rect(4,4,4,4)" v:verticalAlign="2"/>
			<v:textRect cx="301.5" cy="249.238" width="603.01" height="171"/>
			<path d="M0 334.74 L603 334.74 L603 163.74 L0 163.74 L0 334.74 Z" class="st17"/>
			<text x="4" y="328.04" class="st18" v:langID="1033"><v:paragraph/><v:tabList/>Deployed Resource Group</text>		</g>
		<g id="shape166-175" v:mID="166" v:groupContext="shape" transform="translate(529.803,-10.4883)">
			<title>Virtual Network Box.166</title>
			<path d="M0 334.74 L154.19 334.74 L154.19 224.61 L0 224.61 L0 334.74 Z" class="st10"/>
		</g>
		<g id="group167-177" transform="translate(638.995,-12.1199)" v:mID="167" v:groupContext="group">
			<title>Virtual Network (VNet).167</title>
			<g id="shape168-178" v:mID="168" v:groupContext="shape" transform="translate(25.5208,0)">
				<title>Sheet.168</title>
				<path d="M11.61 324.47 C11.98 324.1 11.9 323.5 11.61 323.13 L9.82 321.35 L1.79 313.53 C1.41 313.16 0.89 313.16 0.52
							 313.53 C0.15 313.9 0.07 314.5 0.52 314.87 L8.93 323.13 C9.3 323.5 9.3 324.1 8.93 324.47 L0.37 333.03
							 C0 333.4 0 333.99 0.37 334.37 C0.74 334.74 1.34 334.66 1.64 334.37 L9.6 326.48 C9.6 326.48 9.6 326.48
							 9.67 326.4 L11.61 324.47 Z" class="st11"/>
			</g>
			<g id="shape169-180" v:mID="169" v:groupContext="shape">
				<title>Sheet.169</title>
				<path d="M0.37 324.47 C0 324.1 0.07 323.5 0.37 323.13 L2.16 321.35 L10.19 313.53 C10.57 313.16 11.09 313.16 11.46
							 313.53 C11.83 313.9 11.9 314.5 11.46 314.87 L3.2 323.13 C2.83 323.5 2.83 324.1 3.2 324.47 L11.61 333.03
							 C11.98 333.4 11.98 333.99 11.61 334.37 C11.24 334.74 10.64 334.66 10.34 334.37 L2.23 326.55 C2.23 326.55
							 2.23 326.55 2.16 326.48 L0.37 324.47 Z" class="st11"/>
			</g>
			<g id="shape170-182" v:mID="170" v:groupContext="shape" transform="translate(8.63095,-8.48214)">
				<title>Sheet.170</title>
				<path d="M5.06 332.28 C5.06 333.7 3.87 334.74 2.6 334.74 C1.34 334.74 0 333.55 0 332.28 C0 331.02 1.04 329.83 2.6
							 329.83 C4.09 329.83 5.06 331.02 5.06 332.28 Z" class="st12"/>
			</g>
			<g id="shape171-184" v:mID="171" v:groupContext="shape" transform="translate(16.1458,-8.48214)">
				<title>Sheet.171</title>
				<path d="M5.06 332.28 C5.06 333.7 3.87 334.74 2.6 334.74 C1.34 334.74 0 333.55 0 332.28 C0 331.02 1.19 329.83 2.6
							 329.83 C4.02 329.83 5.06 331.02 5.06 332.28 Z" class="st12"/>
			</g>
			<g id="shape172-186" v:mID="172" v:groupContext="shape" transform="translate(23.8839,-8.48214)">
				<title>Sheet.172</title>
				<ellipse cx="2.45536" cy="332.283" rx="2.45536" ry="2.45536" class="st12"/>
			</g>
		</g>
		<g id="shape1003-188" v:mID="1003" v:groupContext="shape" transform="translate(133.616,388.988) rotate(180)">
			<title>Sheet.1003</title>
			<path d="M0 334.74 L68.95 334.74" class="st19"/>
		</g>
		<g id="shape1004-194" v:mID="1004" v:groupContext="shape" transform="translate(272.688,388.988) rotate(180)">
			<title>Sheet.1004</title>
			<path d="M0 334.74 L68.73 334.74" class="st19"/>
		</g>
		<g id="shape1005-199" v:mID="1005" v:groupContext="shape" transform="translate(398.688,388.988) rotate(180)">
			<title>Sheet.1005</title>
			<path d="M0 334.74 L46.02 334.74" class="st19"/>
		</g>
		<g id="shape1006-204" v:mID="1006" v:groupContext="shape" transform="translate(756.861,-89.1759) rotate(59.394)">
			<title>Sheet.1006</title>
			<path d="M0 334.74 L157.83 334.74" class="st21"/>
		</g>
		<g id="shape1007-210" v:mID="1007" v:groupContext="shape" transform="translate(0.25,-264.412)">
			<title>Sheet.1007</title>
			<desc>Internet Egress</desc>
			<v:textBlock v:margins="rect(4,4,4,4)"/>
			<v:textRect cx="26.7187" cy="318.751" width="53.44" height="31.9755"/>
			<rect x="0" y="302.763" width="53.4375" height="31.9755" class="st23"/>
			<text x="5.9" y="315.15" class="st24" v:langID="1033"><v:paragraph v:horizAlign="1"/><v:tabList/>Internet <tspan
						x="9.83" dy="1.2em" class="st25">Egress</tspan></text>		</g>
		<g id="shape1008-214" v:mID="1008" v:groupContext="shape" transform="translate(470.259,-280.488)">
			<title>Sheet.1008</title>
			<path d="M0 334.74 L75.95 334.74" class="st26"/>
		</g>
		<g id="shape1009-220" v:mID="1009" v:groupContext="shape" transform="translate(778.686,37.1419) rotate(80.8711)">
			<title>Sheet.1009</title>
			<path d="M0 334.74 L118.82 334.74" class="st26"/>
		</g>
		<g id="shape1011-225" v:mID="1011" v:groupContext="shape" transform="translate(138.79,-247.488)">
			<title>Sheet.1011</title>
			<desc>Public IP</desc>
			<v:textBlock v:margins="rect(4,4,4,4)"/>
			<v:textRect cx="29.6471" cy="325.738" width="59.3" height="18"/>
			<rect x="0" y="316.738" width="59.2941" height="18" class="st28"/>
			<text x="10.85" y="328.74" class="st29" v:langID="1033"><v:paragraph v:horizAlign="1"/><v:tabList/>Public IP</text>		</g>
		<g id="shape1012-228" v:mID="1012" v:groupContext="shape" transform="translate(270.04,-219.799)">
			<title>Sheet.1012</title>
			<desc>Standard External Load Balancer</desc>
			<v:textBlock v:margins="rect(4,4,4,4)"/>
			<v:textRect cx="38.6471" cy="318.751" width="77.3" height="31.9755"/>
			<rect x="0" y="302.763" width="77.2941" height="31.9755" class="st28"/>
			<text x="20.74" y="310.65" class="st30" v:langID="1033"><v:paragraph v:horizAlign="1"/><v:tabList/>Standard <tspan
						x="12.01" dy="1.2em" class="st25">External Load </tspan><tspan x="21.86" dy="1.2em" class="st25">Balancer</tspan></text>		</g>
		<g id="shape1013-233" v:mID="1013" v:groupContext="shape" transform="translate(542.688,-235.488)">
			<title>Sheet.1013</title>
			<desc>Blob Storage (Session Keys)</desc>
			<v:textBlock v:margins="rect(4,4,4,4)"/>
			<v:textRect cx="38.6471" cy="325.738" width="77.3" height="18"/>
			<rect x="0" y="316.738" width="77.2941" height="18" class="st28"/>
			<text x="10.21" y="322.74" class="st29" v:langID="1033"><v:paragraph v:horizAlign="1"/><v:tabList/>Blob Storage <tspan
						x="7.72" dy="1.2em" class="st25">(Session Keys)</tspan></text>		</g>
		<g id="shape1016-237" v:mID="1016" v:groupContext="shape" transform="translate(447.393,-302.345)">
			<title>Sheet.1016</title>
			<desc>VM Scale Set</desc>
			<v:textBlock v:margins="rect(4,4,4,4)"/>
			<v:textRect cx="38.6471" cy="325.738" width="77.3" height="18"/>
			<rect x="0" y="316.738" width="77.2941" height="18" class="st28"/>
			<text x="10.01" y="328.74" class="st29" v:langID="1033"><v:paragraph v:horizAlign="1"/><v:tabList/>VM Scale Set</text>		</g>
		<g id="shape1017-240" v:mID="1017" v:groupContext="shape" transform="translate(353.688,-61.0514)">
			<title>Sheet.1017</title>
			<desc>Pre-existing Highly Available AD DS Infrastructure</desc>
			<v:textBlock v:margins="rect(4,4,4,4)"/>
			<v:textRect cx="47.25" cy="310.963" width="94.5" height="47.5505"/>
			<rect x="0" y="287.188" width="94.5" height="47.5505" class="st28"/>
			<text x="5.64" y="301.96" class="st29" v:langID="1033"><v:paragraph v:horizAlign="1"/><v:tabList/>Pre-existing Highly <tspan
						x="11.72" dy="1.2em" class="st25">Available AD DS </tspan><tspan x="17.67" dy="1.2em" class="st25">Infrastructure</tspan></text>		</g>
		<g id="shape1018-245" v:mID="1018" v:groupContext="shape" transform="translate(592.188,-61.2761)">
			<title>Sheet.1018</title>
			<desc>Pre-existing Application Server using WIA</desc>
			<v:textBlock v:margins="rect(4,4,4,4)"/>
			<v:textRect cx="47.25" cy="310.963" width="94.5" height="47.5505"/>
			<rect x="0" y="287.188" width="94.5" height="47.5505" class="st28"/>
			<text x="21.18" y="301.96" class="st29" v:langID="1033"><v:paragraph v:horizAlign="1"/><v:tabList/>Pre-existing <tspan
						x="7.08" dy="1.2em" class="st25">Application Server </tspan><tspan x="24.72" dy="1.2em" class="st25">using WIA</tspan></text>		</g>
		<g id="group1019-250" transform="translate(284.688,-256.399)" v:mID="1019" v:groupContext="group">
			<title>Load Balancer.1019</title>
			<g id="shape1020-251" v:mID="1020" v:groupContext="shape">
				<title>Sheet.1020</title>
				<path d="M24 334.74 C22.82 334.74 21.7 334.28 20.87 333.44 L1.3 313.87 C0.47 313.04 0 311.9 0 310.74 C0 309.57 0.47
							 308.43 1.3 307.61 L20.87 288.04 C21.71 287.2 22.82 286.74 24 286.74 C25.18 286.74 26.3 287.2 27.13 288.04
							 L46.7 307.61 C47.54 308.44 48 309.55 48 310.74 C48 311.92 47.54 313.03 46.7 313.87 L27.13 333.44 C26.3
							 334.28 25.18 334.74 24 334.74 Z" class="st12"/>
			</g>
			<g id="shape1021-253" v:mID="1021" v:groupContext="shape" transform="translate(4.21152,-4.98432)">
				<title>Sheet.1021</title>
				<path d="M39.58 315.4 L33.23 309.05 L33.23 313.53 L26.49 313.52 C25.84 311.2 24.02 309.37 21.71 308.7 L21.71 302.28
							 L26.14 302.28 L19.79 295.93 L13.44 302.28 L17.87 302.28 L17.87 308.7 C15.56 309.37 13.74 311.2 13.09
							 313.51 L6.35 313.51 L6.35 309.07 L0 315.42 L6.35 321.77 L6.35 317.29 L13.09 317.29 C13.75 319.6 15.56
							 321.43 17.87 322.09 L17.87 326.54 C16.91 327.24 15.44 328.71 15.44 330.42 C15.44 332.8 17.39 334.74
							 19.78 334.74 C22.16 334.74 24.1 332.8 24.1 330.42 C24.1 328.73 22.67 327.28 21.71 326.57 L21.71 322.09
							 C24.01 321.43 25.83 319.61 26.48 317.31 L33.23 317.31 L33.23 321.74 L39.58 315.4 Z" class="st31"/>
			</g>
			<g id="shape1022-255" v:mID="1022" v:groupContext="shape" transform="translate(18.9523,-19.2787)">
				<title>Sheet.1022</title>
				<path d="M5.05 324.64 C2.26 324.64 0 326.91 0 329.69 C0 332.47 2.26 334.74 5.05 334.74 C7.83 334.74 10.1 332.47 10.1
							 329.69 C10.1 326.91 7.83 324.64 5.05 324.64 Z" class="st32"/>
			</g>
			<g id="shape1023-257" v:mID="1023" v:groupContext="shape" transform="translate(0,-9.78816)">
				<title>Sheet.1023</title>
				<path d="M27.13 297.82 C26.3 296.99 25.18 296.53 24 296.53 C22.82 296.53 21.71 296.99 20.87 297.82 L1.3 317.4 C0.47
							 318.22 0 319.36 0 320.53 C0 321.69 0.47 322.83 1.3 323.66 L12.38 334.74 L33.23 303.92 L27.13 297.82
							 Z" class="st33"/>
			</g>
		</g>
		<g id="shape1024-259" v:mID="1024" v:groupContext="shape" transform="translate(306.116,-174.501)">
			<title>Sheet.1024</title>
			<desc>Standard Internal Load Balancer</desc>
			<v:textBlock v:margins="rect(4,4,4,4)"/>
			<v:textRect cx="34.875" cy="318.751" width="69.76" height="31.9755"/>
			<rect x="0" y="302.763" width="69.75" height="31.9755" class="st28"/>
			<text x="16.97" y="310.65" class="st30" v:langID="1033"><v:paragraph v:horizAlign="1"/><v:tabList/>Standard <tspan
						x="8.84" dy="1.2em" class="st25">Internal Load </tspan><tspan x="18.08" dy="1.2em" class="st25">Balancer</tspan></text>		</g>
		<g id="group1025-264" transform="translate(371.688,-166.488)" v:mID="1025" v:groupContext="group">
			<title>Load Balancer.1025</title>
			<g id="shape1026-265" v:mID="1026" v:groupContext="shape">
				<title>Sheet.1026</title>
				<path d="M24 334.74 C22.82 334.74 21.7 334.28 20.87 333.44 L1.3 313.87 C0.47 313.04 0 311.9 0 310.74 C0 309.57 0.47
							 308.43 1.3 307.61 L20.87 288.04 C21.71 287.2 22.82 286.74 24 286.74 C25.18 286.74 26.3 287.2 27.13 288.04
							 L46.7 307.61 C47.54 308.44 48 309.55 48 310.74 C48 311.92 47.54 313.03 46.7 313.87 L27.13 333.44 C26.3
							 334.28 25.18 334.74 24 334.74 Z" class="st12"/>
			</g>
			<g id="shape1027-267" v:mID="1027" v:groupContext="shape" transform="translate(4.21152,-4.98432)">
				<title>Sheet.1027</title>
				<path d="M39.58 315.4 L33.23 309.05 L33.23 313.53 L26.49 313.52 C25.84 311.2 24.02 309.37 21.71 308.7 L21.71 302.28
							 L26.14 302.28 L19.79 295.93 L13.44 302.28 L17.87 302.28 L17.87 308.7 C15.56 309.37 13.74 311.2 13.09
							 313.51 L6.35 313.51 L6.35 309.07 L0 315.42 L6.35 321.77 L6.35 317.29 L13.09 317.29 C13.75 319.6 15.56
							 321.43 17.87 322.09 L17.87 326.54 C16.91 327.24 15.44 328.71 15.44 330.42 C15.44 332.8 17.39 334.74
							 19.78 334.74 C22.16 334.74 24.1 332.8 24.1 330.42 C24.1 328.73 22.67 327.28 21.71 326.57 L21.71 322.09
							 C24.01 321.43 25.83 319.61 26.48 317.31 L33.23 317.31 L33.23 321.74 L39.58 315.4 Z" class="st31"/>
			</g>
			<g id="shape1028-269" v:mID="1028" v:groupContext="shape" transform="translate(18.9523,-19.2787)">
				<title>Sheet.1028</title>
				<path d="M5.05 324.64 C2.26 324.64 0 326.91 0 329.69 C0 332.47 2.26 334.74 5.05 334.74 C7.83 334.74 10.1 332.47 10.1
							 329.69 C10.1 326.91 7.83 324.64 5.05 324.64 Z" class="st32"/>
			</g>
			<g id="shape1029-271" v:mID="1029" v:groupContext="shape" transform="translate(0,-9.78816)">
				<title>Sheet.1029</title>
				<path d="M27.13 297.82 C26.3 296.99 25.18 296.53 24 296.53 C22.82 296.53 21.71 296.99 20.87 297.82 L1.3 317.4 C0.47
							 318.22 0 319.36 0 320.53 C0 321.69 0.47 322.83 1.3 323.66 L12.38 334.74 L33.23 303.92 L27.13 297.82
							 Z" class="st33"/>
			</g>
		</g>
		<g id="shape1036-273" v:mID="1036" v:groupContext="shape" transform="translate(251.688,-19.4883)">
			<title>Sheet.1036</title>
			<desc>Pre-existing Virtual Network Gateway</desc>
			<v:textBlock v:margins="rect(4,4,4,4)"/>
			<v:textRect cx="47.25" cy="310.963" width="94.5" height="47.5505"/>
			<rect x="0" y="287.188" width="94.5" height="47.5505" class="st28"/>
			<text x="5.47" y="307.96" class="st29" v:langID="1033"><v:paragraph v:horizAlign="1"/><v:tabList/>Pre-existing Virtual <tspan
						x="8.2" dy="1.2em" class="st25">Network Gateway</tspan></text>		</g>
		<g id="shape1037-277" v:mID="1037" v:groupContext="shape" transform="translate(123.216,-57.5037) rotate(-57.8874)">
			<title>Sheet.1037</title>
			<path d="M0 334.74 L26.16 334.74" class="st21"/>
		</g>
		<g id="shape1038-282" v:mID="1038" v:groupContext="shape" transform="translate(57.9008,23.7059) rotate(-51.5187)">
			<title>Sheet.1038</title>
			<path d="M0 334.74 L82.19 334.74" class="st21"/>
		</g>
		<g id="shape1039-287" v:mID="1039" v:groupContext="shape" transform="translate(200.179,-77.3454)">
			<title>Sheet.1039</title>
			<path d="M0 334.74 L63.03 334.74" class="st21"/>
		</g>
		<g id="shape1040-292" v:mID="1040" v:groupContext="shape" transform="translate(133.793,-60.0719)">
			<title>Sheet.1040</title>
			<desc>Corpnet Ingress</desc>
			<v:textBlock v:margins="rect(4,4,4,4)"/>
			<v:textRect cx="29.6471" cy="318.751" width="59.3" height="31.9755"/>
			<rect x="0" y="302.763" width="59.2941" height="31.9755" class="st34"/>
			<text x="8.24" y="315.15" class="st35" v:langID="1033"><v:paragraph v:horizAlign="1"/><v:tabList/>Corpnet <tspan
						x="10.81" dy="1.2em" class="st25">Ingress</tspan></text>		</g>
	</g>
</svg>
