<?xml version="1.0" encoding="UTF-8"?>
<svg width="99.792mm" height="28.139mm" version="1.1" viewBox="0 0 99.792 28.139" xmlns="http://www.w3.org/2000/svg"><g transform="translate(-4.2243 -57.858)"><g transform="matrix(.26458 0 0 .26458 .61547 36.528)" style="font-feature-settings:normal;font-variant-caps:normal;font-variant-ligatures:normal;font-variant-numeric:normal" aria-label="OAKProxy"><g fill="#784421"><path d="m18.662 185.85c12.16 0.64 24.96 2.08 36.64-1.92 3.36-19.04 3.68-36.8 3.68-54.08 0-15.04-0.8-34.56-6.56-48.16-11.36 0.16-24.16-1.76-35.84-0.32-0.96 16.8-3.36 34.72-2.88 52.32 0.48 16.96 0.96 38.88 4.96 52.16zm19.84-79.36c2.88 15.2 3.68 33.76 2.72 49.6l-8.64 1.28c-4-23.52-2.4-28-2.72-48.48 0-1.12 2.72-1.92 8.64-2.4z"/><path d="m71.04 82.171c-3.36 33.44-6.4 67.84-8.16 104.16 4.32 0.32 9.6-0.32 14.56 0.16 1.28-8.8 1.28-24.96 3.2-33.92l4.32 0.8c2.72 18.72 3.52 27.52 4.8 32.16 5.92 0.16 15.2-0.16 20.32-0.16-3.36-35.68-8.48-67.84-12.64-103.36-6.88-0.64-19.36-0.32-26.4 0.16zm10.88 48.64c0.64-3.04 0.64-16.8 2.24-28.96 2.56 12.16 3.04 18.88 4.32 29.12-1.6 0.96-5.12 0.64-6.56-0.16z"/><path d="m135.29 186.01c0.8-9.76 0.48-28 0.8-40.96l3.36-0.64c1.6 7.68 1.28 27.84 1.44 42.4 5.92 0.16 12.64 0.16 16.32 0.16 1.76-20.48 0.32-38.56-0.64-57.44 0-1.44-1.28-2.56-3.84-3.68-4-1.12-5.28-2.08-5.28-2.4 4.96-12.16 10.56-31.36 14.24-41.92-3.84 0-14.24 0.16-18.4 0.32-2.08 7.04-4.64 18.4-8.96 32.64-0.8-10.08-0.32-23.84-0.96-33.76-4.64 0-14.4-0.64-18.56 1.12-0.16 33.28 2.56 70.56 1.28 104 5.76 0.96 14.4 0.8 19.2 0.16z"/></g><g fill="#0a0"><path d="m205.07 144.89c2.08-15.52 2.4-33.28 2.4-50.08-2.24-6.24-6.24-11.68-15.2-12.96-7.68 0.16-15.36 0.32-23.2 0.32-2.08 31.04-0.64 70.24-0.16 103.52 4.64 0.8 12.16 1.44 16.8-0.48 0-10.88-0.16-17.28 0.32-27.36 5.12-0.32 7.68-0.48 11.36-0.48 3.84-1.76 5.28-7.52 7.68-12.48zm-20.16-7.52c-0.16-10.4-1.44-27.2-2.08-35.68h6.56c0.48 9.28 3.04 27.36 1.44 35.52z"/><path d="m250.18 186.32c1.4667-8.8 1.9067-26.987 2.2-30.653 0.29333-3.96-4.84-6.6-7.1867-7.92l4.84-4.4c0.88-8.36 1.1733-15.84 1.0267-24.2-0.14667-8.9467-3.2267-23.76-7.3333-29.48-8.8-0.29333-19.8-0.14667-30.507 1.4667 0.88 30.8 1.9067 62.773 0.58666 94.013 3.52 1.4667 13.787 1.0267 16.867 0.29333 0.29333-2.4933-0.58667-19.067 0-27.28h3.3733c1.76 6.0133 1.32 22.44 1.9067 27.427 3.3733 1.32 11.293 0.73333 14.227 0.73333zm-19.947-48.253c-0.14667-9.68-0.44-18.187-1.0267-27.867l5.72-1.6133c1.6133 8.9467 1.32 18.627 1.32 27.72z" style="font-feature-settings:normal;font-variant-caps:normal;font-variant-ligatures:normal;font-variant-numeric:normal"/><path d="m263.6 185.14c9.8267 1.6133 20.24 1.6133 28.16-1.32 1.76-16.427 2.3467-31.093 2.64-47.373 0.29333-14.667 0.73333-33.293-5.1333-46.933-8.5067-1.32-18.48 0-26.84 0.88-4.6933 13.64-4.84 27.28-4.84 42.973 0 23.027 1.0267 36.227 6.0133 51.773zm6.8933-72.893c2.0533-0.73333 7.04-0.29333 8.36-0.88 1.9067 15.253 0.88 33.147 1.76 49.133-2.64 1.4667-4.1067 0.73333-7.1867 1.0267-2.4933-17.16-2.64-37.547-2.9333-49.28z" style="font-feature-settings:normal;font-variant-caps:normal;font-variant-ligatures:normal;font-variant-numeric:normal"/><path d="m344.46 185.88c-4.6933-21.12-10.707-38.28-13.493-55.733 3.08-13.053 8.2133-25.227 12.027-39.013-5.5733-1.32-14.227-1.32-15.84-0.29333-1.9067 6.8933-2.7867 9.3867-5.72 17.6-2.64-6.6-5.28-13.64-7.92-18.627-4.6933 0.29333-13.053-0.73333-17.453 0 3.96 12.173 11 26.84 14.373 40.92-2.3467 18.48-8.2133 36.667-12.613 54.707 3.6667 0.44 11.44 1.32 14.96 0.44 3.52-10.56 5.4267-15.253 8.36-24.933 2.3467 8.8 4.9867 15.693 7.6267 25.08 6.0133-0.14667 10.707 0 15.693-0.14667z" style="font-feature-settings:normal;font-variant-caps:normal;font-variant-ligatures:normal;font-variant-numeric:normal"/><path d="m377.17 186.17c0.29334-13.053 0.14667-30.653 0.58667-44.88 3.6667-14.667 9.68-36.813 13.053-51.04-4.6933-0.44-9.9733-0.44-14.96-0.14667-3.2267 7.1867-4.4 19.947-6.7467 26.987-2.9333-8.2133-3.3733-17.893-5.28-27.133-4.84-0.14667-14.52-0.14667-19.507 0.44 6.0133 14.813 9.5333 32.413 12.76 48.84 0.14666 13.933 1.0267 31.827 0.44 46.787 4.9867 1.1733 14.96-0.14667 19.653 0.14667z" style="font-feature-settings:normal;font-variant-caps:normal;font-variant-ligatures:normal;font-variant-numeric:normal"/></g></g></g></svg>
